<?xml version="1.0" encoding="UTF-8" standalone="no"?>
<svg
   width="22"
   height="22"
   enable-background="new"
   version="1.1"
   id="svg65"
   sodipodi:docname="audio.svg"
   inkscape:version="1.2.2 (b0a8486541, 2022-12-01)"
   xmlns:inkscape="http://www.inkscape.org/namespaces/inkscape"
   xmlns:sodipodi="http://sodipodi.sourceforge.net/DTD/sodipodi-0.dtd"
   xmlns="http://www.w3.org/2000/svg"
   xmlns:svg="http://www.w3.org/2000/svg">
  <sodipodi:namedview
     id="namedview67"
     pagecolor="#ffffff"
     bordercolor="#000000"
     borderopacity="0.25"
     inkscape:showpageshadow="2"
     inkscape:pageopacity="0.0"
     inkscape:pagecheckerboard="0"
     inkscape:deskcolor="#d1d1d1"
     showgrid="false"
     inkscape:zoom="2.6818182"
     inkscape:cx="34.118644"
     inkscape:cy="25.169491"
     inkscape:window-width="1368"
     inkscape:window-height="700"
     inkscape:window-x="0"
     inkscape:window-y="32"
     inkscape:window-maximized="1"
     inkscape:current-layer="svg65" />
  <defs
     id="defs3">
    <style
       id="current-color-scheme"
       type="text/css">.ColorScheme-Text { color:#dedede; } .ColorScheme-Highlight { color:#5294e2; } .ColorScheme-ButtonBackground { color:#dedede; }</style>
  </defs>
  <g
     id="audio-volume-high">
    <path
       d="M 0,0 H 22 V 22 H 0 Z"
       fill="none"
       id="path14" />
    <path
       d="m 13,8 v 6 c 1.1008,-0.5968 1.7872,-1.7478 1.789,-3 C 14.789,9.7 14.07,8.58 13,8 Z"
       id="path358"
       fill="currentColor"
       class="ColorScheme-Text" />
    <path
       d="M 11,4 7,8 H 4 v 2 2 2 h 3 l 4,4 V 6.828 3.9999 Z M 9,8.8281 v 4.3418 L 8,12.17185 7.83008,11.99997 H 7.82813 6.00003 v -2 h 1.8281 0.00195 L 8,9.82809 l 1,-1 z"
       id="path360"
       class="ColorScheme-Text"
       fill="currentColor" />
    <path
       d="m 13,4 v 1.5 c 2.32,0.74 4,2.93 4,5.5 0,2.57 -1.68,4.76 -4,5.5 V 18 c 3.15,-0.78 5.5,-3.6 5.5,-7 0,-3.4 -2.35,-6.22 -5.5,-7 z"
       id="path528"
       fill="currentColor"
       class="ColorScheme-Text" />
  </g>
  <g
     id="audio-volume-medium"
     transform="translate(30)">
    <path
       d="M 0,0 H 22 V 22 H 0 Z"
       fill="none"
       id="path642" />
    <path
       d="m 13,8 v 6 c 1.1008,-0.5968 1.7872,-1.7478 1.789,-3 C 14.789,9.7 14.07,8.58 13,8 Z"
       id="path644"
       fill="currentColor"
       class="ColorScheme-Text" />
    <path
       d="M 11,4 7,8 H 4 v 2 2 2 h 3 l 4,4 V 6.828 3.9999 Z M 9,8.8281 v 4.3418 L 8,12.17185 7.83008,11.99997 H 7.82813 6.00003 v -2 h 1.8281 0.00195 L 8,9.82809 l 1,-1 z"
       id="path646"
       class="ColorScheme-Text"
       fill="currentColor" />
    <path
       d="m 13,4 v 1.5 c 2.32,0.74 4,2.93 4,5.5 0,2.57 -1.68,4.76 -4,5.5 V 18 c 3.15,-0.78 5.5,-3.6 5.5,-7 0,-3.4 -2.35,-6.22 -5.5,-7 z"
       id="path648"
       fill="currentColor"
       class="ColorScheme-Text"
       style="opacity:0.35" />
  </g>
  <g
     id="audio-volume-low"
     transform="translate(60)">
    <path
       d="M 0,0 H 22 V 22 H 0 Z"
       fill="none"
       id="path652" />
    <path
       d="m 13,8 v 6 c 1.1008,-0.5968 1.7872,-1.7478 1.789,-3 C 14.789,9.7 14.07,8.58 13,8 Z"
       id="path654"
       fill="currentColor"
       class="ColorScheme-Text"
       style="opacity:0.35" />
    <path
       d="M 11,4 7,8 H 4 v 2 2 2 h 3 l 4,4 V 6.828 3.9999 Z M 9,8.8281 v 4.3418 L 8,12.17185 7.83008,11.99997 H 7.82813 6.00003 v -2 h 1.8281 0.00195 L 8,9.82809 l 1,-1 z"
       id="path656"
       class="ColorScheme-Text"
       fill="currentColor" />
    <path
       d="m 13,4 v 1.5 c 2.32,0.74 4,2.93 4,5.5 0,2.57 -1.68,4.76 -4,5.5 V 18 c 3.15,-0.78 5.5,-3.6 5.5,-7 0,-3.4 -2.35,-6.22 -5.5,-7 z"
       id="path658"
       fill="currentColor"
       class="ColorScheme-Text"
       style="opacity:0.35" />
  </g>
  <g
     id="audio-volume-muted">
    <path
       d="m 91,0 h 22 V 22 H 91 Z"
       fill="none"
       id="path666" />
    <path
       id="path668"
       class="ColorScheme-Text"
       d="M 94.929688,2.515625 93.515625,3.9296875 97.585938,8 H 95 v 2 2 2 h 3 l 4,4 v -5.585938 l 3.40625,3.40625 C 104.9738,16.10655 104.50341,16.339431 104,16.5 V 18 c 0.89617,-0.221908 1.7279,-0.60843 2.45898,-1.126953 l 2.61133,2.611328 1.41407,-1.414063 -2.56836,-2.568359 -1.05469,-1.054687 -1.61328,-1.613282 L 104,11.585938 102,9.5859375 99.207031,6.7929688 Z M 102,4 100.62109,5.3789062 102,6.7558594 Z m 2,0 v 1.5 c 2.32,0.7399979 4,2.9300078 4,5.5 0,0.534541 -0.0769,1.050932 -0.21289,1.542969 l 1.17969,1.179687 C 109.31018,12.88426 109.5,11.965315 109.5,11 109.5,7.6000102 107.15,4.7799976 104,4 Z m 0,4 v 0.7558594 l 1.75391,1.7539066 C 105.59848,9.421775 104.93286,8.5056588 104,8 Z M 99.207031,9.6210938 100,10.414062 v 2.75586 L 99,12.171875 98.830078,12 h -0.002 H 97 v -2 h 1.828125 0.002 L 99,9.828125 Z"
       fill="currentColor" />
  </g>
  <g
     id="16-16-audio-volume-high">
    <path
       d="M 3,39 H 19 V 55 H 3 Z"
       fill="none"
       id="path1299"
       style="fill:none;stroke-width:0.727273" />
    <path
       d="m 13,44 v 6 c 1.1008,-0.5968 1.7872,-1.7478 1.789,-3 0,-1.3 -0.719,-2.42 -1.789,-3 z"
       id="path1301"
       fill="currentColor"
       class="ColorScheme-Text" />
    <path
       d="M 11,40 7,44 H 4 v 2 2 2 h 3 l 4,4 V 42.828 39.9999 Z m -2,4.8281 v 4.3418 L 8,48.17185 7.83008,47.99997 H 7.82813 6.00003 v -2 h 1.8281 0.00195 L 8,45.82809 l 1,-1 z"
       id="path1303"
       class="ColorScheme-Text"
       fill="currentColor" />
    <path
       d="m 13,40 v 1.5 c 2.32,0.74 4,2.93 4,5.5 0,2.57 -1.68,4.76 -4,5.5 V 54 c 3.15,-0.78 5.5,-3.6 5.5,-7 0,-3.4 -2.35,-6.22 -5.5,-7 z"
       id="path1305"
       fill="currentColor"
       class="ColorScheme-Text" />
  </g>
  <g
     id="16-16-audio-volume-medium">
    <path
       d="M 33,39 H 49 V 55 H 33 Z"
       fill="none"
       id="path1309"
       style="fill:none;stroke-width:0.727273" />
    <path
       d="m 43,44 v 6 c 1.1008,-0.5968 1.7872,-1.7478 1.789,-3 0,-1.3 -0.719,-2.42 -1.789,-3 z"
       id="path1311"
       fill="currentColor"
       class="ColorScheme-Text" />
    <path
       d="m 41,40 -4,4 h -3 v 2 2 2 h 3 l 4,4 V 42.828 39.9999 Z m -2,4.8281 v 4.3418 l -1,-0.99805 -0.16992,-0.17188 h -0.002 -1.8281 v -2 h 1.8281 0.002 L 38,45.82809 l 1,-1 z"
       id="path1313"
       class="ColorScheme-Text"
       fill="currentColor" />
    <path
       d="m 43,40 v 1.5 c 2.32,0.74 4,2.93 4,5.5 0,2.57 -1.68,4.76 -4,5.5 V 54 c 3.15,-0.78 5.5,-3.6 5.5,-7 0,-3.4 -2.35,-6.22 -5.5,-7 z"
       id="path1315"
       fill="currentColor"
       class="ColorScheme-Text"
       style="opacity:0.35" />
  </g>
  <g
     id="16-16-audio-volume-low">
    <path
       d="M 63,39 H 79 V 55 H 63 Z"
       fill="none"
       id="path1319"
       style="fill:none;stroke-width:0.727273" />
    <path
       d="m 73,44 v 6 c 1.1008,-0.5968 1.7872,-1.7478 1.789,-3 0,-1.3 -0.719,-2.42 -1.789,-3 z"
       id="path1321"
       fill="currentColor"
       class="ColorScheme-Text"
       style="opacity:0.35" />
    <path
       d="m 71,40 -4,4 h -3 v 2 2 2 h 3 l 4,4 V 42.828 39.9999 Z m -2,4.8281 v 4.3418 l -1,-0.99805 -0.16992,-0.17188 h -0.0019 -1.8281 v -2 h 1.8281 0.0019 L 68,45.82809 l 1,-1 z"
       id="path1323"
       class="ColorScheme-Text"
       fill="currentColor" />
    <path
       d="m 73,40 v 1.5 c 2.32,0.74 4,2.93 4,5.5 0,2.57 -1.68,4.76 -4,5.5 V 54 c 3.15,-0.78 5.5,-3.6 5.5,-7 0,-3.4 -2.35,-6.22 -5.5,-7 z"
       id="path1325"
       fill="currentColor"
       class="ColorScheme-Text"
       style="opacity:0.35" />
  </g>
  <g
     id="16-16-audio-volume-muted">
    <path
       d="m 94,39 h 16 V 55 H 94 Z"
       fill="none"
       id="path1329"
       style="fill:none;stroke-width:0.727273" />
    <path
       id="path1331"
       class="ColorScheme-Text"
       d="m 95,39 c -0.553999,0 -1,0.446001 -1,1 v 0.414062 L 97.585938,44 H 95 v 2 2 2 h 3 l 4,4 v -5.585938 l 3.40625,3.40625 C 104.9738,52.10655 104.50341,52.339431 104,52.5 V 54 c 0.89617,-0.221908 1.72791,-0.608431 2.45898,-1.126953 L 108.58594,55 H 109 c 0.554,0 1,-0.446001 1,-1 v -0.414062 l -2.08398,-2.083985 -1.05469,-1.054687 -1.61328,-1.613282 L 104,47.585938 l -2,-2 L 99.207031,42.792969 95.414062,39 Z m 7,1 -1.37891,1.378906 L 102,42.755859 Z m 2,0 v 1.5 c 2.32,0.739997 4,2.930011 4,5.5 0,0.53454 -0.0769,1.050932 -0.21289,1.542969 l 1.17969,1.179687 C 109.31018,48.884261 109.5,47.965314 109.5,47 c 0,-3.399987 -2.35,-6.220003 -5.5,-7 z m 0,4 v 0.755859 l 1.75391,1.753907 C 105.59848,45.421776 104.93286,44.505658 104,44 Z M 99.207031,45.621094 100,46.414062 v 2.75586 L 99,48.171875 98.830078,48 h -0.002 H 97 v -2 h 1.828125 0.002 L 99,45.828125 Z"
       fill="currentColor" />
  </g>
</svg>
