<?xml version="1.0" encoding="UTF-8" standalone="no"?>
<svg
   width="22"
   height="22"
   version="1.1"
   viewBox="0 0 22 22"
   id="svg22"
   sodipodi:docname="compass.svg"
   inkscape:version="1.1.1 (3bf5ae0d25, 2021-09-20, custom)"
   xmlns:inkscape="http://www.inkscape.org/namespaces/inkscape"
   xmlns:sodipodi="http://sodipodi.sourceforge.net/DTD/sodipodi-0.dtd"
   xmlns="http://www.w3.org/2000/svg"
   xmlns:svg="http://www.w3.org/2000/svg"
   xmlns:rdf="http://www.w3.org/1999/02/22-rdf-syntax-ns#"
   xmlns:cc="http://creativecommons.org/ns#"
   xmlns:dc="http://purl.org/dc/elements/1.1/">
  <sodipodi:namedview
     id="namedview24"
     pagecolor="#ffffff"
     bordercolor="#666666"
     borderopacity="1.0"
     inkscape:pageshadow="2"
     inkscape:pageopacity="0.0"
     inkscape:pagecheckerboard="0"
     showgrid="true"
     inkscape:zoom="6.6022726"
     inkscape:cx="-4.2409639"
     inkscape:cy="4.2409639"
     inkscape:window-width="1486"
     inkscape:window-height="974"
     inkscape:window-x="245"
     inkscape:window-y="40"
     inkscape:window-maximized="0"
     inkscape:current-layer="svg22"
     inkscape:snap-bbox="true"
     inkscape:bbox-nodes="true">
    <inkscape:grid
       type="xygrid"
       id="grid2036" />
  </sodipodi:namedview>
  <metadata
     id="metadata2">
    <rdf:RDF>
      <cc:Work
         rdf:about="">
        <dc:format>image/svg+xml</dc:format>
        <dc:type
           rdf:resource="http://purl.org/dc/dcmitype/StillImage" />
      </cc:Work>
    </rdf:RDF>
  </metadata>
  <defs
     id="defs5">
    <style
       id="current-color-scheme"
       type="text/css">.ColorScheme-Text { color:#dedede; } .ColorScheme-Highlight { color:#5294e2; }</style>
  </defs>
  <g
     id="compass">
    <path
       id="path2060"
       style="fill:#ffffff;opacity:0.8"
       d="m 8,-34 c -7.73198649,0 -14,6.268014 -14,14 0,7.731986 6.26801351,14 14,14 7.731986,0 14,-6.268014 14,-14 0,-7.731986 -6.268014,-14 -14,-14 z m 8.583984,4.517578 c 0.201904,0.01993 0.396251,0.104573 0.556641,0.244141 0.0347,0.03431 0.06921,0.06882 0.103516,0.103515 0.279541,0.326471 0.321203,0.794776 0.09961,1.164063 l -3.652344,6.074219 C 13.895481,-21.285 13.999684,-20.644639 14,-20 c 0,3.313708 -2.686292,6 -6,6 -0.6695334,-1.65e-4 -1.3343143,-0.112393 -1.9667969,-0.332031 0.022089,0.0079 0.044225,0.01574 0.066406,0.02344 l -6.07031252,3.652344 c -0.33145314,0.198891 -0.73769744,0.175371 -1.05468748,-0.03125 -0.097192,-0.0942 -0.1929068,-0.189917 -0.2871094,-0.287109 -0.2066213,-0.316991 -0.2301412,-0.723234 -0.03125,-1.054688 l 3.6523438,-6.074219 C 2.1045185,-18.715 2.0003155,-19.355361 2,-20 c 0,-3.313708 2.6862915,-6 6,-6 0.6452769,1.11e-4 1.2863483,0.104317 1.8984375,0.308594 l 6.0722655,-3.652344 c 0.189167,-0.113613 0.404525,-0.159273 0.613281,-0.138672 z m -0.09961,0.998047 -5.476563,3.292969 c 0.906158,0.525408 1.658974,1.278933 2.183594,2.185547 z M 8,-25 c -2.7614237,0 -5,2.238576 -5,5 0,2.761424 2.2385763,5 5,5 2.761424,0 5,-2.238576 5,-5 0,-2.761424 -2.238576,-5 -5,-5 z m -0.050781,2 c 0.016927,-1.43e-4 0.033854,-1.43e-4 0.050781,0 1.6568542,0 3,1.343146 3,3 0,1.656854 -1.3431458,3 -3,3 -1.6568542,0 -3,-1.343146 -3,-3 -2.347e-4,-1.637217 1.3122368,-2.97228 2.949219,-3 z m 0,1 C 6.8645376,-21.97244 5.9996499,-21.085031 6,-20 c 0,1.104569 0.8954305,2 2,2 1.1045695,0 2,-0.895431 2,-2 0,-1.104569 -0.8954305,-2 -2,-2 -0.016275,-1.99e-4 -0.032553,-1.99e-4 -0.048828,0 z m -5.140625,5.007812 -3.2929688,5.476563 5.4765625,-3.292969 c -0.905917,-0.524883 -1.6587112,-1.277677 -2.1835937,-2.183594 z" />
    <rect
       x="-8"
       y="-36.055"
       width="32"
       height="32"
       fill="none"
       stroke-linecap="round"
       stroke-linejoin="round"
       stroke-miterlimit="2"
       stroke-width="4.2666"
       id="rect17" />
  </g>
  <g
     id="16-16-compass"
     transform="translate(0.126953,2.873047)">
    <rect
       x="24.873047"
       width="16"
       height="16"
       fill="none"
       id="rect5"
       y="0.12695301" />
    <path
       id="circle4"
       d="m 32.873047,0.126953 a 8,8 0 0 0 -8,8 8,8 0 0 0 8,8 8,8 0 0 0 8,-8 8,8 0 0 0 -8,-8 z m 0,2 a 5.9999809,5.9999809 0 0 1 6,6 5.9999809,5.9999809 0 0 1 -6,6 5.9999809,5.9999809 0 0 1 -6,-6 5.9999809,5.9999809 0 0 1 6,-6 z"
       class="ColorScheme-Text"
       fill="currentColor" />
    <path
       d="m 35.355469,4.392578 -4.236328,1.324219 a 1.0001,1.0001 0 0 0 -0.65625,0.65625 l -1.324219,4.236328 a 1.0001,1.0001 0 0 0 1.251953,1.251953 l 4.236328,-1.324219 a 1.0001,1.0001 0 0 0 0.65625,-0.65625 L 36.607422,5.644531 A 1.0001,1.0001 0 0 0 35.355469,4.392578 Z m -1.228516,2.480469 -0.597656,1.910156 -1.910156,0.597656 0.597656,-1.910156 z"
       id="path2"
       class="ColorScheme-Text"
       fill="currentColor" />
  </g>
  <g
     id="22-22-compass">
    <circle
       cx="11"
       cy="11"
       r="11"
       fill="none"
       id="circle10" />
    <path
       id="path1252"
       d="m 11,3 a 8,8 0 0 0 -8,8 8,8 0 0 0 8,8 8,8 0 0 0 8,-8 8,8 0 0 0 -8,-8 z m 0,2 a 5.9999809,5.9999809 0 0 1 6,6 5.9999809,5.9999809 0 0 1 -6,6 5.9999809,5.9999809 0 0 1 -6,-6 5.9999809,5.9999809 0 0 1 6,-6 z"
       class="ColorScheme-Text"
       fill="currentColor" />
    <path
       d="M 13.482422,7.265625 9.246094,8.589844 a 1.0001,1.0001 0 0 0 -0.65625,0.65625 l -1.324219,4.236328 a 1.0001,1.0001 0 0 0 1.251953,1.251953 l 4.236328,-1.324219 a 1.0001,1.0001 0 0 0 0.65625,-0.65625 L 14.734375,8.517578 A 1.0001,1.0001 0 0 0 13.482422,7.265625 Z M 12.253906,9.746094 11.65625,11.65625 9.746094,12.253906 10.34375,10.34375 Z"
       id="path1254"
       class="ColorScheme-Text"
       fill="currentColor" />
  </g>
</svg>
