<?xml version="1.0" encoding="UTF-8" standalone="no"?>
<svg
   xmlns:dc="http://purl.org/dc/elements/1.1/"
   xmlns:cc="http://creativecommons.org/ns#"
   xmlns:rdf="http://www.w3.org/1999/02/22-rdf-syntax-ns#"
   xmlns:svg="http://www.w3.org/2000/svg"
   xmlns="http://www.w3.org/2000/svg"
   xmlns:sodipodi="http://sodipodi.sourceforge.net/DTD/sodipodi-0.dtd"
   xmlns:inkscape="http://www.inkscape.org/namespaces/inkscape"
   width="22"
   height="22"
   version="1.1"
   id="svg60"
   sodipodi:docname="computer.svg"
   inkscape:version="0.92.4 5da689c313, 2019-01-14">
  <metadata
     id="metadata64">
    <rdf:RDF>
      <cc:Work
         rdf:about="">
        <dc:format>image/svg+xml</dc:format>
        <dc:type
           rdf:resource="http://purl.org/dc/dcmitype/StillImage" />
        <dc:title />
      </cc:Work>
    </rdf:RDF>
  </metadata>
  <sodipodi:namedview
     pagecolor="#3a3a3a"
     bordercolor="#666666"
     borderopacity="1"
     objecttolerance="10"
     gridtolerance="10"
     guidetolerance="10"
     inkscape:pageopacity="0"
     inkscape:pageshadow="2"
     inkscape:window-width="1366"
     inkscape:window-height="692"
     id="namedview62"
     showgrid="true"
     inkscape:snap-bbox="true"
     inkscape:bbox-nodes="true"
     inkscape:snap-bbox-edge-midpoints="true"
     inkscape:snap-nodes="true"
     inkscape:object-paths="true"
     inkscape:zoom="5.3636364"
     inkscape:cx="39.500433"
     inkscape:cy="-4.9720614"
     inkscape:window-x="0"
     inkscape:window-y="0"
     inkscape:window-maximized="1"
     inkscape:current-layer="svg60"
     inkscape:snap-intersection-paths="true"
     inkscape:snap-bbox-midpoints="true"
     inkscape:snap-smooth-nodes="true"
     inkscape:snap-midpoints="true">
    <inkscape:grid
       type="xygrid"
       id="grid879" />
  </sodipodi:namedview>
  <defs
     id="defs6">
    <style
       id="current-color-scheme"
       type="text/css">.ColorScheme-Text { color:#dedede; } .ColorScheme-Highlight { color:#5294e2; } .ColorScheme-ButtonBackground { color:#dedede; }</style>
    <filter
       id="a"
       x="-.036"
       y="-.036"
       width="1.072"
       height="1.072"
       color-interpolation-filters="sRGB">
      <feGaussianBlur
         stdDeviation="0.435"
         id="feGaussianBlur3" />
    </filter>
    <style
       id="style883"
       type="text/css" />
  </defs>
  <g
     id="computer">
    <rect
       x="-3"
       y="-36.983051"
       width="32"
       height="32"
       rx="0"
       ry="0"
       style="opacity:0;stroke-width:2;paint-order:fill markers stroke"
       id="rect38" />
    <path
       id="path881"
       d="M 13 -35.982422 A 15 15 0 0 0 -2 -20.982422 A 15 15 0 0 0 13 -5.9824219 A 15 15 0 0 0 28 -20.982422 A 15 15 0 0 0 13 -35.982422 z M 5 -29 L 21 -29 C 22.108 -29 23 -28.108 23 -27 L 23 -17 C 23 -15.892 22.108 -15 21 -15 L 14 -15 L 14 -13 L 16.5 -13 C 16.777 -13 17 -12.777 17 -12.5 C 17 -12.223 16.777 -12 16.5 -12 L 9.5 -12 C 9.223 -12 9 -12.223 9 -12.5 C 9 -12.777 9.223 -13 9.5 -13 L 12 -13 L 12 -15 L 5 -15 C 3.892 -15 3 -15.892 3 -17 L 3 -27 C 3 -28.108 3.892 -29 5 -29 z M 5 -28 C 4.446 -28 4 -27.554 4 -27 L 4 -18 L 22 -18 L 22 -27 C 22 -27.554 21.554 -28 21 -28 L 5 -28 z M 4 -17 C 4 -16.446 4.446 -16 5 -16 L 21 -16 C 21.554 -16 22 -16.446 22 -17 L 4 -17 z "
       style="opacity:0.8;fill:#ffffff;fill-opacity:1;stroke:none;stroke-width:2.5;stroke-linecap:round;stroke-linejoin:round;stroke-miterlimit:4;stroke-dasharray:none;stroke-opacity:1;paint-order:stroke fill markers" />
  </g>
  <g
     id="computer-laptop">
    <path
       id="path930"
       d="M 59 -35.982422 C 50.715729 -35.982422 44 -29.266693 44 -20.982422 C 44 -12.698151 50.715729 -5.9824219 59 -5.9824219 C 67.284271 -5.9824219 74 -12.698151 74 -20.982422 C 74 -29.266693 67.284271 -35.982422 59 -35.982422 z M 51 -29 L 67 -29 C 68.108 -29 69 -28.108 69 -27 L 69 -17 C 69 -15.892 68.108 -15 67 -15 L 51 -15 C 49.892 -15 49 -15.892 49 -17 L 49 -27 C 49 -28.108 49.892 -29 51 -29 z M 51 -28 C 50.446 -28 50 -27.554 50 -27 L 50 -17 C 50 -16.446 50.446 -16 51 -16 L 67 -16 C 67.554 -16 68 -16.446 68 -17 L 68 -27 C 68 -27.554 67.554 -28 67 -28 L 51 -28 z M 49.5 -14 L 68.5 -14 C 68.777 -14 69 -13.777 69 -13.5 C 69 -13.223 68.777 -13 68.5 -13 L 49.5 -13 C 49.223 -13 49 -13.223 49 -13.5 C 49 -13.777 49.223 -14 49.5 -14 z "
       style="opacity:0.8;fill:#ffffff;fill-opacity:1;stroke:none;stroke-width:2.5;stroke-linecap:round;stroke-linejoin:round;stroke-miterlimit:4;stroke-dasharray:none;stroke-opacity:1;paint-order:stroke fill markers" />
    <rect
       id="rect928"
       style="opacity:0;stroke-width:2;paint-order:fill markers stroke"
       ry="0"
       rx="0"
       height="32"
       width="32"
       y="-36.983051"
       x="43" />
  </g>
  <g
     id="22-22-computer">
    <rect
       style="color:#bebebe;opacity:0;stroke-width:2"
       y="0"
       id="rect23"
       transform="scale(-1,1)"
       x="-22"
       width="22"
       height="22" />
    <g
       style="fill:#eaeaea"
       id="g30">
      <path
         id="rect878"
         d="M 3,3 C 1.892,3 1,3.892 1,5 v 11 c 0,1.108 0.892,2 2,2 h 16 c 1.108,0 2,-0.892 2,-2 V 5 C 21,3.892 20.108,3 19,3 Z m 0,1 h 16 c 0.554,0 1,0.446 1,1 v 11 c 0,0.554 -0.446,1 -1,1 H 3 C 2.446,17 2,16.554 2,16 V 5 C 2,4.446 2.446,4 3,4 Z"
         inkscape:connector-curvature="0" />
      <rect
         id="rect880"
         x="5"
         y="19"
         width="12"
         height="1"
         rx="0"
         ry="0.5" />
      <rect
         style="opacity:0.35"
         id="rect882"
         x="2"
         y="4"
         width="18"
         height="13"
         rx="1"
         ry="0" />
    </g>
  </g>
  <g
     id="22-22-computer-laptop"
     transform="translate(51)">
    <rect
       style="color:#bebebe;opacity:0;stroke-width:2"
       y="0"
       id="rect893"
       transform="scale(-1,1)"
       x="-22"
       width="22"
       height="22" />
    <g
       style="fill:#eaeaea"
       id="g37">
      <path
         id="path895"
         d="M 3,3 C 1.892,3 1,3.892 1,5 v 10 c 0,1.108 0.892,2 2,2 h 16 c 1.108,0 2,-0.892 2,-2 V 5 C 21,3.892 20.108,3 19,3 Z m 0,1 h 16 c 0.554,0 1,0.446 1,1 v 10 c 0,0.554 -0.446,1 -1,1 H 3 C 2.446,16 2,15.554 2,15 V 5 C 2,4.446 2.446,4 3,4 Z"
         inkscape:connector-curvature="0"
         sodipodi:nodetypes="ssssssssssssssssss" />
      <rect
         id="rect897"
         x="1"
         y="18"
         width="20"
         height="1"
         rx="0"
         ry="0.5"
         style="stroke-width:0.9534626" />
      <path
         style="opacity:0.35"
         d="m 3,4 h 16 c 0.554,0 1,0.446 1,1 v 10 c 0,0.554 -0.446,1 -1,1 H 3 C 2.446,16 2,15.554 2,15 V 5 C 2,4.446 2.446,4 3,4 Z"
         id="rect899" />
    </g>
  </g>
  <g
     id="16-16-computer">
    <rect
       style="color:#bebebe;fill:none"
       id="rect16"
       transform="scale(-1,1)"
       x="-18"
       y="28"
       width="16"
       height="16" />
    <rect
       style="color:#bebebe;opacity:0;stroke-width:3"
       id="rect18"
       transform="scale(-1,1)"
       x="-18"
       y="28"
       width="16"
       height="16" />
    <g
       style="fill:#eaeaea"
       id="g45">
      <path
         inkscape:connector-curvature="0"
         id="rect906"
         d="m 3,29 c -0.554,0 -1,0.446 -1,1 v 10 c 0,0.554 0.446,1 1,1 h 14 c 0.554,0 1,-0.446 1,-1 V 30 c 0,-0.554 -0.446,-1 -1,-1 z m 0,1 H 17 V 40 H 3 Z" />
      <rect
         id="rect908"
         x="6"
         y="42"
         width="8"
         height="1"
         rx="0"
         ry="0.5" />
      <rect
         style="opacity:0.35"
         id="rect910"
         x="3"
         y="30"
         width="14"
         height="10"
         rx="0"
         ry="0" />
    </g>
  </g>
  <g
     id="16-16-computer-laptop"
     transform="translate(49)">
    <rect
       style="color:#bebebe;fill:none"
       id="rect922"
       transform="scale(-1,1)"
       x="-18"
       y="28"
       width="16"
       height="16" />
    <rect
       style="color:#bebebe;opacity:0;stroke-width:3"
       id="rect924"
       transform="scale(-1,1)"
       x="-18"
       y="28"
       width="16"
       height="16" />
    <g
       style="fill:#eaeaea"
       id="g53">
      <path
         id="path926"
         d="m 3,29 c -0.554,0 -1,0.446 -1,1 v 9 c 0,0.554 0.446,1 1,1 h 14 c 0.554,0 1,-0.446 1,-1 v -9 c 0,-0.554 -0.446,-1 -1,-1 z m 0,1 h 14 v 9 H 3 Z"
         inkscape:connector-curvature="0"
         sodipodi:nodetypes="sssssssssccccc" />
      <rect
         id="rect928-0"
         x="2"
         y="41"
         width="16"
         height="1"
         rx="0"
         ry="0.5" />
      <rect
         style="opacity:0.35"
         id="rect930"
         x="3"
         y="30"
         width="14"
         height="9"
         rx="0"
         ry="0" />
    </g>
  </g>
</svg>
