<?xml version="1.0" encoding="UTF-8" standalone="no"?>
<svg
   width="22"
   height="22"
   version="1.1"
   viewBox="0 0 22 22"
   id="svg22"
   sodipodi:docname="compass.svg"
   inkscape:version="1.1 (c4e8f9ed74, 2021-05-24)"
   xmlns:inkscape="http://www.inkscape.org/namespaces/inkscape"
   xmlns:sodipodi="http://sodipodi.sourceforge.net/DTD/sodipodi-0.dtd"
   xmlns="http://www.w3.org/2000/svg"
   xmlns:svg="http://www.w3.org/2000/svg"
   xmlns:rdf="http://www.w3.org/1999/02/22-rdf-syntax-ns#"
   xmlns:cc="http://creativecommons.org/ns#"
   xmlns:dc="http://purl.org/dc/elements/1.1/">
  <sodipodi:namedview
     id="namedview24"
     pagecolor="#ffffff"
     bordercolor="#666666"
     borderopacity="1.0"
     inkscape:pageshadow="2"
     inkscape:pageopacity="0.0"
     inkscape:pagecheckerboard="0"
     showgrid="true"
     inkscape:zoom="9.3370235"
     inkscape:cx="-5.4621261"
     inkscape:cy="-10.656501"
     inkscape:window-width="1920"
     inkscape:window-height="1008"
     inkscape:window-x="0"
     inkscape:window-y="0"
     inkscape:window-maximized="1"
     inkscape:current-layer="svg22"
     inkscape:snap-bbox="true"
     inkscape:bbox-nodes="true">
    <inkscape:grid
       type="xygrid"
       id="grid2036" />
  </sodipodi:namedview>
  <metadata
     id="metadata2">
    <rdf:RDF>
      <cc:Work
         rdf:about="">
        <dc:format>image/svg+xml</dc:format>
        <dc:type
           rdf:resource="http://purl.org/dc/dcmitype/StillImage" />
      </cc:Work>
    </rdf:RDF>
  </metadata>
  <defs
     id="defs5">
    <style
       id="current-color-scheme"
       type="text/css">.ColorScheme-Text { color:#dedede; } .ColorScheme-Highlight { color:#5294e2; }</style>
  </defs>
  <g
     id="16-16-compass">
    <rect
       x="25"
       width="16"
       height="16"
       fill="none"
       stroke-linecap="round"
       stroke-linejoin="round"
       stroke-miterlimit="2"
       stroke-width="2.1333"
       id="rect7" />
    <path
       class="ColorScheme-Text"
       d="m33 1.0273c-3.866 0-7 3.1182-7 7s3.134 7 7 7 7-3.1182 7-7-3.134-7-7-7zm0 1.9727c2.7614 0 5 2.2909 5 5.0273s-2.2386 5.0273-5 5.0273-5-2.2909-5-5.0273 2.2386-5.0273 5-5.0273zm3.5 1.5273-3.5 1.1455c-1.2217 0-2.334 1.1455-2.334 2.3545l-1.166 3.5 3.5-1.1455c1.2217 0 2.334-1.1455 2.334-2.3545zm-3.5 2.3545c0.61088 0 1.166 0.50909 1.166 1.1455-1.9e-5 0.63636-0.55518 1.1455-1.166 1.1455-0.61085 0-1.166-0.50909-1.166-1.1455-3e-5 -0.63636 0.55514-1.1455 1.166-1.1455z"
       fill="#dedede"
       id="path9" />
  </g>
  <g
     id="22-22-compass">
    <circle
       cx="11"
       cy="11"
       r="11"
       opacity="0"
       id="circle12" />
    <path
       d="m16.657 5.3431a8 8 0 0 0-11.314 0 8 8 0 0 0 0 11.314 8 8 0 0 0 11.314 0 8 8 0 0 0 0-11.314zm-1.4142 1.4142a6 6 0 0 1 0 8.4853 6 6 0 0 1-8.4853 0 6 6 0 0 1 0-8.4853 6 6 0 0 1 8.4853 0zm0 0-3.2731 1.4032a3 3 0 0 0-3.0908 0.71816 3 3 0 0 0-0.71816 3.0881l-1.4032 3.2759 3.2731-1.4032a3 3 0 0 0 3.0908-0.71816 3 3 0 0 0 0.71816-3.0881zm-3.5355 3.5355a1 1 0 0 1 0 1.4142 1 1 0 0 1-1.4142 0 1 1 0 0 1 0-1.4142 1 1 0 0 1 1.4142 0z"
       fill="#dedede"
       id="path14" />
  </g>
  <g
     id="compass">
    <path
       id="path2060"
       style="fill:#ffffff;opacity:0.8"
       d="m 8,-34 c -7.73198649,0 -14,6.268014 -14,14 0,7.731986 6.26801351,14 14,14 7.731986,0 14,-6.268014 14,-14 0,-7.731986 -6.268014,-14 -14,-14 z m 8.583984,4.517578 c 0.201904,0.01993 0.396251,0.104573 0.556641,0.244141 0.0347,0.03431 0.06921,0.06882 0.103516,0.103515 0.279541,0.326471 0.321203,0.794776 0.09961,1.164063 l -3.652344,6.074219 C 13.895481,-21.285 13.999684,-20.644639 14,-20 c 0,3.313708 -2.686292,6 -6,6 -0.6695334,-1.65e-4 -1.3343143,-0.112393 -1.9667969,-0.332031 0.022089,0.0079 0.044225,0.01574 0.066406,0.02344 l -6.07031252,3.652344 c -0.33145314,0.198891 -0.73769744,0.175371 -1.05468748,-0.03125 -0.097192,-0.0942 -0.1929068,-0.189917 -0.2871094,-0.287109 -0.2066213,-0.316991 -0.2301412,-0.723234 -0.03125,-1.054688 l 3.6523438,-6.074219 C 2.1045185,-18.715 2.0003155,-19.355361 2,-20 c 0,-3.313708 2.6862915,-6 6,-6 0.6452769,1.11e-4 1.2863483,0.104317 1.8984375,0.308594 l 6.0722655,-3.652344 c 0.189167,-0.113613 0.404525,-0.159273 0.613281,-0.138672 z m -0.09961,0.998047 -5.476563,3.292969 c 0.906158,0.525408 1.658974,1.278933 2.183594,2.185547 z M 8,-25 c -2.7614237,0 -5,2.238576 -5,5 0,2.761424 2.2385763,5 5,5 2.761424,0 5,-2.238576 5,-5 0,-2.761424 -2.238576,-5 -5,-5 z m -0.050781,2 c 0.016927,-1.43e-4 0.033854,-1.43e-4 0.050781,0 1.6568542,0 3,1.343146 3,3 0,1.656854 -1.3431458,3 -3,3 -1.6568542,0 -3,-1.343146 -3,-3 -2.347e-4,-1.637217 1.3122368,-2.97228 2.949219,-3 z m 0,1 C 6.8645376,-21.97244 5.9996499,-21.085031 6,-20 c 0,1.104569 0.8954305,2 2,2 1.1045695,0 2,-0.895431 2,-2 0,-1.104569 -0.8954305,-2 -2,-2 -0.016275,-1.99e-4 -0.032553,-1.99e-4 -0.048828,0 z m -5.140625,5.007812 -3.2929688,5.476563 5.4765625,-3.292969 c -0.905917,-0.524883 -1.6587112,-1.277677 -2.1835937,-2.183594 z" />
    <rect
       x="-8"
       y="-36.055"
       width="32"
       height="32"
       fill="none"
       stroke-linecap="round"
       stroke-linejoin="round"
       stroke-miterlimit="2"
       stroke-width="4.2666"
       id="rect17" />
  </g>
</svg>
