<?xml version="1.0" encoding="UTF-8" standalone="no"?>
<svg
   id="svg"
   version="1.1"
   viewBox="0 0 22 22"
   sodipodi:docname="notification.svg"
   inkscape:version="1.2.1 (9c6d41e410, 2022-07-14)"
   xmlns:inkscape="http://www.inkscape.org/namespaces/inkscape"
   xmlns:sodipodi="http://sodipodi.sourceforge.net/DTD/sodipodi-0.dtd"
   xmlns="http://www.w3.org/2000/svg"
   xmlns:svg="http://www.w3.org/2000/svg"
   xmlns:rdf="http://www.w3.org/1999/02/22-rdf-syntax-ns#"
   xmlns:cc="http://creativecommons.org/ns#"
   xmlns:dc="http://purl.org/dc/elements/1.1/">
  <sodipodi:namedview
     id="namedview97"
     pagecolor="#ffffff"
     bordercolor="#000000"
     borderopacity="0.25"
     inkscape:showpageshadow="2"
     inkscape:pageopacity="0.0"
     inkscape:pagecheckerboard="0"
     inkscape:deskcolor="#d1d1d1"
     showgrid="false"
     inkscape:zoom="1.8963318"
     inkscape:cx="51.678719"
     inkscape:cy="-23.20269"
     inkscape:window-width="1368"
     inkscape:window-height="694"
     inkscape:window-x="0"
     inkscape:window-y="0"
     inkscape:window-maximized="1"
     inkscape:current-layer="svg" />
  <metadata
     id="metadata2">
    <rdf:RDF>
      <cc:Work
         rdf:about="">
        <dc:format>image/svg+xml</dc:format>
        <dc:type
           rdf:resource="http://purl.org/dc/dcmitype/StillImage" />
        <dc:title />
      </cc:Work>
    </rdf:RDF>
  </metadata>
  <defs
     id="defs5">
    <style
       id="current-color-scheme"
       type="text/css">.ColorScheme-Text { color:#dedede; } .ColorScheme-Highlight { color:#5294e2; } .ColorScheme-ButtonBackground { color:#dedede; }</style>
  </defs>
  <g
     id="22-22-notification-active">
    <rect
       y="40"
       width="22"
       height="22"
       opacity="0"
       id="rect7" />
    <path
       class="ColorScheme-Highlight"
       d="m11 43c-4.4183 0-8 3.5817-8 8s3.5817 8 8 8 8-3.5817 8-8-3.5817-8-8-8z"
       color="#5294e2"
       fill="currentColor"
       id="path9" />
    <path
       class="ColorScheme-Text"
       d="m10 47v6h2v-6zm1 7c-0.45315 0-1 0.51843-1 0.98047s0.54685 1.0195 1 1.0195 1-0.55749 1-1.0195c0-0.46204-0.54685-0.98047-1-0.98047z"
       color="#dedede"
       fill="#fff"
       fill-opacity=".94118"
       id="path11" />
  </g>
  <g
     fill="#dedede"
     id="g18">
    <path
       id="expander-bottom"
       class="ColorScheme-Text"
       d="m-18 23 2-2 2 2z" />
    <path
       id="expander-top"
       class="ColorScheme-Text"
       d="m-18 17 2 2 2-2z" />
    <path
       id="expander-right"
       class="ColorScheme-Text"
       d="m-13 18-2 2 2 2z" />
    <path
       id="expander-left"
       class="ColorScheme-Text"
       d="m-19 18 2 2-2 2z" />
  </g>
  <g
     id="22-22-notification-inactive">
    <rect
       class="ColorScheme-Text"
       width="22"
       height="22"
       fill-opacity="0"
       id="rect20" />
    <path
       class="ColorScheme-Text"
       d="m11 3a8 8 0 0 0-8 8 8 8 0 0 0 8 8 8 8 0 0 0 8-8 8 8 0 0 0-8-8zm0 2a6 6 0 0 1 6 6 6 6 0 0 1-6 6 6 6 0 0 1-6-6 6 6 0 0 1 6-6zm-1 1v6h2v-6zm1 7c-0.45315 0-1 0.51843-1 0.98047s0.54685 1.0195 1 1.0195 1-0.55749 1-1.0195c0-0.46204-0.54685-0.98047-1-0.98047z"
       color="#dedede"
       fill="currentColor"
       id="path22" />
  </g>
  <g
     id="22-22-notification-disabled">
    <rect
       y="-40"
       width="22"
       height="22"
       opacity="0"
       id="rect25" />
    <path
       class="ColorScheme-Text"
       d="m11-37a8 8 0 0 0-8 8 8 8 0 0 0 8 8 8 8 0 0 0 8-8 8 8 0 0 0-8-8zm0 2a6 6 0 0 1 6 6 6 6 0 0 1-6 6 6 6 0 0 1-6-6 6 6 0 0 1 6-6zm-1 1v6h2v-6zm1 7c-0.45315 0-1 0.51843-1 0.98047s0.54685 1.0195 1 1.0195 1-0.55749 1-1.0195c0-0.46204-0.54685-0.98047-1-0.98047z"
       color="#dedede"
       fill="currentColor"
       opacity=".3"
       id="path27" />
  </g>
  <g
     id="22-22-notification-empty">
    <rect
       x="40"
       y="-40"
       width="22"
       height="22"
       opacity="0"
       id="rect30" />
    <path
       class="ColorScheme-Text"
       d="m51-37a8 8 0 0 0-8 8 8 8 0 0 0 8 8 8 8 0 0 0 8-8 8 8 0 0 0-8-8zm0 2a6 6 0 0 1 6 6 6 6 0 0 1-6 6 6 6 0 0 1-6-6 6 6 0 0 1 6-6z"
       color="#dedede"
       fill="currentColor"
       id="path32" />
  </g>
  <g
     id="22-22-notification-progress-active">
    <rect
       x="40"
       width="22"
       height="22"
       opacity="0"
       id="rect35" />
    <path
       class="ColorScheme-Highlight"
       d="m51 3c-4.4183 0-8 3.5817-8 8s3.5817 8 8 8 8-3.5817 8-8-3.5817-8-8-8z"
       color="#5294e2"
       fill="currentColor"
       id="path37" />
  </g>
  <g
     id="22-22-notification-progress-inactive">
    <rect
       x="40"
       y="40"
       width="22"
       height="22"
       opacity="0"
       id="rect40" />
    <path
       class="ColorScheme-Text"
       d="m51 45c-3.3137 0-6 2.6863-6 6s2.6863 6 6 6 6-2.6863 6-6-2.6863-6-6-6z"
       color="#dedede"
       fill="currentColor"
       opacity=".3"
       id="path42" />
  </g>
  <g
     id="notification-inactive"
     style="stroke-linecap:round;stroke-linejoin:round">
    <g
       fill="#dedede"
       id="g51">
      <path
         d="m 116,-3 a 14,14 0 0 0 -14,14 14,14 0 0 0 14,14 14,14 0 0 0 14,-14 14,14 0 0 0 -14,-14 z m 0,2 a 12,12 0 0 1 12,12 12,12 0 0 1 -12,12 12,12 0 0 1 -12,-12 12,12 0 0 1 12,-12 z"
         stroke-width="1.1417"
         id="path45" />
      <rect
         x="115"
         y="3"
         width="2"
         height="12"
         stroke-width="1.9215"
         id="rect47" />
      <rect
         x="115"
         y="17"
         width="2"
         height="2"
         stroke-width="2"
         id="rect49" />
    </g>
    <rect
       x="100"
       y="-5"
       width="32"
       height="32"
       fill="none"
       stroke-width="1.6"
       id="rect53" />
  </g>
  <g
     id="notification-disabled"
     transform="translate(0,-40)"
     opacity="0.35"
     style="stroke-linecap:round;stroke-linejoin:round">
    <g
       fill="#dedede"
       id="g62">
      <path
         d="m 116,-3 a 14,14 0 0 0 -14,14 14,14 0 0 0 14,14 14,14 0 0 0 14,-14 14,14 0 0 0 -14,-14 z m 0,2 a 12,12 0 0 1 12,12 12,12 0 0 1 -12,12 12,12 0 0 1 -12,-12 12,12 0 0 1 12,-12 z"
         stroke-width="1.1417"
         id="path56" />
      <rect
         x="115"
         y="3"
         width="2"
         height="12"
         stroke-width="1.9215"
         id="rect58" />
      <rect
         x="115"
         y="17"
         width="2"
         height="2"
         stroke-width="2"
         id="rect60" />
    </g>
    <rect
       x="100"
       y="-5"
       width="32"
       height="32"
       fill="none"
       stroke-width="1.6"
       id="rect64" />
  </g>
  <g
     id="notification-empty"
     transform="translate(58,-40)"
     style="stroke-linecap:round;stroke-linejoin:round">
    <path
       d="m 116,-3 a 14,14 0 0 0 -14,14 14,14 0 0 0 14,14 14,14 0 0 0 14,-14 14,14 0 0 0 -14,-14 z m 0,2 a 12,12 0 0 1 12,12 12,12 0 0 1 -12,12 12,12 0 0 1 -12,-12 12,12 0 0 1 12,-12 z"
       fill="#dedede"
       stroke-width="1.1417"
       id="path67" />
    <rect
       x="100"
       y="-5"
       width="32"
       height="32"
       fill="none"
       stroke-width="1.6"
       id="rect69" />
  </g>
  <g
     id="notification-progress-active"
     transform="translate(58,1)"
     style="stroke-linecap:round;stroke-linejoin:round">
    <path
       d="m 116,-3 c -7.732,0 -14,6.268 -14,14 0,7.732 6.268,14 14,14 7.732,0 14,-6.268 14,-14 0,-7.732 -6.268,-14 -14,-14 z"
       fill="#5294e2"
       stroke-width="1.1417"
       id="path72" />
    <rect
       x="100"
       y="-5"
       width="32"
       height="32"
       fill="none"
       stroke-width="1.6"
       id="rect74" />
  </g>
  <g
     id="notification-progress-inactive"
     transform="translate(58,43)"
     style="stroke-linecap:round;stroke-linejoin:round">
    <path
       d="m 116,1 c -5.5228,0 -10,4.4772 -10,10 0,5.5228 4.4772,10 10,10 5.5228,0 10,-4.4772 10,-10 0,-5.5228 -4.4772,-10 -10,-10 z"
       fill="#dedede"
       opacity="0.3"
       stroke-width="0.81551"
       id="path77" />
    <rect
       x="100"
       y="-5"
       width="32"
       height="32"
       fill="none"
       stroke-width="1.6"
       id="rect79" />
  </g>
  <g
     id="notification-active"
     transform="translate(0,45)"
     style="stroke-linecap:round;stroke-linejoin:round">
    <path
       transform="translate(0,-45)"
       d="m 116,42 c -7.732,0 -14,6.268 -14,14 0,7.732 6.268,14 14,14 7.732,0 14,-6.268 14,-14 0,-7.732 -6.268,-14 -14,-14 z m -1,6 h 2 v 12 h -2 z m 0,14 h 2 v 2 h -2 z"
       fill="#5294e2"
       stroke-width="1.1417"
       id="path82" />
    <rect
       x="100"
       y="-5"
       width="32"
       height="32"
       fill="none"
       stroke-width="1.6"
       id="rect84" />
  </g>
  <g
     id="16-16-notification-active"
     transform="translate(29,2)">
    <path
       class="ColorScheme-Highlight"
       d="m-70 43c-4.4183 0-8 3.5817-8 8s3.5817 8 8 8 8-3.5817 8-8-3.5817-8-8-8z"
       color="#5294e2"
       fill="currentColor"
       id="path89" />
    <path
       class="ColorScheme-Text"
       d="m-71 47v6h2v-6zm1 7c-0.45315 0-1 0.51843-1 0.98047s0.54685 1.0195 1 1.0195 1-0.55749 1-1.0195c0-0.46204-0.54685-0.98047-1-0.98047z"
       color="#dedede"
       fill="#fff"
       fill-opacity=".94118"
       id="path91" />
  </g>
  <path
     id="16-16-notification-inactive"
     class="ColorScheme-Text"
     d="m-40 3a8 8 0 0 0-8 8 8 8 0 0 0 8 8 8 8 0 0 0 8-8 8 8 0 0 0-8-8zm0 2a6 6 0 0 1 6 6 6 6 0 0 1-6 6 6 6 0 0 1-6-6 6 6 0 0 1 6-6zm-1 1v6h2v-6zm1 7c-0.45315 0-1 0.51843-1 0.98047s0.54685 1.0195 1 1.0195 1-0.55749 1-1.0195c0-0.46204-0.54685-0.98047-1-0.98047z"
     color="#dedede"
     fill="currentColor" />
  <path
     id="16-16-notification-disabled"
     class="ColorScheme-Text"
     d="m-40-37a8 8 0 0 0-8 8 8 8 0 0 0 8 8 8 8 0 0 0 8-8 8 8 0 0 0-8-8zm0 2a6 6 0 0 1 6 6 6 6 0 0 1-6 6 6 6 0 0 1-6-6 6 6 0 0 1 6-6zm-1 1v6h2v-6zm1 7c-0.45315 0-1 0.51843-1 0.98047s0.54685 1.0195 1 1.0195 1-0.55749 1-1.0195c0-0.46204-0.54685-0.98047-1-0.98047z"
     color="#dedede"
     fill="currentColor"
     opacity=".3" />
</svg>
