<?xml version="1.0" encoding="UTF-8" standalone="no"?>
<svg
   xmlns:dc="http://purl.org/dc/elements/1.1/"
   xmlns:cc="http://creativecommons.org/ns#"
   xmlns:rdf="http://www.w3.org/1999/02/22-rdf-syntax-ns#"
   xmlns:svg="http://www.w3.org/2000/svg"
   xmlns="http://www.w3.org/2000/svg"
   xmlns:sodipodi="http://sodipodi.sourceforge.net/DTD/sodipodi-0.dtd"
   xmlns:inkscape="http://www.inkscape.org/namespaces/inkscape"
   id="svg7384"
   width="32"
   height="32"
   version="1.1"
   style="enable-background:new"
   sodipodi:docname="office.svg"
   inkscape:version="0.92.4 5da689c313, 2019-01-14">
  <metadata
     id="metadata11">
    <rdf:RDF>
      <cc:Work
         rdf:about="">
        <dc:format>image/svg+xml</dc:format>
        <dc:type
           rdf:resource="http://purl.org/dc/dcmitype/StillImage" />
        <dc:title></dc:title>
      </cc:Work>
    </rdf:RDF>
  </metadata>
  <sodipodi:namedview
     pagecolor="#3a3a3a"
     bordercolor="#666666"
     borderopacity="1"
     objecttolerance="10"
     gridtolerance="10"
     guidetolerance="10"
     inkscape:pageopacity="0"
     inkscape:pageshadow="2"
     inkscape:window-width="1366"
     inkscape:window-height="692"
     id="namedview9"
     showgrid="true"
     inkscape:zoom="7.2453612"
     inkscape:cx="11.438781"
     inkscape:cy="14.037732"
     inkscape:window-x="0"
     inkscape:window-y="0"
     inkscape:window-maximized="1"
     inkscape:current-layer="svg7384"
     inkscape:snap-bbox="true"
     inkscape:bbox-nodes="true">
    <inkscape:grid
       type="xygrid"
       id="grid815" />
  </sodipodi:namedview>
  <defs
     id="defs8">
    <style
       id="current-color-scheme"
       type="text/css">
   .ColorScheme-Text { color:#dedede; } .ColorScheme-Highlight { color:#5294e2; } .ColorScheme-ButtonBackground { color:#dedede; }
  </style>
  </defs>
  <g
     id="office-chart-pie">
    <rect
       style="color:#bebebe;display:inline;overflow:visible;visibility:visible;opacity:0.51464431;fill:none;stroke:none;stroke-width:3;marker:none;enable-background:accumulate"
       id="rect35722"
       width="32"
       height="32"
       x="-3.3789063e-05"
       y="-3.8671874e-06" />
    <path
       id="path819"
       d="M 16 1 A 15 15 0 0 0 1 16 A 15 15 0 0 0 16 31 A 15 15 0 0 0 31 16 A 15 15 0 0 0 16 1 z M 10 7 L 13 7 C 14.090703 7 15 7.9092972 15 9 L 15 12 C 15 13.090703 14.090703 14 13 14 L 10 14 C 8.9092972 14 8 13.090703 8 12 L 8 9 C 8 7.9092972 8.9092972 7 10 7 z M 19 7 L 22 7 C 23.090703 7 24 7.9092972 24 9 L 24 14 C 24 15.090703 23.090703 16 22 16 L 19 16 C 17.909297 16 17 15.090703 17 14 L 17 9 C 17 7.9092972 17.909297 7 19 7 z M 10 8 C 9.446 8 9 8.446 9 9 L 9 12 C 9 12.554 9.446 13 10 13 L 13 13 C 13.554 13 14 12.554 14 12 L 14 9 C 14 8.446 13.554 8 13 8 L 10 8 z M 19 8 C 18.446 8 18 8.446 18 9 L 18 14 C 18 14.554 18.446 15 19 15 L 22 15 C 22.554 15 23 14.554 23 14 L 23 9 C 23 8.446 22.554 8 22 8 L 19 8 z M 10 16 L 13 16 C 14.090703 16 15 16.909297 15 18 L 15 23 C 15 24.090703 14.090703 25 13 25 L 10 25 C 8.9092972 25 8 24.090703 8 23 L 8 18 C 8 16.909297 8.9092972 16 10 16 z M 10 17 C 9.446 17 9 17.446 9 18 L 9 23 C 9 23.554 9.446 24 10 24 L 13 24 C 13.554 24 14 23.554 14 23 L 14 18 C 14 17.446 13.554 17 13 17 L 10 17 z M 19 18 L 22 18 C 23.090703 18 24 18.909297 24 20 L 24 23 C 24 24.090703 23.090703 25 22 25 L 19 25 C 17.909297 25 17 24.090703 17 23 L 17 20 C 17 18.909297 17.909297 18 19 18 z M 19 19 C 18.446 19 18 19.446 18 20 L 18 23 C 18 23.554 18.446 24 19 24 L 22 24 C 22.554 24 23 23.554 23 23 L 23 20 C 23 19.446 22.554 19 22 19 L 19 19 z "
       style="opacity:0.8;fill:#ffffff;fill-opacity:1;stroke:none;stroke-width:2.30769229;stroke-linecap:round;stroke-linejoin:round;stroke-miterlimit:4;stroke-dasharray:none;stroke-opacity:1;paint-order:stroke fill markers" />
  </g>
</svg>
