<?xml version="1.0" encoding="UTF-8" standalone="no"?>
<svg
   xmlns:dc="http://purl.org/dc/elements/1.1/"
   xmlns:cc="http://creativecommons.org/ns#"
   xmlns:rdf="http://www.w3.org/1999/02/22-rdf-syntax-ns#"
   xmlns:svg="http://www.w3.org/2000/svg"
   xmlns="http://www.w3.org/2000/svg"
   xmlns:sodipodi="http://sodipodi.sourceforge.net/DTD/sodipodi-0.dtd"
   xmlns:inkscape="http://www.inkscape.org/namespaces/inkscape"
   id="svg2"
   width="32"
   height="32"
   version="1.1"
   viewBox="0 0 32 32"
   sodipodi:docname="system.svg"
   inkscape:version="0.92.4 5da689c313, 2019-01-14">
  <metadata
     id="metadata59">
    <rdf:RDF>
      <cc:Work
         rdf:about="">
        <dc:format>image/svg+xml</dc:format>
        <dc:type
           rdf:resource="http://purl.org/dc/dcmitype/StillImage" />
        <dc:title />
      </cc:Work>
    </rdf:RDF>
  </metadata>
  <sodipodi:namedview
     pagecolor="#3a3a3a"
     bordercolor="#666666"
     borderopacity="1"
     objecttolerance="10"
     gridtolerance="10"
     guidetolerance="10"
     inkscape:pageopacity="0"
     inkscape:pageshadow="2"
     inkscape:window-width="1366"
     inkscape:window-height="692"
     id="namedview57"
     showgrid="true"
     inkscape:zoom="2.8284271"
     inkscape:cx="42.219141"
     inkscape:cy="-1.541467"
     inkscape:window-x="0"
     inkscape:window-y="0"
     inkscape:window-maximized="1"
     inkscape:current-layer="svg2"
     inkscape:snap-bbox="true"
     inkscape:bbox-nodes="true"
     inkscape:snap-nodes="true"
     inkscape:snap-smooth-nodes="true"
     inkscape:snap-global="true">
    <inkscape:grid
       type="xygrid"
       id="grid862" />
  </sodipodi:namedview>
  <defs
     id="defs87">
    <style
       id="current-color-scheme"
       type="text/css">
   .ColorScheme-Text { color:#dedede; } .ColorScheme-Highlight { color:#5294e2; } .ColorScheme-ButtonBackground { color:#dedede; }
  </style>
    <style
       id="current-color-scheme-6"
       type="text/css" />
    <linearGradient
       id="a">
      <stop
         id="stop945"
         stop-color="#fff"
         offset="0" />
      <stop
         id="stop947"
         stop-opacity=".235"
         stop-color="#fff"
         offset=".508" />
      <stop
         id="stop949"
         stop-opacity=".157"
         stop-color="#fff"
         offset=".835" />
      <stop
         id="stop951"
         stop-opacity=".392"
         stop-color="#fff"
         offset="1" />
    </linearGradient>
    <linearGradient
       id="c">
      <stop
         id="stop954"
         stop-color="#3d3d3d"
         offset="0" />
      <stop
         id="stop956"
         stop-opacity=".498"
         stop-color="#686868"
         offset=".5" />
      <stop
         id="stop958"
         stop-opacity="0"
         stop-color="#686868"
         offset="1" />
    </linearGradient>
    <linearGradient
       id="b">
      <stop
         id="stop961"
         stop-color="#919caf"
         offset="0" />
      <stop
         id="stop963"
         stop-color="#68758e"
         offset=".262" />
      <stop
         id="stop965"
         stop-color="#485a6c"
         offset=".705" />
      <stop
         id="stop967"
         stop-color="#444c5c"
         offset="1" />
    </linearGradient>
    <style
       id="style924"
       type="text/css" />
  </defs>
  <g
     id="22-22-system-suspend"
     transform="translate(-21.999999,-988.36218)">
    <rect
       id="rect4222"
       width="22"
       height="22"
       x="0"
       y="1030.36"
       style="opacity:0.001;fill:currentColor;fill-opacity:1;stroke:none;stroke-width:2;stroke-linecap:round;stroke-linejoin:round;stroke-miterlimit:4;stroke-dasharray:none;stroke-opacity:1" />
    <g
       id="g4380"
       transform="matrix(1.0009385,0,0,0.99883233,-322.31608,1012.4029)"
       style="display:inline;opacity:1;fill:currentColor;fill-opacity:1">
      <path
         id="path4398"
         class="ColorScheme-Text"
         d="M 8.0449219,2 C 5.4709885,1.9800034 3.1612109,3.6075004 2.3203125,6.0351562 2.0969331,6.6800174 1.9985687,7.3426625 2,8 1.9989991,8.6573375 2.0969831,9.3199826 2.3203125,9.9648438 3.1612109,12.3925 5.4709885,14.02 8.0449219,14 10.618845,13.980003 12.900212,12.315429 13.703125,9.875 13.906195,9.2577756 14.001361,8.6263907 14,8 14.001001,7.3736093 13.906205,6.7422244 13.703125,6.125 12.900212,3.684571 10.618845,2.0199966 8.0449219,2 Z M 8.0292969,3.9980469 C 9.7515617,4.0114312 11.263538,5.1131547 11.800781,6.7460938 11.936599,7.1589011 12.00029,7.582557 12,8 12.00029,8.417443 11.936639,8.8410989 11.800781,9.2539062 11.263538,10.886845 9.7515617,11.988573 8.0292969,12.001953 6.307032,12.015337 4.7736051,10.936893 4.2109375,9.3125 4.0615674,8.8812761 3.9955932,8.4378711 3.9960938,8 3.9955932,7.5621289 4.0615574,7.1187239 4.2109375,6.6875 4.7736051,5.0631071 6.307032,3.9846625 8.0292969,3.9980469 Z M 5.8554688,7 C 5.3807835,7 5,7.446 5,8 5,8.554 5.3807835,9 5.8554688,9 L 10.142578,9 C 10.61726,9 11,8.554 11,8 11,7.446 10.61726,7 10.142578,7 L 5.8554688,7 Z"
         transform="matrix(0.99906238,0,0,1.001169,325.01106,20.983802)"
         style="fill:#eaeaea;fill-opacity:1" />
    </g>
  </g>
  <g
     id="22-22-system-switch-user"
     transform="translate(1e-6,-988.36218)">
    <rect
       id="rect4220"
       width="22"
       height="22"
       x="0"
       y="1030.36"
       style="opacity:0.001;fill:currentColor;fill-opacity:1;stroke:none;stroke-width:2;stroke-linecap:round;stroke-linejoin:round;stroke-miterlimit:4;stroke-dasharray:none;stroke-opacity:1" />
    <path
       id="path4481"
       class="ColorScheme-Text"
       d="m 10.9943,1035.362 c -1.8700303,0 -3.3939153,1.5345 -3.4492153,3.4512 -0.0459,0.012 -0.0915,0.033 -0.13476,0.055 -0.43005,0.227 -0.54034,0.9343 -0.2461,1.5899 0.23672,0.5274 0.65753,0.8538 1.03906,0.8437 0.28723,1.7528 1.430425,3.0606 2.7910153,3.0606 l 0.0117,0 c 1.36059,0 2.5038,-1.3078 2.79102,-3.0606 0.38154,0.01 0.80234,-0.3163 1.03906,-0.8437 0.29424,-0.6556 0.18394,-1.3629 -0.24609,-1.5899 -0.0433,-0.023 -0.0888,-0.044 -0.13477,-0.055 -0.0553,-1.9167 -1.57919,-3.4512 -3.44922,-3.4512 l -0.0117,0 z m 2.40039,8 c -0.28889,0.7005 -1.27408,1.2246 -2.44922,1.2246 -1.1698503,0 -2.1455953,-0.5173 -2.4394453,-1.2129 -2.46908,0.2581 -4.26818,0.8896 -4.48438,1.6367 -0.003,0.01 0.002,0.016 0,0.024 -0.007,0.026 -0.007,0.049 -0.01,0.076 -10e-4,0.012 -0.0117,0.021 -0.0117,0.035 -9e-5,0 0,0.011 0,0.012 l 0,1.8477 c 0,0.1976 0.15571,0.3574 0.34961,0.3574 l 13.3007853,0 c 0.1939,0 0.3496,-0.1598 0.3496,-0.3574 l 0,-1.8477 c 0,-0.01 3.5e-4,-0.015 0,-0.023 -0.002,-0.043 -0.0208,-0.081 -0.0332,-0.123 -0.22075,-0.7563 -2.05842,-1.3964 -4.57226,-1.6484 z"
       style="fill:#eaeaea;fill-opacity:1" />
  </g>
  <g
     id="22-22-system-shutdown"
     transform="translate(-43.999999,-988.36218)">
    <rect
       id="rect4229"
       width="22"
       height="22"
       x="0"
       y="1030.36"
       style="opacity:0.001;fill:currentColor;fill-opacity:1;stroke:none;stroke-width:2;stroke-linecap:round;stroke-linejoin:round;stroke-miterlimit:4;stroke-dasharray:none;stroke-opacity:1" />
    <path
       id="rect4324"
       class="ColorScheme-Text"
       d="m 11.000336,1034.362 c -0.553987,0 -0.99995,0.4462 -0.99995,1 l 0,5.0019 c 0,0.5538 0.445963,0.9981 0.99995,0.9981 0.553988,0 0.99995,-0.4443 0.99995,-0.9981 l 0,-5.0019 c 0,-0.5538 -0.445962,-1 -0.99995,-1 z m 2.939305,1.9902 a 1.000176,0.99982748 0 0 0 -0.542942,1.8086 c 1.377976,1.0304 1.941017,2.8148 1.404226,4.4492 -0.536779,1.6344 -2.050513,2.7386 -3.771293,2.752 -1.7207811,0.013 -3.2501263,-1.0675 -3.8123083,-2.6934 -0.562183,-1.6258 -0.02587,-3.419 1.335869,-4.4707 a 1.000176,0.99982748 0 1 0 -1.222594,-1.582 c -2.035135,1.5718 -2.842036,4.2772 -2.001852,6.707 0.840173,2.4298 3.144793,4.0591 5.7165093,4.0391 2.571705,-0.02 4.853744,-1.6863 5.655965,-4.1289 0.80223,-2.4426 -0.04794,-5.1339 -2.107316,-6.6739 a 1.000176,0.99982748 0 0 0 -0.654264,-0.207 z"
       style="fill:#eaeaea;fill-opacity:1" />
  </g>
  <g
     id="22-22-system-log-out"
     transform="matrix(0,-1,1,0,-1096.3623,64)">
    <rect
       id="rect4235"
       width="22"
       height="22"
       x="0"
       y="1030.36"
       style="opacity:0.001;fill:currentColor;fill-opacity:1;stroke:none;stroke-width:2;stroke-linecap:round;stroke-linejoin:round;stroke-miterlimit:4;stroke-dasharray:none;stroke-opacity:1" />
    <g
       id="layer12"
       transform="matrix(1.0009385,0,0,0.99883233,-322.31609,1012.4029)"
       style="display:inline;opacity:1;fill:currentColor;fill-opacity:1">
      <path
         id="path6796"
         class="ColorScheme-Text"
         d="M 8.0449219,2 C 5.4709885,1.98 3.161211,3.6075002 2.3203125,6.0351562 2.0969411,6.6800174 1.998566,7.342662 2,8 1.998566,8.657338 2.0969411,9.3199826 2.3203125,9.9648438 3.161211,12.3925 5.4709885,14.02 8.0449219,14 10.618845,13.980003 12.900212,12.315429 13.703125,9.875 13.906197,9.2577753 14.001356,8.626391 14,8 14.001356,7.373609 13.906197,6.7422247 13.703125,6.125 12.900212,3.6845712 10.618845,2.019997 8.0449219,2 Z M 8.0292969,3.9980469 C 9.7515617,4.0114279 11.263537,5.1131547 11.800781,6.7460938 11.9366,7.1589017 12.00029,7.5825571 12,8 12.00029,8.4174429 11.936599,8.8410983 11.800781,9.2539062 11.263537,10.886845 9.7515617,11.988572 8.0292969,12.001953 6.307032,12.015337 4.773605,10.936893 4.2109375,9.3125 4.0615674,8.881276 3.995597,8.4378713 3.9960938,8 3.995597,7.5621287 4.0615674,7.118724 4.2109375,6.6875 4.773605,5.0631072 6.307032,3.9846629 8.0292969,3.9980469 Z M 6.4746094,6 A 0.4736353,0.52746185 0 0 0 6.0625,6.7890625 L 7.5898438,9.734375 A 0.4736353,0.52746185 0 0 0 7.9746094,10 0.4736353,0.52746185 0 0 0 8.0234375,10 0.4736353,0.52746185 0 0 0 8.4101562,9.734375 L 9.9375,6.7890625 A 0.4736353,0.52746185 0 0 0 9.5273438,6 L 6.4746094,6 Z"
         transform="matrix(0.99906238,0,0,1.001169,325.01107,20.983802)"
         style="fill:#eaeaea;fill-opacity:1" />
    </g>
  </g>
  <g
     id="22-22-system-reboot"
     transform="matrix(-1,0,0,1,-65.999999,-988.36218)">
    <rect
       id="rect4242"
       width="22"
       height="22"
       x="0"
       y="1030.36"
       style="opacity:0.001;fill:currentColor;fill-opacity:1;stroke:none;stroke-width:2;stroke-linecap:round;stroke-linejoin:round;stroke-miterlimit:4;stroke-dasharray:none;stroke-opacity:1" />
    <path
       id="path4360"
       class="ColorScheme-Text"
       d="m 11.475393,1035.3621 a 0.4736353,0.52746183 0 0 0 -0.412109,0.7891 l 1.527343,2.9453 a 0.4736353,0.52746183 0 0 0 0.384766,0.2656 0.4736353,0.52746183 0 0 0 0.04883,0 0.4736353,0.52746183 0 0 0 0.386718,-0.2656 l 0.326172,-0.6289 c 1.12174,1.0534 1.553588,2.6586 1.064453,4.1465 -0.536781,1.6327 -2.050703,2.7366 -3.771484,2.75 -1.7207807,0.013 -3.2503167,-1.0672 -3.8124997,-2.6915 -0.562183,-1.6242 -0.02584,-3.4141 1.335938,-4.4648 a 1.0005526,0.99921387 0 1 0 -1.222657,-1.582 c -2.035134,1.5702 -2.842137,4.2737 -2.001953,6.7011 0.840174,2.4275 3.145082,4.0552 5.7167967,4.0352 2.571705,-0.02 4.854029,-1.6848 5.65625,-4.125 0.789982,-2.4029 -0.02804,-5.0426 -2.019531,-6.5918 l 0.255859,-0.4941 a 0.4736353,0.52746183 0 0 0 -0.410156,-0.7891 l -3.052734,0 z"
       style="fill:#eaeaea;fill-opacity:1" />
  </g>
  <g
     id="22-22-system-suspend-hibernate"
     transform="translate(-110,-988.36218)">
    <rect
       id="rect4248"
       width="22"
       height="22"
       x="0"
       y="1030.36"
       style="opacity:0.001;fill:currentColor;fill-opacity:1;stroke:none;stroke-width:2;stroke-linecap:round;stroke-linejoin:round;stroke-miterlimit:4;stroke-dasharray:none;stroke-opacity:1" />
    <g
       id="g4447"
       transform="matrix(1.0009385,0,0,0.99883233,-322.31607,1012.4029)"
       style="display:inline;opacity:1;fill:currentColor;fill-opacity:1">
      <path
         id="path4455"
         class="ColorScheme-Text"
         d="M 80.044922,2 C 77.470989,1.9800034 75.161212,3.6075014 74.320312,6.0351562 74.096933,6.6800174 73.998569,7.3426625 74,8 73.999,8.6573375 74.09698,9.3199826 74.320312,9.9648438 75.161212,12.3925 77.470989,14.02 80.044922,14 82.618845,13.98 84.900212,12.315429 85.703125,9.875 85.906195,9.2577756 86.001361,8.6263907 86,8 86.001001,7.3736093 85.906205,6.7422244 85.703125,6.125 84.900212,3.684571 82.618845,2.0199966 80.044922,2 Z m -0.01563,1.9980469 c 1.722265,0.013384 3.234241,1.1151078 3.771484,2.7480469 C 83.936599,7.1589011 84.00029,7.582557 84,8 84.00029,8.417443 83.936639,8.8410989 83.800781,9.2539062 83.263538,10.886845 81.751562,11.988574 80.029297,12.001953 78.307032,12.015337 76.773605,10.936893 76.210938,9.3125 76.061566,8.8812761 75.995593,8.4378711 75.996094,8 75.995593,7.5621289 76.061556,7.1187239 76.210938,6.6875 76.773605,5.0631071 78.307032,3.9846625 80.029297,3.9980469 Z M 80,6 a 2,2 0 0 0 -2,2 2,2 0 0 0 2,2 2,2 0 0 0 2,-2 2,2 0 0 0 -2,-2 z"
         transform="matrix(0.99906238,0,0,1.001169,253.07856,20.983802)"
         style="fill:#eaeaea;fill-opacity:1" />
    </g>
  </g>
  <g
     id="22-22-system-lock-screen"
     transform="translate(22.000001,-988.36218)">
    <rect
       id="rect4255"
       width="22"
       height="22"
       x="0"
       y="1030.36"
       style="opacity:0.001;fill:currentColor;fill-opacity:1;stroke:none;stroke-width:2;stroke-linecap:round;stroke-linejoin:round;stroke-miterlimit:4;stroke-dasharray:none;stroke-opacity:1" />
    <path
       id="path5975"
       class="ColorScheme-Text"
       d="m 11,1034.3622 c -2.216,0 -4,1.8216 -4,4.0625 l 0,1.9375 -1,0 c -0.554,0 -1,0.446 -1,1 l 0,6 c 0,0.554 0.446,1 1,1 l 10,0 c 0.554,0 1,-0.446 1,-1 l 0,-6 c 0,-0.554 -0.446,-1 -1,-1 l -1,0 0,-1.9375 c 0,-2.24 -1.784,-4.0625 -4,-4.0625 z m 0,2 c 1.108,0 2,0.892 2,2 l 0,2 -4,0 0,-2 c 0,-1.108 0.892,-2 2,-2 z"
       style="fill:#eaeaea;fill-opacity:1" />
  </g>
  <g
     id="system-suspend">
    <rect
       ry="0"
       rx="0"
       y="-1.8859282e-07"
       x="-80"
       height="32"
       width="32"
       id="rect1127"
       style="opacity:0;fill:#000000;fill-opacity:1;fill-rule:evenodd;stroke:none;stroke-width:2;stroke-linecap:round;stroke-linejoin:round;stroke-miterlimit:4;stroke-dasharray:none;stroke-opacity:1;paint-order:fill markers stroke" />
    <path
       id="path925"
       d="M -64 1 A 15 15 0 0 0 -79 16 A 15 15 0 0 0 -64 31 A 15 15 0 0 0 -49 16 A 15 15 0 0 0 -64 1 z M -64 7 A 9 9 0 0 1 -55 16 A 9 9 0 0 1 -64 25 A 9 9 0 0 1 -73 16 A 9 9 0 0 1 -64 7 z M -64 8 A 8 8 0 0 0 -72 16 A 8 8 0 0 0 -71.927734 17 L -56.070312 17 A 8 8 0 0 0 -56 16 A 8 8 0 0 0 -64 8 z M -71.740234 18 A 8 8 0 0 0 -64 24 A 8 8 0 0 0 -56.265625 18 L -71.740234 18 z "
       style="opacity:0.8;fill:#ffffff;fill-opacity:1;stroke:none;stroke-width:2.60869575;stroke-linecap:round;stroke-linejoin:round;stroke-miterlimit:4;stroke-dasharray:none;stroke-opacity:1;paint-order:stroke fill markers" />
  </g>
  <g
     id="system-log-out">
    <circle
       r="16"
       cy="16"
       cx="96"
       id="path913"
       style="opacity:0;fill:#ffffff;fill-opacity:1;stroke:none;stroke-width:2.37037039;stroke-linecap:round;stroke-linejoin:round;stroke-miterlimit:4;stroke-dasharray:none;stroke-opacity:1;paint-order:stroke fill markers" />
    <path
       id="path891"
       d="M 96 1 A 15 15 0 0 0 81 16 A 15 15 0 0 0 96 31 A 15 15 0 0 0 111 16 A 15 15 0 0 0 96 1 z M 90 7 L 100 7 C 101.0907 7 102 7.9092972 102 9 L 102 11 A 0.5 0.5 0 0 1 101.5 11.5 A 0.5 0.5 0 0 1 101 11 L 101 9 C 101 8.446 100.554 8 100 8 L 90 8 C 89.446 8 89 8.446 89 9 L 89 23 C 89 23.554 89.446 24 90 24 L 100 24 C 100.554 24 101 23.554 101 23 L 101 20 A 0.5 0.5 0 0 1 101.5 19.5 A 0.5 0.5 0 0 1 102 20 L 102 23 C 102 24.090703 101.0907 25 100 25 L 90 25 C 88.909297 25 88 24.090703 88 23 L 88 9 C 88 7.9092972 88.909297 7 90 7 z M 103.37891 12.876953 C 103.50672 12.876953 103.63449 12.927453 103.73242 13.025391 L 105.85352 15.146484 C 105.90052 15.193494 105.93762 15.249722 105.96289 15.3125 C 106.01189 15.432841 106.01189 15.567159 105.96289 15.6875 C 105.93759 15.75028 105.90049 15.806503 105.85352 15.853516 L 103.73242 17.974609 C 103.53655 18.170478 103.22126 18.170478 103.02539 17.974609 C 102.82952 17.778741 102.82952 17.463447 103.02539 17.267578 L 104.29297 16 L 95.5 16 C 95.223 16 95 15.777 95 15.5 C 95 15.223 95.223 15 95.5 15 L 104.29297 15 L 103.02539 13.732422 C 102.82952 13.536553 102.82952 13.221259 103.02539 13.025391 C 103.12329 12.927451 103.2511 12.876953 103.37891 12.876953 z "
       style="color:#000000;overflow:visible;opacity:0.8;fill:#ffffff;stroke-width:1.14285696;marker:none" />
  </g>
  <g
     id="system-reboot">
    <rect
       style="opacity:0;fill:#000000;fill-opacity:1;fill-rule:evenodd;stroke:none;stroke-width:2;stroke-linecap:round;stroke-linejoin:round;stroke-miterlimit:4;stroke-dasharray:none;stroke-opacity:1;paint-order:fill markers stroke"
       id="rect1129"
       width="32"
       height="32"
       x="-40"
       y="0"
       rx="0"
       ry="0" />
    <path
       id="circle931"
       d="M -24 1 A 15 15 0 0 0 -39 16 A 15 15 0 0 0 -24 31 A 15 15 0 0 0 -9 16 A 15 15 0 0 0 -24 1 z M -20.265625 5.0625 A 0.5 0.5 0 0 1 -19.794922 5.3945312 L -19.791016 5.3945312 L -18.753906 9.2597656 L -19.720703 9.5175781 L -22.558594 10.279297 A 0.5 0.5 0 0 1 -22.71875 10.304688 A 0.5 0.5 0 0 1 -23.21875 9.8046875 A 0.5 0.5 0 0 1 -22.876953 9.3300781 L -22.876953 9.328125 L -20.679688 8.7402344 A 8 8 0 0 0 -24 8 A 8 8 0 0 0 -32 16 A 8 8 0 0 0 -24 24 A 8 8 0 0 0 -16 16 A 8 8 0 0 0 -16.488281 13.267578 A 0.5 0.5 0 0 1 -16.533203 13.058594 A 0.5 0.5 0 0 1 -16.033203 12.558594 A 0.5 0.5 0 0 1 -15.546875 12.947266 A 9 9 0 0 1 -15 16 A 9 9 0 0 1 -24 25 A 9 9 0 0 1 -33 16 A 9 9 0 0 1 -24 7 A 9 9 0 0 1 -20.162109 7.8671875 L -20.736328 5.7246094 A 0.5 0.5 0 0 1 -20.755859 5.6542969 A 0.5 0.5 0 0 1 -20.765625 5.5625 A 0.5 0.5 0 0 1 -20.265625 5.0625 z "
       style="opacity:0.8;fill:#ffffff;fill-opacity:1;stroke:none;stroke-width:2.60869575;stroke-linecap:round;stroke-linejoin:round;stroke-miterlimit:4;stroke-dasharray:none;stroke-opacity:1;paint-order:stroke fill markers" />
  </g>
  <g
     id="system-switch-user">
    <rect
       ry="0"
       rx="0"
       y="-1"
       x="163"
       height="32"
       width="32"
       id="rect956"
       style="opacity:0;fill:#000000;fill-opacity:1;fill-rule:evenodd;stroke:none;stroke-width:2;stroke-linecap:round;stroke-linejoin:round;stroke-miterlimit:4;stroke-dasharray:none;stroke-opacity:1;paint-order:fill markers stroke" />
    <path
       id="circle958"
       d="M 179 0 A 15 15 0 0 0 164 15 A 15 15 0 0 0 179 30 A 15 15 0 0 0 194 15 A 15 15 0 0 0 179 0 z M 182.55078 7.0488281 C 182.67906 7.0488281 182.80636 7.0973785 182.9043 7.1953125 L 187.85352 12.146484 C 187.90049 12.193497 187.93759 12.24972 187.96289 12.3125 C 187.98739 12.37267 188 12.43609 188 12.5 C 188 12.566453 187.98619 12.6296 187.96289 12.6875 C 187.93762 12.750278 187.90052 12.806506 187.85352 12.853516 C 187.8065 12.900531 187.7503 12.937591 187.6875 12.962891 C 187.62733 12.987371 187.5639 13 187.5 13 L 170.5 13 C 170.223 13 170 12.777 170 12.5 C 170 12.223 170.223 12 170.5 12 L 186.29297 12 L 182.19531 7.9042969 C 181.99944 7.7084279 181.99944 7.3911815 182.19531 7.1953125 C 182.29325 7.0973785 182.4225 7.0488281 182.55078 7.0488281 z M 170.5 17 L 187.5 17 C 187.777 17 188 17.223 188 17.5 C 188 17.777 187.777 18 187.5 18 L 171.70703 18 L 175.80469 22.095703 C 176.00056 22.291572 176.00056 22.608818 175.80469 22.804688 C 175.60882 23.000554 175.29157 23.000556 175.0957 22.804688 L 170.14648 17.853516 C 170.09951 17.806503 170.06241 17.75028 170.03711 17.6875 C 170.01261 17.62733 170 17.5639 170 17.5 C 170 17.433547 170.01381 17.3704 170.03711 17.3125 C 170.06238 17.249722 170.09948 17.193494 170.14648 17.146484 C 170.1935 17.099469 170.2497 17.062409 170.3125 17.037109 C 170.37267 17.012629 170.4361 17 170.5 17 z "
       style="opacity:0.8;fill:#ffffff;fill-opacity:1;stroke:none;stroke-width:2.60869575;stroke-linecap:round;stroke-linejoin:round;stroke-miterlimit:4;stroke-dasharray:none;stroke-opacity:1;paint-order:stroke fill markers" />
  </g>
  <g
     id="system-shutdown">
    <rect
       style="opacity:0;fill:#000000;fill-opacity:1;fill-rule:evenodd;stroke:none;stroke-width:2;stroke-linecap:round;stroke-linejoin:round;stroke-miterlimit:4;stroke-dasharray:none;stroke-opacity:1;paint-order:fill markers stroke"
       id="rect999"
       width="32"
       height="32"
       x="7.4505806e-07"
       y="-4.3213367e-07"
       rx="0"
       ry="0" />
    <path
       id="circle1001"
       d="M 16 1 A 15 15 0 0 0 1 16 A 15 15 0 0 0 16 31 A 15 15 0 0 0 31 16 A 15 15 0 0 0 16 1 z M 16 5 C 16.554 5 17 5.446 17 6 L 17 14 C 17 14.554 16.554 15 16 15 C 15.446 15 15 14.554 15 14 L 15 6 C 15 5.446 15.446 5 16 5 z M 10.763672 8.7832031 A 0.5 0.5 0 0 1 10.769531 8.7832031 A 0.5 0.5 0 0 1 10.804688 8.7832031 A 0.5 0.5 0 0 1 11.304688 9.2832031 A 0.5 0.5 0 0 1 11.054688 9.7148438 A 8 8 0 0 0 8 16 A 8 8 0 0 0 16 24 A 8 8 0 0 0 24 16 A 8 8 0 0 0 20.90625 9.6914062 L 20.908203 9.6894531 A 0.5 0.5 0 0 1 20.703125 9.2851562 A 0.5 0.5 0 0 1 21.203125 8.7851562 A 0.5 0.5 0 0 1 21.521484 8.9003906 L 21.523438 8.8984375 A 9 9 0 0 1 25 16 A 9 9 0 0 1 16 25 A 9 9 0 0 1 7 16 A 9 9 0 0 1 10.453125 8.9277344 A 0.5 0.5 0 0 1 10.763672 8.7832031 z "
       style="opacity:0.8;fill:#ffffff;fill-opacity:1;stroke:none;stroke-width:2.60869575;stroke-linecap:round;stroke-linejoin:round;stroke-miterlimit:4;stroke-dasharray:none;stroke-opacity:1;paint-order:stroke fill markers" />
  </g>
  <g
     id="system-suspend-hibernate">
    <rect
       style="opacity:0;fill:#000000;fill-opacity:1;fill-rule:evenodd;stroke:none;stroke-width:2;stroke-linecap:round;stroke-linejoin:round;stroke-miterlimit:4;stroke-dasharray:none;stroke-opacity:1;paint-order:fill markers stroke"
       id="rect1028"
       width="32"
       height="32"
       x="42"
       y="0"
       rx="0"
       ry="0" />
    <path
       id="circle1030"
       d="M 57.646484 1.0039062 A 15 15 0 0 0 50.5 3.0097656 A 15 15 0 0 0 45.009766 23.5 A 15 15 0 0 0 65.5 28.990234 A 15 15 0 0 0 70.990234 8.5 A 15 15 0 0 0 57.646484 1.0039062 z M 56.369141 7.1738281 A 1.0001 1.0001 0 0 1 57.117188 8.8398438 C 55.100266 11.094101 54.758873 14.378447 56.267578 17 C 57.78146 19.617388 60.793742 20.96397 63.753906 20.347656 A 1.0001 1.0001 0 0 1 64.705078 21.992188 C 64.071173 22.705749 63.328893 23.312967 62.503906 23.792969 A 1.0001 1.0001 0 0 1 62.5 23.794922 C 58.205624 26.274281 52.684437 24.794376 50.205078 20.5 C 47.725719 16.205624 49.205624 10.684437 53.5 8.2050781 A 1.0001 1.0001 0 0 0 53.501953 8.2050781 C 54.332231 7.7283404 55.232082 7.3861819 56.169922 7.1933594 A 1.0001 1.0001 0 0 1 56.369141 7.1738281 z M 56.373047 8.1738281 A 8 8 0 0 0 54 9.0722656 A 8 8 0 0 0 51.072266 20 A 8 8 0 0 0 62 22.927734 A 8 8 0 0 0 63.957031 21.326172 A 8 8 0 0 1 55.402344 17.5 A 8 8 0 0 1 56.373047 8.1738281 z M 60.5 9 L 65.5 9 C 65.566453 9 65.629596 9.0137738 65.6875 9.0371094 C 65.750278 9.0624091 65.806503 9.099472 65.853516 9.1464844 C 65.900528 9.1934968 65.937591 9.2497222 65.962891 9.3125 C 66.011858 9.4328407 66.011858 9.5671593 65.962891 9.6875 C 65.937591 9.7502778 65.900528 9.8065032 65.853516 9.8535156 L 61.707031 14 L 65.5 14 C 65.777 14 66 14.223 66 14.5 C 66 14.777 65.777 15 65.5 15 L 60.5 15 C 60.433844 15 60.368654 14.987176 60.306641 14.960938 L 60.304688 14.960938 C 60.244827 14.935701 60.191672 14.898703 60.146484 14.853516 C 60.09964 14.806671 60.0635 14.75256 60.039062 14.695312 L 60.039062 14.693359 C 59.986584 14.569333 59.986584 14.430667 60.039062 14.306641 C 60.064298 14.246781 60.101297 14.191672 60.146484 14.146484 L 64.292969 10 L 60.5 10 C 60.223 10 60 9.777 60 9.5 C 60 9.223 60.223 9 60.5 9 z "
       style="opacity:0.8;fill:#ffffff;fill-opacity:1;stroke:none;stroke-width:2.60869575;stroke-linecap:round;stroke-linejoin:round;stroke-miterlimit:4;stroke-dasharray:none;stroke-opacity:1;paint-order:stroke fill markers" />
  </g>
  <g
     id="system-lock-screen">
    <rect
       style="opacity:0;fill:#000000;fill-opacity:1;fill-rule:evenodd;stroke:none;stroke-width:2;stroke-linecap:round;stroke-linejoin:round;stroke-miterlimit:4;stroke-dasharray:none;stroke-opacity:1;paint-order:fill markers stroke"
       id="rect1067"
       width="32"
       height="32"
       x="122"
       y="-1"
       rx="0"
       ry="0" />
    <path
       id="circle1069"
       d="M 138 0 A 15 15 0 0 0 123 15 A 15 15 0 0 0 138 30 A 15 15 0 0 0 153 15 A 15 15 0 0 0 138 0 z M 138 5 C 140.77 5 143 7.23 143 10 L 143 13 L 144.77734 13 C 146.00845 13 147 13.991545 147 15.222656 L 147 20.777344 C 147 22.008455 146.00845 23 144.77734 23 L 131.22266 23 C 129.99155 23 129 22.008455 129 20.777344 L 129 15.222656 C 129 13.991545 129.99155 13 131.22266 13 L 133 13 L 133 10 C 133 7.23 135.23 5 138 5 z M 138 6 C 135.784 6 134 7.9830917 134 10.445312 L 134 13 L 142 13 L 142 10.445312 C 142 7.9830917 140.216 6 138 6 z M 131 14 C 130.446 14 130 14.446 130 15 L 130 21 C 130 21.554 130.446 22 131 22 L 145 22 C 145.554 22 146 21.554 146 21 L 146 15 C 146 14.446 145.554 14 145 14 L 143 14 L 142 14 L 134 14 L 133 14 L 131 14 z "
       style="opacity:0.8;fill:#ffffff;fill-opacity:1;stroke:none;stroke-width:2.60869575;stroke-linecap:round;stroke-linejoin:round;stroke-miterlimit:4;stroke-dasharray:none;stroke-opacity:1;paint-order:stroke fill markers" />
  </g>
  <g
     id="g1109"
     transform="translate(0,1.0000005)" />
</svg>
