<?xml version="1.0" encoding="UTF-8" standalone="no"?>
<svg
   id="svg"
   width="100%"
   height="100%"
   version="1.1"
   viewBox="0 0 22 22"
   sodipodi:docname="video.svg"
   inkscape:version="1.1.2 (0a00cf5339, 2022-02-04, custom)"
   xmlns:inkscape="http://www.inkscape.org/namespaces/inkscape"
   xmlns:sodipodi="http://sodipodi.sourceforge.net/DTD/sodipodi-0.dtd"
   xmlns="http://www.w3.org/2000/svg"
   xmlns:svg="http://www.w3.org/2000/svg">
  <sodipodi:namedview
     pagecolor="#ffffff"
     bordercolor="#666666"
     borderopacity="1"
     objecttolerance="10"
     gridtolerance="10"
     guidetolerance="10"
     inkscape:pageopacity="0"
     inkscape:pageshadow="2"
     inkscape:window-width="1920"
     inkscape:window-height="1003"
     id="namedview10"
     showgrid="true"
     inkscape:zoom="10.538707"
     inkscape:cx="29.27304"
     inkscape:cy="18.40833"
     inkscape:window-x="0"
     inkscape:window-y="0"
     inkscape:window-maximized="1"
     inkscape:current-layer="svg"
     inkscape:pagecheckerboard="0">
    <inkscape:grid
       type="xygrid"
       id="grid948" />
  </sodipodi:namedview>
  <defs
     id="defs81">
    <style
       id="current-color-scheme"
       type="text/css">
   .ColorScheme-Text { color:#dedede; } .ColorScheme-Highlight { color:#5294e2; } .ColorScheme-ButtonBackground { color:#dedede; }
  </style>
  </defs>
  <g
     id="22-22-video-display-brightness">
    <rect
       id="rect3074"
       width="22"
       height="22"
       x="0"
       y="0"
       style="opacity:0;fill:#00000f;fill-opacity:0.00392157;stroke:none" />
    <g
       transform="translate(-362.0004,294.00336)"
       id="g7791">
      <path
         id="path7793"
         transform="translate(241.0002,-523)"
         d="m 132,232.71875 c -0.73799,0.72824 -1.44477,1.55677 -2.19141,2.28125 H 127 v 2.80859 c -0.72459,0.74666 -1.55292,1.4534 -2.28125,2.19141 0.72849,0.73824 1.55656,1.47349 2.28125,2.22266 V 245 h 2.80664 c 0.74736,0.725 1.45473,1.55231 2.19336,2.28125 0.73886,-0.7291 1.47479,-1.55615 2.22461,-2.28125 H 137 v -2.77734 c 0.72474,-0.74912 1.5527,-1.48443 2.28125,-2.22266 -0.72829,-0.73805 -1.5567,-1.44467 -2.28125,-2.19141 V 235 h -2.77734 C 133.47353,234.27527 132.73821,233.44728 132,232.71875 Z M 132,236 c 2.20914,0 4,1.79086 4,4 0,2.20914 -1.79086,4 -4,4 -2.20914,0 -4,-1.79086 -4,-4 0,-2.20914 1.79086,-4 4,-4 z m 0,1 c -1.65685,0 -3,1.34315 -3,3 0,1.65685 1.34315,3 3,3 z"
         style="fill:#dedede;fill-opacity:1;stroke:none" />
      <rect
         y="-291.00336"
         x="365.0004"
         height="16"
         width="16"
         id="rect7795"
         style="color:#bebebe;display:inline;overflow:visible;visibility:visible;fill:none;stroke:none;stroke-width:1;marker:none" />
    </g>
  </g>
  <g
     id="video-display-brightness">
    <rect
       transform="scale(-1,1)"
       x="-72"
       width="32"
       height="32"
       color="#bebebe"
       fill="none"
       stroke-width="1.4546"
       id="rect57"
       y="-3" />
    <rect
       x="47"
       y="25"
       width="18"
       height="2"
       rx="1"
       ry="1"
       stroke-width="1.73213"
       id="rect59"
       style="fill:#dedede" />
    <path
       id="path854"
       d="M 56,4.71875 C 55.26201,5.44699 54.55523,6.27552 53.80859,7 H 51 V 9.80859 C 50.27541,10.55525 49.44708,11.26199 48.71875,12 49.44724,12.73824 50.27531,13.47349 51,14.22266 V 17 h 2.80664 C 54.554,17.725 55.26137,18.55231 56,19.28125 56.73886,18.55215 57.47479,17.7251 58.22461,17 H 61 V 14.22266 C 61.72474,13.47354 62.5527,12.73823 63.28125,12 62.55296,11.26195 61.72455,10.55533 61,9.80859 V 7 H 58.22266 C 57.47353,6.27527 56.73821,5.44728 56,4.71875 Z M 56,8 c 2.20914,0 4,1.79086 4,4 0,2.20914 -1.79086,4 -4,4 -2.20914,0 -4,-1.79086 -4,-4 0,-2.20914 1.79086,-4 4,-4 z m 0,1 c -1.65685,0 -3,1.34315 -3,3 0,1.65685 1.34315,3 3,3 z"
       style="fill:#dedede" />
    <path
       id="rect5742"
       d="m 45,1 c -2.216,0 -4,1.784 -4,4 v 14 c 0,2.216 1.784,4 4,4 h 22 c 2.216,0 4,-1.784 4,-4 V 5 C 71,2.784 69.216,1 67,1 Z m 0,2 h 22 c 1.108,0 2,0.892 2,2 v 14 c 0,1.108 -0.892,2 -2,2 H 45 c -1.108,0 -2,-0.892 -2,-2 V 5 c 0,-1.108 0.892,-2 2,-2 z"
       style="fill:#dedede;fill-opacity:1" />
  </g>
</svg>
