<?xml version="1.0" encoding="UTF-8" standalone="no"?>
<svg
   xmlns:dc="http://purl.org/dc/elements/1.1/"
   xmlns:cc="http://creativecommons.org/ns#"
   xmlns:rdf="http://www.w3.org/1999/02/22-rdf-syntax-ns#"
   xmlns:svg="http://www.w3.org/2000/svg"
   xmlns="http://www.w3.org/2000/svg"
   xmlns:sodipodi="http://sodipodi.sourceforge.net/DTD/sodipodi-0.dtd"
   xmlns:inkscape="http://www.inkscape.org/namespaces/inkscape"
   width="32"
   height="32"
   version="1.1"
   id="svg22"
   sodipodi:docname="view.svg"
   inkscape:version="0.92.4 5da689c313, 2019-01-14">
  <metadata
     id="metadata26">
    <rdf:RDF>
      <cc:Work
         rdf:about="">
        <dc:format>image/svg+xml</dc:format>
        <dc:type
           rdf:resource="http://purl.org/dc/dcmitype/StillImage" />
        <dc:title />
      </cc:Work>
    </rdf:RDF>
  </metadata>
  <sodipodi:namedview
     pagecolor="#3a3a3a"
     bordercolor="#666666"
     borderopacity="1"
     objecttolerance="10"
     gridtolerance="10"
     guidetolerance="10"
     inkscape:pageopacity="0"
     inkscape:pageshadow="2"
     inkscape:window-width="1366"
     inkscape:window-height="692"
     id="namedview24"
     showgrid="true"
     inkscape:zoom="4"
     inkscape:cx="52.931878"
     inkscape:cy="-12.522272"
     inkscape:window-x="0"
     inkscape:window-y="0"
     inkscape:window-maximized="1"
     inkscape:current-layer="svg22"
     inkscape:snap-bbox="true"
     inkscape:bbox-paths="true"
     inkscape:bbox-nodes="true"
     inkscape:snap-bbox-edge-midpoints="true"
     inkscape:snap-global="false">
    <inkscape:grid
       type="xygrid"
       id="grid851" />
  </sodipodi:namedview>
  <defs
     id="defs6">
    <style
       id="current-color-scheme"
       type="text/css">.ColorScheme-Text { color:#dedede; } .ColorScheme-Highlight { color:#5294e2; } .ColorScheme-ButtonBackground { color:#dedede; }</style>
    <filter
       id="a"
       x="-.036"
       y="-.036"
       width="1.072"
       height="1.072"
       color-interpolation-filters="sRGB">
      <feGaussianBlur
         stdDeviation="0.43466698"
         id="feGaussianBlur3" />
    </filter>
    <style
       id="style837"
       type="text/css" />
  </defs>
  <g
     id="view-refresh"
     transform="matrix(0 -1 -1 0 -218.84 494.56)"
     enable-background="new">
    <rect
       transform="scale(-1)"
       x="-481"
       y="258.97"
       width="16"
       height="16"
       color="#bebebe"
       fill="none"
       id="rect8" />
    <path
       transform="matrix(0 -1 -1 0 1079 -14.938)"
       d="m252.06 598.02-3.5625 2.9824 3.5606 3.0176v-2c2.2091 0 4 1.7909 4 4s-1.7909 4-4 4-4-1.7909-4-4c0-6e-3 -4e-3 -0.0113-4e-3 -0.0176h-1.9922c-1.1e-4 6e-3 -4e-3 0.0113-4e-3 0.0176 0 0.0333 4e-3 0.0665 8e-3 0.0996 0.0538 3.2672 2.7141 5.9004 5.9941 5.9004 3.3137 0 6-2.6863 6-6s-2.6863-6-6-6v-2z"
       fill="#eaeaea"
       id="path10" />
  </g>
  <g
     id="view-history">
    <rect
       width="32"
       height="32"
       rx="0"
       ry="0"
       style="opacity:0;stroke-width:2;paint-order:fill markers stroke"
       id="rect13"
       x="0"
       y="0" />
    <path
       id="circle17"
       d="M 16 1 C 7.7157288 1 1 7.7157288 1 16 C 1 24.284271 7.7157288 31 16 31 C 24.284271 31 31 24.284271 31 16 C 31 7.7157288 24.284271 1 16 1 z M 16 7 A 9 9 0 0 1 19.849609 7.875 L 19.847656 7.8789062 A 0.5 0.5 0 0 1 20.123047 8.3261719 A 0.5 0.5 0 0 1 19.623047 8.8261719 A 0.5 0.5 0 0 1 19.478516 8.8046875 A 8 8 0 0 1 19.476562 8.8046875 A 0.5 0.5 0 0 1 19.462891 8.7988281 A 0.5 0.5 0 0 1 19.375 8.7597656 A 8 8 0 0 0 16 8 A 8 8 0 0 0 8 16 A 8 8 0 0 0 16 24 A 8 8 0 0 0 24 16 A 8 8 0 0 0 23.109375 12.34375 A 0.5 0.5 0 0 1 23.046875 12.105469 A 0.5 0.5 0 0 1 23.546875 11.605469 A 0.5 0.5 0 0 1 24.017578 11.9375 A 9 9 0 0 1 25 16 A 9 9 0 0 1 16 25 A 9 9 0 0 1 7 16 A 9 9 0 0 1 16 7 z M 15.5 10 C 15.777 10 16 10.223 16 10.5 L 16 15.292969 L 19.388672 18.681641 C 19.58454 18.877509 19.58454 19.192803 19.388672 19.388672 C 19.192803 19.58454 18.877509 19.58454 18.681641 19.388672 L 15.146484 15.853516 C 15.099472 15.806503 15.062409 15.750278 15.037109 15.6875 C 15.012626 15.62733 15 15.563905 15 15.5 L 15 10.5 C 15 10.223 15.223 10 15.5 10 z "
       style="opacity:0.8;fill:#ffffff;stroke-width:1.14285719" />
  </g>
</svg>
