<?xml version="1.0" encoding="UTF-8" standalone="no"?>
<svg
   width="173"
   height="56"
   version="1.1"
   viewBox="0 0 173 56"
   id="svg118"
   sodipodi:docname="panel-background.svg"
   inkscape:version="1.2.2 (b0a8486541, 2022-12-01)"
   xmlns:inkscape="http://www.inkscape.org/namespaces/inkscape"
   xmlns:sodipodi="http://sodipodi.sourceforge.net/DTD/sodipodi-0.dtd"
   xmlns:xlink="http://www.w3.org/1999/xlink"
   xmlns="http://www.w3.org/2000/svg"
   xmlns:svg="http://www.w3.org/2000/svg">
  <sodipodi:namedview
     id="namedview120"
     pagecolor="#ffffff"
     bordercolor="#666666"
     borderopacity="1.0"
     inkscape:pageshadow="2"
     inkscape:pageopacity="0.0"
     inkscape:pagecheckerboard="0"
     showgrid="true"
     inkscape:zoom="2.8284271"
     inkscape:cx="95.459415"
     inkscape:cy="-8.3085047"
     inkscape:window-width="1920"
     inkscape:window-height="1019"
     inkscape:window-x="0"
     inkscape:window-y="0"
     inkscape:window-maximized="1"
     inkscape:current-layer="svg118"
     inkscape:showpageshadow="2"
     inkscape:deskcolor="#d1d1d1">
    <inkscape:grid
       type="xygrid"
       id="grid986" />
  </sodipodi:namedview>
  <defs
     id="defs16">
    <style
       id="current-color-scheme"
       type="text/css">.ColorScheme-Text {
        color:#31363b;
        stop-color:#31363b;
      }
      .ColorScheme-Background {
        color:#eff0f1;
        stop-color:#eff0f1;
      }
      .ColorScheme-Highlight {
        color:#3281ea;
        stop-color:#3281ea;
      }
      .ColorScheme-ViewText {
        color:#31363b;
        stop-color:#31363b;
      }
      .ColorScheme-ViewBackground {
        color:#fcfcfc;
        stop-color:#fcfcfc;
      }
      .ColorScheme-ViewHover {
        color:#93cee9;
        stop-color:#93cee9;
      }
      .ColorScheme-ViewFocus{
        color:#3281ea;
        stop-color:#3281ea;
      }
      .ColorScheme-ButtonText {
        color:#31363b;
        stop-color:#31363b;
      }
      .ColorScheme-ButtonBackground {
        color:#eff0f1;
        stop-color:#eff0f1;
      }
      .ColorScheme-ButtonHover {
        color:#93cee9;
        stop-color:#93cee9;
      }
      .ColorScheme-ButtonFocus{
        color:#3281ea;
        stop-color:#3281ea;
      }</style>
    <linearGradient
       id="linearGradient4270">
      <stop
         stop-opacity=".66663"
         offset="0"
         id="stop3" />
      <stop
         stop-opacity="0"
         offset="1"
         id="stop5" />
    </linearGradient>
    <radialGradient
       id="radialGradient994"
       cx="77"
       cy="12"
       r="6"
       gradientTransform="matrix(-4.8232192e-5,-3.9998789,4.0000482,-4.8234231e-5,8.0034248,325.99053)"
       gradientUnits="userSpaceOnUse"
       xlink:href="#linearGradient4270"
       fx="77"
       fy="12" />
    <linearGradient
       id="linearGradient4920"
       x1="-906.88361"
       x2="-906.88361"
       y1="13"
       y2="-51"
       gradientTransform="matrix(1.9999483,0,0,0.375,1833.7203,-44.875)"
       gradientUnits="userSpaceOnUse"
       xlink:href="#linearGradient4270" />
    <linearGradient
       inkscape:collect="always"
       xlink:href="#linearGradient4270"
       id="linearGradient819"
       gradientUnits="userSpaceOnUse"
       gradientTransform="matrix(1.9999483,0,0,0.375,1833.7203,-44.875)"
       x1="-906.88361"
       y1="13"
       x2="-906.88361"
       y2="-51" />
    <linearGradient
       inkscape:collect="always"
       xlink:href="#linearGradient4270"
       id="linearGradient827"
       gradientUnits="userSpaceOnUse"
       gradientTransform="matrix(1.9999483,0,0,0.375,1833.7203,-44.875)"
       x1="-906.88361"
       y1="13"
       x2="-906.88361"
       y2="-51" />
    <linearGradient
       inkscape:collect="always"
       xlink:href="#linearGradient4270"
       id="linearGradient835"
       gradientUnits="userSpaceOnUse"
       gradientTransform="matrix(1.9999483,0,0,0.375,1833.7203,-44.875)"
       x1="-906.88361"
       y1="13"
       x2="-906.88361"
       y2="-51" />
  </defs>
  <g
     id="shadow-topleft"
     transform="translate(-7.0000117,3.9999999)">
    <path
       id="path18"
       style="opacity:0.25;fill:url(#radialGradient994)"
       d="M 32,-5.9999959 V 18 H 44 C 44,11.35222 49.352221,5.9999973 56,5.9999973 V -5.9999959 Z" />
  </g>
  <rect
     id="hint-tile-center"
     y="-1.4648e-5"
     width="5"
     height="5"
     fill="#f60" />
  <g
     id="top"
     transform="matrix(0.375,0,0,2.0000378,41.874988,-1810.7546)">
    <rect
       class="ColorScheme-Background"
       transform="matrix(0,-1,-1,0,0,0)"
       x="-916.35999"
       y="-51"
       width="6"
       height="32"
       id="rect31"
       style="opacity:0.65;fill:#000000" />
  </g>
  <g
     id="topleft"
     transform="matrix(0.99996767,0,0,0.99996767,24.000808,-900.33018)">
    <path
       d="m 25,910.36 c -6.648,0 -12,5.352 -12,12 h 12 v -10 z"
       id="path34"
       style="opacity:0.65;fill:#000000" />
  </g>
  <g
     id="topright"
     transform="matrix(1.3333,0,0,1.3333,-2.9985117,-1203.7826)">
    <path
       d="m 48.000075,910.36 v 8.99992 H 57 C 57,914.37397 52.986033,910.36 48.000075,910.36 Z"
       id="path37"
       style="opacity:0.65;fill:#000000;stroke-width:0.749994" />
  </g>
  <g
     id="bottom"
     transform="matrix(0.375,0,0,1.9999955,41.874988,-1862.7157)">
    <rect
       class="ColorScheme-Background"
       transform="rotate(90)"
       x="948.35999"
       y="-51"
       width="6"
       height="32"
       id="rect40"
       style="opacity:0.65;fill:#000000" />
  </g>
  <g
     id="bottomleft"
     transform="matrix(1.3333,0,0,1.3333,19.667488,-1226.4486)">
    <path
       d="m 13,945.36008 c 0,4.98595 4.013967,8.99992 8.999925,8.99992 v -8.99992 h -7.499938 z"
       id="path43"
       style="opacity:0.65;fill:#000000;stroke-width:0.749994" />
  </g>
  <g
     id="bottomright"
     transform="matrix(1.3333,0,0,1.3333,-2.9985117,-1226.4486)">
    <path
       d="M 48.000075,945.36008 V 954.36 C 52.986033,954.36 57,950.34603 57,945.36008 h -7.499937 z"
       id="path46"
       style="opacity:0.65;fill:#000000;stroke-width:0.749994" />
  </g>
  <g
     id="left"
     transform="matrix(2.0000333,0,0,0.375,10.999355,-321.63499)">
    <rect
       class="ColorScheme-Background"
       transform="scale(-1,1)"
       x="-19"
       y="916.35999"
       width="6"
       height="32"
       id="rect49"
       style="opacity:0.65;fill:#000000" />
  </g>
  <g
     id="right"
     transform="matrix(2.0000336,0,0,0.375,-41.001726,-321.63499)">
    <rect
       class="ColorScheme-Background"
       x="51"
       y="916.35999"
       width="6"
       height="32"
       id="rect52"
       style="opacity:0.65;fill:#000000" />
  </g>
  <rect
     id="center"
     class="ColorScheme-Background"
     x="48.999989"
     y="22"
     width="12"
     height="12"
     style="opacity:0.65;fill:#000000" />
  <rect
     id="hint-top-margin"
     x="54.999989"
     y="10"
     width="4"
     height="2.9999001"
     fill="#ff00ff" />
  <rect
     id="hint-left-margin"
     transform="rotate(90)"
     x="28"
     y="-39.999989"
     width="4"
     height="3"
     fill="#ff00ff" />
  <g
     id="shadow-top"
     transform="translate(35.999988,62)">
    <rect
       x="13"
       y="-64"
       width="12"
       height="24"
       id="rect744"
       style="fill:none" />
    <rect
       x="13"
       y="-64"
       width="12"
       height="12"
       id="rect62"
       style="opacity:0.25;fill:url(#linearGradient4920)" />
  </g>
  <rect
     id="shadow-hint-top-margin"
     x="54.999989"
     y="-2"
     width="4"
     height="12"
     fill="#ff6600" />
  <rect
     id="shadow-hint-left-margin"
     transform="rotate(90)"
     x="28"
     y="-36.999989"
     width="4"
     height="12"
     fill="#ff6600" />
  <rect
     id="shadow-center"
     class="ColorScheme-Background"
     x="60"
     y="80"
     width="12"
     height="12"
     color="#eff0f1"
     opacity="0"
     stroke-width=".375" />
  <rect
     style="color:#eff0f1;opacity:0.9;fill:currentColor;fill-opacity:1;stroke:none;stop-color:#eff0f1"
     id="thick-center"
     width="32"
     height="32"
     x="20"
     y="-62.210289"
     class="ColorScheme-Background" />
  <rect
     transform="rotate(90)"
     style="fill:#800080;fill-opacity:1;stroke:none;stroke-width:1.1547"
     id="thick-hint-right-margin"
     width="4"
     height="8"
     x="-42.210293"
     y="-57" />
  <rect
     transform="rotate(90)"
     y="-21"
     x="-42.210293"
     height="8"
     width="4"
     id="thick-hint-left-margin"
     style="fill:#800080;fill-opacity:1;stroke:none;stroke-width:1.1547" />
  <rect
     y="-68.210289"
     x="39"
     height="8"
     width="4"
     id="thick-hint-top-margin"
     style="fill:#800080;fill-opacity:1;stroke:none;stroke-width:1.1547" />
  <rect
     style="fill:#800080;fill-opacity:1;stroke:none;stroke-width:1.1547"
     id="thick-hint-bottom-margin"
     width="4"
     height="8"
     x="40"
     y="-32.210289" />
  <rect
     y="10"
     x="49.999989"
     height="3"
     width="4"
     id="hint-top-inset"
     style="fill:#00ff00;fill-opacity:1;stroke:none;stroke-width:0.707106" />
  <rect
     style="fill:#ffcc00;fill-opacity:1;stroke:none;stroke-width:1.41422"
     id="shadow-hint-top-inset"
     width="3.9999998"
     height="12"
     x="49.999989"
     y="-1.999896" />
  <rect
     transform="rotate(90)"
     y="-39.999989"
     x="23"
     height="3"
     width="3.9999998"
     id="hint-left-inset"
     style="fill:#00ff00;fill-opacity:1;stroke:none;stroke-width:0.707106" />
  <rect
     style="fill:#ffcc00;fill-opacity:1;stroke:none;stroke-width:1.41421"
     id="shadow-hint-left-inset"
     width="4.0000229"
     height="12"
     x="23"
     y="-36.999989"
     transform="rotate(90)" />
  <g
     id="mask-top"
     transform="matrix(0.375,0,0,1,100.875,-900.35999)">
    <rect
       transform="matrix(0,-1,-1,0,0,0)"
       x="-922.35999"
       y="-51"
       width="12"
       height="32"
       id="rect92" />
  </g>
  <g
     id="mask-topleft"
     transform="translate(3,2)">
    <rect
       id="rect1070"
       width="12"
       height="12"
       x="93"
       y="8"
       style="fill:none" />
    <path
       d="M 105,9 C 98.906,9 94,13.906 94,20 h 11 z"
       id="path95"
       style="stroke-width:0.916667" />
  </g>
  <g
     id="mask-bottom"
     transform="matrix(0.375,0,0,1.2,100.875,-1099.232)">
    <rect
       transform="rotate(90)"
       x="944.35999"
       y="-51"
       width="10"
       height="32"
       id="rect101" />
  </g>
  <g
     id="mask-left"
     transform="matrix(1,0,0,0.60001,83,-531.42521)">
    <rect
       transform="scale(-1,1)"
       x="-25"
       y="922.35999"
       width="12"
       height="20"
       id="rect110" />
  </g>
  <g
     id="mask-right"
     transform="matrix(1.2,0,0,0.375,63.6,-321.63499)">
    <rect
       x="47"
       y="916.35999"
       width="10"
       height="32"
       id="rect113" />
  </g>
  <rect
     id="mask-center"
     x="108"
     y="22"
     width="12"
     height="12" />
  <use
     x="0"
     y="0"
     xlink:href="#shadow-topleft"
     id="shadow-topright"
     transform="rotate(90,54.999989,28.000001)" />
  <use
     x="0"
     y="0"
     xlink:href="#shadow-topleft"
     id="shadow-bottomright"
     transform="rotate(180,54.999988,27.999999)" />
  <use
     x="0"
     y="0"
     xlink:href="#shadow-topleft"
     id="shadow-bottomleft"
     transform="rotate(-90,54.999989,27.999999)" />
  <g
     id="shadow-right"
     transform="rotate(90,5.9999942,14.999994)">
    <rect
       x="13"
       y="-64"
       width="12"
       height="24"
       id="rect813"
       style="fill:none" />
    <rect
       x="13"
       y="-64"
       width="12"
       height="12"
       id="rect815"
       style="opacity:0.25;fill:url(#linearGradient819)" />
  </g>
  <g
     id="shadow-bottom"
     transform="rotate(180,36.999994,-3.0000001)">
    <rect
       x="13"
       y="-64"
       width="12"
       height="24"
       id="rect821"
       style="fill:none" />
    <rect
       x="13"
       y="-64"
       width="12"
       height="12"
       id="rect823"
       style="opacity:0.25;fill:url(#linearGradient827)" />
  </g>
  <g
     id="shadow-left"
     transform="rotate(-90,67.999994,-20.999994)">
    <rect
       x="13"
       y="-64"
       width="12"
       height="24"
       id="rect829"
       style="fill:none" />
    <rect
       x="13"
       y="-64"
       width="12"
       height="12"
       id="rect831"
       style="opacity:0.25;fill:url(#linearGradient835)" />
  </g>
  <rect
     id="hint-right-margin"
     transform="rotate(90)"
     x="28.999977"
     y="-72.999985"
     width="4"
     height="3"
     fill="#ff00ff" />
  <rect
     id="shadow-hint-right-margin"
     transform="rotate(90)"
     x="28.999977"
     y="-84.999985"
     width="4"
     height="12"
     fill="#ff6600" />
  <rect
     transform="rotate(90)"
     style="fill:#00ff00;fill-opacity:1;stroke:none;stroke-width:0.707106"
     id="hint-right-inset"
     width="4"
     height="3"
     x="23.999977"
     y="-72.999985" />
  <rect
     y="-84.999985"
     x="24"
     height="12"
     width="4"
     id="shadow-hint-right-inset"
     style="fill:#ffcc00;fill-opacity:1;stroke:none;stroke-width:1.41422"
     transform="rotate(90)" />
  <rect
     id="hint-bottom-margin"
     x="55.999989"
     y="42.999901"
     width="4"
     height="3"
     fill="#ff00ff" />
  <rect
     id="shadow-hint-bottom-margin"
     x="55.999989"
     y="45.999901"
     width="4"
     height="12"
     fill="#ff6600" />
  <rect
     style="fill:#00ff00;fill-opacity:1;stroke:none;stroke-width:0.70711"
     id="hint-bottom-inset"
     width="4"
     height="3"
     x="50.999989"
     y="42.999901" />
  <rect
     y="46"
     x="50.999989"
     height="11.999977"
     width="3.9999998"
     id="shadow-hint-bottom-inset"
     style="fill:#ffcc00;fill-opacity:1;stroke:none;stroke-width:1.41421" />
  <g
     id="mask-topright"
     transform="rotate(90,111.5,28.5)">
    <rect
       id="rect1076"
       width="12"
       height="12"
       x="93"
       y="8"
       style="fill:none" />
    <path
       d="M 105,9 C 98.906,9 94,13.906 94,20 h 11 z"
       id="path1078"
       style="stroke-width:0.916667" />
  </g>
  <g
     id="mask-bottomright"
     transform="rotate(180,112.5,27)">
    <rect
       id="rect1084"
       width="12"
       height="12"
       x="93"
       y="8"
       style="fill:none" />
    <path
       d="M 105,9 C 98.906,9 94,13.906 94,20 h 11 z"
       id="path1086"
       style="stroke-width:0.916667" />
  </g>
  <g
     id="mask-bottomleft"
     transform="rotate(-90,113.5,25.5)">
    <rect
       id="rect1092"
       width="12"
       height="12"
       x="93"
       y="8"
       style="fill:none" />
    <path
       d="M 105,9 C 98.906,9 94,13.906 94,20 h 11 z"
       id="path1094"
       style="stroke-width:0.916667" />
  </g>
</svg>
