<?xml version="1.0" encoding="UTF-8" standalone="no"?>
<svg
   xmlns:dc="http://purl.org/dc/elements/1.1/"
   xmlns:cc="http://creativecommons.org/ns#"
   xmlns:rdf="http://www.w3.org/1999/02/22-rdf-syntax-ns#"
   xmlns:svg="http://www.w3.org/2000/svg"
   xmlns="http://www.w3.org/2000/svg"
   xmlns:xlink="http://www.w3.org/1999/xlink"
   xmlns:sodipodi="http://sodipodi.sourceforge.net/DTD/sodipodi-0.dtd"
   xmlns:inkscape="http://www.inkscape.org/namespaces/inkscape"
   width="128"
   height="128"
   version="1"
   id="svg99"
   sodipodi:docname="actionbutton.svg"
   inkscape:version="1.0 (4035a4fb49, 2020-05-01)">
  <metadata
     id="metadata103">
    <rdf:RDF>
      <cc:Work
         rdf:about="">
        <dc:format>image/svg+xml</dc:format>
        <dc:type
           rdf:resource="http://purl.org/dc/dcmitype/StillImage" />
        <dc:title></dc:title>
      </cc:Work>
    </rdf:RDF>
  </metadata>
  <sodipodi:namedview
     pagecolor="#ffffff"
     bordercolor="#666666"
     borderopacity="1"
     objecttolerance="10"
     gridtolerance="10"
     guidetolerance="10"
     inkscape:pageopacity="0"
     inkscape:pageshadow="2"
     inkscape:window-width="1920"
     inkscape:window-height="1020"
     id="namedview101"
     showgrid="false"
     inkscape:zoom="2.6074562"
     inkscape:cx="-4.8752908"
     inkscape:cy="48.435643"
     inkscape:window-x="0"
     inkscape:window-y="30"
     inkscape:window-maximized="1"
     inkscape:current-layer="svg99"
     inkscape:document-rotation="0" />
  <defs
     id="defs17">
    <linearGradient
       id="linearGradient4209">
      <stop
         style="stop-color:#000000"
         offset="0"
         id="stop2" />
      <stop
         style="stop-color:#000000;stop-opacity:0"
         offset="1"
         id="stop4" />
    </linearGradient>
    <radialGradient
       id="radialGradient4201"
       cx="63.894"
       cy="61.058"
       r="9"
       fx="63.894"
       fy="61.058"
       gradientTransform="matrix(-6.1375001e-7,1.2222228,-1.2222222,-6.2559558e-7,142.62634,-21.09247)"
       gradientUnits="userSpaceOnUse"
       xlink:href="#linearGradient4209" />
    <radialGradient
       id="radialGradient4203"
       cx="-31.636"
       cy="8.519"
       r="8.182"
       fx="-31.636"
       fy="8.519"
       gradientTransform="matrix(0,1.44437,-0.99999988,0,-23.570787,54.693527)"
       gradientUnits="userSpaceOnUse"
       xlink:href="#linearGradient4209" />
    <radialGradient
       id="radialGradient4205"
       cx="27"
       cy="43.961"
       r="13"
       fx="27"
       fy="43.961"
       gradientTransform="matrix(6.1944048e-8,1.3846155,-1.1538462,5.1620032e-8,77.724382,12.61538)"
       gradientUnits="userSpaceOnUse"
       xlink:href="#linearGradient4209" />
    <radialGradient
       id="radialGradient4207"
       cx="-32.298"
       cy="8.715"
       r="8.125"
       fx="-32.298"
       fy="8.715"
       gradientTransform="matrix(0,1.3845518,-1,0,-23.375148,53.43377)"
       gradientUnits="userSpaceOnUse"
       xlink:href="#linearGradient4209" />
    <radialGradient
       id="radialGradient4231"
       cx="25.188"
       cy="82.744"
       r="13"
       fx="25.188"
       fy="82.744"
       gradientTransform="matrix(-9.7841381e-8,1.3846154,-1.2307694,-8.6970111e-8,127.83926,52.125005)"
       gradientUnits="userSpaceOnUse"
       xlink:href="#linearGradient4209" />
    <radialGradient
       id="radialGradient4233"
       cx="68"
       cy="90.554"
       r="9"
       fx="68"
       fy="90.554"
       gradientTransform="matrix(-1.0677655e-6,1.2222223,-1.2222218,-1.067765e-6,178.67723,10.888977)"
       gradientUnits="userSpaceOnUse"
       xlink:href="#linearGradient4209" />
    <radialGradient
       id="radialGradient4189"
       cx="25.188"
       cy="82.744"
       r="13"
       fx="25.188"
       fy="82.744"
       gradientTransform="matrix(-9.7841381e-8,1.3846154,-1.2307694,-8.6970111e-8,127.83926,51.125005)"
       gradientUnits="userSpaceOnUse"
       xlink:href="#linearGradient4209" />
    <radialGradient
       id="radialGradient4193"
       cx="27"
       cy="43.961"
       r="13"
       fx="27"
       fy="43.961"
       gradientTransform="matrix(6.1944048e-8,1.3846155,-1.1538462,5.1620032e-8,77.724382,11.61538)"
       gradientUnits="userSpaceOnUse"
       xlink:href="#linearGradient4209" />
    <radialGradient
       id="radialGradient4197"
       cx="63.894"
       cy="61.058"
       r="9"
       fx="63.894"
       fy="61.058"
       gradientTransform="matrix(-6.1375001e-7,1.2222228,-1.2222222,-6.2559558e-7,142.62634,-21.59247)"
       gradientUnits="userSpaceOnUse"
       xlink:href="#linearGradient4209" />
    <radialGradient
       id="radialGradient4202"
       cx="68"
       cy="90.554"
       r="9"
       fx="68"
       fy="90.554"
       gradientTransform="matrix(-1.0677655e-6,1.2222223,-1.2222218,-1.067765e-6,178.67723,10.388977)"
       gradientUnits="userSpaceOnUse"
       xlink:href="#linearGradient4209" />
  </defs>
  <g
     id="normal"
     transform="matrix(1.6,0,0,1.6,78.344238,3.0559999)">
    <rect
       style="opacity:0.001"
       width="20"
       height="20"
       x="-42.09"
       y="-1.91"
       id="rect19" />
    <circle
       style="fill:#cccccc;fill-opacity:1"
       cx="-32"
       cy="8"
       r="8"
       transform="matrix(1.015625,0,0,1.015625,0.4098513,-0.0349999)"
       id="circle23" />
    <path
       style="fill:#ffffff;opacity:0.05"
       transform="matrix(0.625,0,0,0.625,-48.965149,-1.9099999)"
       d="M 27 3 A 13 13 0 0 0 14 16 A 13 13 0 0 0 14.021484 16.580078 A 13 13 0 0 1 27 4 A 13 13 0 0 1 39.978516 16.419922 A 13 13 0 0 0 40 16 A 13 13 0 0 0 27 3 z"
       id="path25" />
  </g>
  <g
     id="22-22-normal"
     transform="matrix(1.1,0,0,1.1,103.29917,13.101)">
    <rect
       style="opacity:0.001"
       width="20"
       height="20"
       x="-42.09"
       y="-1.91"
       id="rect28" />
    <path
       style="fill:#cccccc;fill-opacity:1"
       transform="matrix(1.0227273,0,0,1.0227273,0.63711821,-0.0918182)"
       d="m -24,8 a 8,8 0 0 1 -8,8 8,8 0 0 1 -8,-8 8,8 0 0 1 8,-8 8,8 0 0 1 8,8 z"
       id="path32" />
    <path
       style="fill:#ffffff;opacity:0.05"
       transform="matrix(0.90909091,0,0,0.90909091,-93.908336,-11.91)"
       d="M 68 13 A 9.0000002 9.0000002 0 0 0 59 22 A 9.0000002 9.0000002 0 0 0 59.009766 22.287109 A 9.0000002 9.0000002 0 0 1 68 13.5 A 9.0000002 9.0000002 0 0 1 76.990234 22.212891 A 9.0000002 9.0000002 0 0 0 77 22 A 9.0000002 9.0000002 0 0 0 68 13 z"
       id="path34" />
  </g>
  <g
     id="pressed"
     transform="matrix(1.6,0,0,1.6,156.344,16.056)">
    <rect
       style="opacity:0.001"
       width="20"
       height="20"
       x="-42.09"
       y="-1.91"
       id="rect37" />
    <circle
       style="fill:#4285f4"
       cx="-32"
       cy="8"
       r="8"
       transform="matrix(1.015625,0,0,1.015625,0.4098513,-0.0349999)"
       id="circle39" />
  </g>
  <g
     id="22-22-pressed"
     transform="matrix(1.1,0,0,1.1,141.299,56.101)">
    <rect
       style="opacity:0.001"
       width="20"
       height="20"
       x="-42.09"
       y="-1.91"
       id="rect42" />
    <path
       style="fill:#4285f4"
       transform="matrix(1.0227273,0,0,1.0227273,0.63711821,-0.0918182)"
       d="m -24,8 a 8,8 0 0 1 -8,8 8,8 0 0 1 -8,-8 8,8 0 0 1 8,-8 8,8 0 0 1 8,8 z"
       id="path44" />
  </g>
  <g
     id="hover">
    <rect
       style="opacity:0.001"
       width="32"
       height="32"
       x="11"
       y="34"
       id="rect47" />
    <path
       style="opacity:0.001;fill:#ffffff"
       d="M 27,37 A 13,13 0 0 0 14,50 13,13 0 0 0 14.021484,50.580078 13,13 0 0 1 27,38 13,13 0 0 1 39.978516,50.419922 13,13 0 0 0 40,50 13,13 0 0 0 27,37 Z"
       id="path51" />
    <circle
       style="fill:#cccccc;fill-opacity:1"
       cx="27"
       cy="50"
       r="13"
       id="circle55" />
    <path
       style="opacity:0.05;fill:#ffffff"
       d="M 27 37 A 13 13 0 0 0 14 50 A 13 13 0 0 0 14.021484 50.580078 A 13 13 0 0 1 27 38 A 13 13 0 0 1 39.978516 50.419922 A 13 13 0 0 0 40 50 A 13 13 0 0 0 27 37 z"
       id="path57" />
  </g>
  <g
     id="focus">
    <rect
       style="opacity:0.001"
       width="32"
       height="32"
       x="11"
       y="71"
       id="rect62" />
    <path
       style="opacity:0.001;fill:#ffffff"
       d="M 27,74 A 13,13 0 0 0 14,87 13,13 0 0 0 14.021484,87.580078 13,13 0 0 1 27,75 13,13 0 0 1 39.978516,87.419922 13,13 0 0 0 40,87 13,13 0 0 0 27,74 Z"
       id="path64" />
    <circle
       style="fill:#e6e6e6;fill-opacity:1"
       cx="27"
       cy="87"
       r="13"
       id="circle68" />
    <path
       style="opacity:0.05;fill:#ffffff"
       d="M 27 74 A 13 13 0 0 0 14 87 A 13 13 0 0 0 14.021484 87.580078 A 13 13 0 0 1 27 75 A 13 13 0 0 1 39.978516 87.419922 A 13 13 0 0 0 40 87 A 13 13 0 0 0 27 74 z"
       id="path70" />
  </g>
  <g
     id="22-22-hover">
    <rect
       style="opacity:0.001"
       width="22"
       height="22"
       x="57"
       y="45"
       id="rect73" />
    <path
       style="opacity:0.001;fill:#ffffff"
       d="m 68,47 a 9.0000002,9.0000002 0 0 0 -9,9 9.0000002,9.0000002 0 0 0 0.0098,0.287109 A 9.0000002,9.0000002 0 0 1 68,47.5 9.0000002,9.0000002 0 0 1 76.990234,56.212891 9.0000002,9.0000002 0 0 0 77,56 9.0000002,9.0000002 0 0 0 68,47 Z"
       id="path77" />
    <circle
       style="fill:#cccccc;fill-opacity:1"
       cx="68"
       cy="56"
       r="9"
       id="circle81" />
    <path
       style="opacity:0.05;fill:#ffffff"
       d="M 68 47 A 9 9 0 0 0 59 56 A 9 9 0 0 0 59.009766 56.287109 A 9 9 0 0 1 68 47.5 A 9 9 0 0 1 76.990234 56.212891 A 9 9 0 0 0 77 56 A 9 9 0 0 0 68 47 z"
       id="path83" />
  </g>
  <g
     id="22-22-focus">
    <rect
       style="opacity:0.001"
       width="22"
       height="22"
       x="57"
       y="82"
       id="rect86" />
    <path
       style="opacity:0.001;fill:#ffffff"
       d="m 68,84 a 9.0000002,9.0000002 0 0 0 -9,9 9.0000002,9.0000002 0 0 0 0.0098,0.287109 A 9.0000002,9.0000002 0 0 1 68,84.5 9.0000002,9.0000002 0 0 1 76.990234,93.212891 9.0000002,9.0000002 0 0 0 77,93 9.0000002,9.0000002 0 0 0 68,84 Z"
       id="path90" />
    <circle
       style="fill:#e6e6e6;fill-opacity:1"
       cx="68"
       cy="93"
       r="9"
       id="circle94" />
    <path
       style="opacity:0.05;fill:#ffffff"
       d="M 68 84 A 9 9 0 0 0 59 93 A 9 9 0 0 0 59.009766 93.287109 A 9 9 0 0 1 68 84.5 A 9 9 0 0 1 76.990234 93.212891 A 9 9 0 0 0 77 93 A 9 9 0 0 0 68 84 z"
       id="path96" />
  </g>
</svg>
