<?xml version="1.0" encoding="UTF-8" standalone="no"?>
<svg
   xmlns:dc="http://purl.org/dc/elements/1.1/"
   xmlns:cc="http://creativecommons.org/ns#"
   xmlns:rdf="http://www.w3.org/1999/02/22-rdf-syntax-ns#"
   xmlns:svg="http://www.w3.org/2000/svg"
   xmlns="http://www.w3.org/2000/svg"
   xmlns:sodipodi="http://sodipodi.sourceforge.net/DTD/sodipodi-0.dtd"
   xmlns:inkscape="http://www.inkscape.org/namespaces/inkscape"
   width="32"
   height="32"
   version="1.1"
   viewBox="0 0 32 32"
   id="svg12"
   sodipodi:docname="applications.svg"
   inkscape:version="1.0.2 (e86c870879, 2021-01-15)">
  <metadata
     id="metadata16">
    <rdf:RDF>
      <cc:Work
         rdf:about="">
        <dc:format>image/svg+xml</dc:format>
        <dc:type
           rdf:resource="http://purl.org/dc/dcmitype/StillImage" />
      </cc:Work>
    </rdf:RDF>
  </metadata>
  <sodipodi:namedview
     pagecolor="#ffffff"
     bordercolor="#666666"
     borderopacity="1"
     objecttolerance="10"
     gridtolerance="10"
     guidetolerance="10"
     inkscape:pageopacity="0"
     inkscape:pageshadow="2"
     inkscape:window-width="1366"
     inkscape:window-height="696"
     id="namedview14"
     showgrid="false"
     inkscape:zoom="5.5795144"
     inkscape:cx="5.6470426"
     inkscape:cy="13.600716"
     inkscape:window-x="0"
     inkscape:window-y="0"
     inkscape:window-maximized="1"
     inkscape:current-layer="svg12" />
  <defs
     id="defs5">
    <style
       id="current-color-scheme"
       type="text/css">.ColorScheme-Text { color:#333333; } .ColorScheme-Highlight { color:#5294e2; } .ColorScheme-ButtonBackground { color:#333333; }</style>
    <style
       type="text/css"
       id="style3" />
  </defs>
  <g
     id="applications-other">
    <rect
       x="-2.7563e-7"
       y="-1.2834e-9"
       width="32"
       height="32"
       rx="0"
       ry="0"
       opacity="0"
       stroke-width="2"
       style="paint-order:fill markers stroke"
       id="rect7" />
    <path
       d="m16 1a15 15 0 0 0-15 15 15 15 0 0 0 15 15 15 15 0 0 0 15-15 15 15 0 0 0-15-15zm-5 6c2.1973-1e-7 4 1.8027 4 4v2.4414c0 0.845-0.71359 1.5586-1.5586 1.5586h-2.4414c-2.1973 0-4-1.8027-4-4-1e-7 -2.1973 1.8027-4 4-4zm10 0c2.1973-1e-7 4 1.8027 4 4s-1.8027 4-4 4h-2.4414c-0.845 0-1.5586-0.71359-1.5586-1.5586v-2.4414c0-2.1973 1.8027-4 4-4zm-10 1a3 3 0 0 0-3 3 3 3 0 0 0 3 3h2.4414c0.30986 0 0.55859-0.24873 0.55859-0.55859v-2.4414a3 3 0 0 0-3-3zm10 0a3 3 0 0 0-3 3v2.4414c0 0.30986 0.24873 0.55859 0.55859 0.55859h2.4414a3 3 0 0 0 3-3 3 3 0 0 0-3-3zm-10 9h2.4414c0.845 0 1.5586 0.71359 1.5586 1.5586v2.4414c0 2.1973-1.8027 4-4 4s-4-1.8027-4-4c-1e-7 -2.1973 1.8027-4 4-4zm7.5586 0h2.4414c2.1973 0 4 1.8027 4 4s-1.8027 4-4 4-4-1.8027-4-4v-2.4414c0-0.845 0.71359-1.5586 1.5586-1.5586zm-7.5586 1a3 3 0 0 0-3 3 3 3 0 0 0 3 3 3 3 0 0 0 3-3v-2.4414c0-0.30986-0.24873-0.55859-0.55859-0.55859zm7.5586 0c-0.30986 0-0.55859 0.24873-0.55859 0.55859v2.4414a3 3 0 0 0 3 3 3 3 0 0 0 3-3 3 3 0 0 0-3-3z"
       color="#000000"
       fill-opacity=".98824"
       opacity=".5"
       stroke-width="1.1429"
       id="path9" />
  </g>
  <g
     id="22-22-applications-other">
    <rect
       x="-29"
       y="6"
       width="22"
       height="22"
       rx="0"
       ry="0"
       opacity="0"
       id="rect14" />
    <g
       transform="translate(-26,10)"
       class="ColorScheme-Text"
       fill="currentColor"
       id="g20">
      <path
         d="M 1,0 C 0.446,0 0,0.446 0,1 V 6 C 0,6.554 0.446,7 1,7 H 6 C 6.554,7 7,6.554 7,6 V 1 C 7,0.446 6.554,0 6,0 Z"
         style="paint-order:stroke fill markers"
         id="path16" />
      <path
         d="M 9,0 C 8.446,0 8,0.446 8,1 v 5 c 0,0.554 0.446,1 1,1 h 5 c 0.554,0 1,-0.446 1,-1 V 1 C 15,0.446 14.554,0 14,0 Z m 1,2 h 3 V 5 H 10 Z M 1,8 C 0.446,8 0,8.446 0,9 v 5 c 0,0.554 0.446,1 1,1 h 5 c 0.554,0 1,-0.446 1,-1 V 9 C 7,8.446 6.554,8 6,8 Z M 9,8 C 8.446,8 8,8.446 8,9 v 5 c 0,0.554 0.446,1 1,1 h 5 c 0.554,0 1,-0.446 1,-1 V 9 C 15,8.446 14.554,8 14,8 Z m -7,2 h 3 v 3 H 2 Z m 8,0 h 3 v 3 h -3 z"
         opacity="0.5"
         id="path18" />
    </g>
  </g>
</svg>
