<svg width="32" height="32" version="1.1" xmlns="http://www.w3.org/2000/svg">
 <defs>
  <style id="current-color-scheme" type="text/css">.ColorScheme-Text { color:#333333; } .ColorScheme-Highlight { color:#5294e2; } .ColorScheme-ButtonBackground { color:#333333; }</style>
  <style type="text/css"/>
 </defs>
 <g id="bookmarks">
  <rect x="4.2725e-7" y="1.5507e-8" width="32" height="32" rx="0" ry="0" opacity="0" stroke-width="2" style="paint-order:fill markers stroke"/>
  <path d="m16 1a15 15 0 0 0-15 15 15 15 0 0 0 15 15 15 15 0 0 0 15-15 15 15 0 0 0-15-15zm0.027344 6.125a1.0001 1.0001 0 0 1 0.005859 0 1.0001 1.0001 0 0 1 0.099609 0.0097656c0.63757 0.090209 1.2008 0.46569 1.5293 1.0195l-0.023437-0.039062 2.2441 3.418 3.4336 0.92383a1.0001 1.0001 0 0 1 0.083985 0.027344c0.61231 0.22403 1.2188 0.60583 1.4277 1.3223a1.0001 1.0001 0 0 1 0.007813 0.029297c0.1955 0.75542-0.0085 1.5625-0.53906 2.1348l0.068359-0.082031-2.4277 3.252 0.20508 3.6309a1.0001 1.0001 0 0 1 0.001953 0.095704c-0.02902 0.72541-0.24922 1.3379-0.69922 1.7129-0.45 0.37505-0.99836 0.37305-1.0996 0.37305a1.0001 1.0001 0 0 1-0.027344 0c-0.27176-0.0073-0.53931-0.05583-0.79688-0.14258a1.0001 1.0001 0 0 1-0.03125-0.011719l-3.7285-1.3926-3.25 1.3262a1.0001 1.0001 0 0 1-0.070313 0.02539c-0.46431 0.15022-0.84926 0.21719-1.2266 0.18945s-0.7796-0.17224-1.0527-0.5a1.0001 1.0001 0 0 1-0.097656-0.14062c-0.28962-0.50113-0.3875-1.0836-0.30273-1.6523l0.11328-4.1328-2.2559-2.8203a1.0001 1.0001 0 0 1-0.0058594-0.00586c-0.42578-0.54141-0.60136-1.2398-0.48047-1.918a1.0001 1.0001 0 0 1 0.10156-0.29102c0.30908-0.58626 0.87558-0.99639 1.5293-1.1055l-0.13086 0.03125 3.8047-1.1719 1.8945-3.0566-0.033203 0.060547c0.30908-0.58627 0.87559-0.99638 1.5293-1.1055a1.0001 1.0001 0 0 1 0.19922-0.013672zm-0.035156 1c-0.34652 0.057823-0.64476 0.27322-0.80859 0.58398l-2.0938 3.375-4.1621 1.2832c-0.34651 0.057819-0.64671 0.27322-0.81055 0.58398-0.070937 0.39792 0.031399 0.80727 0.28125 1.125l2.4863 3.1055-0.12305 4.5c-0.08811 0.38282-0.02858 0.78488 0.16797 1.125 0.11249 0.13499 0.44012 0.24749 1.2051 0l3.6113-1.4746 4.0938 1.5312c0.16332 0.05501 0.33358 0.085194 0.50586 0.089844 0.20249 0 0.75383-7e-5 0.79883-1.125l-0.22461-3.9824 0.12305-0.17969 2.5215-3.375c0.29971-0.32327 0.41318-0.77636 0.30274-1.2031-0.07875-0.26999-0.34932-0.49531-0.81055-0.66406l-3.8008-1.0234-2.4531-3.7363c-0.1741-0.29353-0.47263-0.49125-0.81055-0.53906z" color="#000000" fill-opacity=".992" opacity=".5" stroke-width="1.1429"/>
 </g>
</svg>
