<?xml version="1.0" encoding="UTF-8" standalone="no"?>
<svg
   id="svg7384"
   width="22"
   height="22"
   version="1.1"
   style="enable-background:new"
   sodipodi:docname="edit.svg"
   inkscape:version="1.3.2 (091e20ef0f, 2023-11-25)"
   xmlns:inkscape="http://www.inkscape.org/namespaces/inkscape"
   xmlns:sodipodi="http://sodipodi.sourceforge.net/DTD/sodipodi-0.dtd"
   xmlns="http://www.w3.org/2000/svg"
   xmlns:svg="http://www.w3.org/2000/svg">
  <sodipodi:namedview
     pagecolor="#ffffff"
     bordercolor="#666666"
     borderopacity="1"
     objecttolerance="10"
     gridtolerance="10"
     guidetolerance="10"
     inkscape:pageopacity="0"
     inkscape:pageshadow="2"
     inkscape:window-width="1366"
     inkscape:window-height="707"
     id="namedview9"
     showgrid="false"
     inkscape:zoom="5.2693537"
     inkscape:cx="36.721771"
     inkscape:cy="31.977356"
     inkscape:window-x="0"
     inkscape:window-y="0"
     inkscape:window-maximized="1"
     inkscape:current-layer="svg7384"
     inkscape:showpageshadow="2"
     inkscape:pagecheckerboard="0"
     inkscape:deskcolor="#d1d1d1" />
  <defs
     id="defs7386">
    <style
       id="current-color-scheme"
       type="text/css">
   .ColorScheme-Text { color:#363636; } .ColorScheme-Highlight { color:#5294e2; } .ColorScheme-ButtonBackground { color:#dedede; }
  </style>
  </defs>
  <g
     id="16-16-edit-delete">
    <path
       class="ColorScheme-Text"
       d="m -16,2.995788 c -1,0 -1,0.9995787 -1,0.9995787 h -3 c 0,0 -1,0.0015 -1,1.0015778 v 1.003477 l 13,-0.0039 V 4.9969445 C -8,3.9973658 -9,3.9953667 -9,3.9953667 h -3 c 0,0 0,-0.9995797 -1,-0.9995797 z M -20,7 v 8.996208 c 5e-5,0.52336 0.47642,0.999529 1,0.999579 h 9 c 0.52358,-5e-5 0.99995,-0.476219 1,-0.999579 V 7 h -2 v 7.99663 h -7 V 7 Z"
       fill="currentColor"
       id="path435" />
    <rect
       id="rect497"
       width="16"
       height="16"
       x="-23"
       y="2"
       rx="0"
       ry="0"
       style="fill:none" />
  </g>
  <g
     id="22-22-edit-delete">
    <rect
       width="22"
       height="22"
       fill="currentColor"
       opacity="0.00100002"
       id="rect5"
       x="0"
       y="0" />
    <path
       class="ColorScheme-Text"
       d="M 9,3 C 8,3 8,4 8,4 H 5 C 5,4 4,4.0015 4,5.001577 v 1.003477 l 14,-0.0039 V 5.001577 C 18,4.001999 17,4 17,4 H 14 C 14,4 14,3 13,3 Z M 5,7.004633 v 9.995368 C 5.00005,17.523361 5.47642,17.99995 6,18 h 10 c 0.52358,-5e-5 0.99995,-0.476639 1,-0.999999 V 7.004633 H 15 V 16 H 7 V 7.004633 Z"
       fill="currentColor"
       id="path550" />
  </g>
  <g
     id="edit-delete">
    <rect
       x="32"
       width="32"
       height="32"
       fill="currentColor"
       opacity="0.00100002"
       stroke-width="1.4546"
       id="rect10"
       y="0" />
    <path
       id="rect1195"
       d="M 45,5 C 44.446001,5 44,5.4460006 44,6 H 39 C 37.892002,6 37,6.8920022 37,8 V 9 H 59 V 8 C 59,6.8920022 58.107998,6 57,6 H 52 C 52,5.4460006 51.553999,5 51,5 Z m -6,6 v 12 c 0,2.215994 1.784006,4 4,4 h 10 c 2.215994,0 4,-1.784006 4,-4 V 11 h -3 v 12 c 0,0.553997 -0.446003,1 -1,1 H 43 c -0.553997,0 -1,-0.446003 -1,-1 V 11 Z"
       class="ColorScheme-Text"
       fill="currentColor" />
  </g>
</svg>
