<?xml version="1.0" encoding="UTF-8" standalone="no"?>
<svg
   id="svg7384"
   width="22"
   height="22"
   version="1.1"
   style="enable-background:new"
   sodipodi:docname="go.svg"
   inkscape:version="1.2 (dc2aedaf03, 2022-05-15)"
   xmlns:inkscape="http://www.inkscape.org/namespaces/inkscape"
   xmlns:sodipodi="http://sodipodi.sourceforge.net/DTD/sodipodi-0.dtd"
   xmlns:xlink="http://www.w3.org/1999/xlink"
   xmlns="http://www.w3.org/2000/svg"
   xmlns:svg="http://www.w3.org/2000/svg">
  <sodipodi:namedview
     id="namedview8020"
     pagecolor="#ffffff"
     bordercolor="#666666"
     borderopacity="1.0"
     inkscape:showpageshadow="2"
     inkscape:pageopacity="0.0"
     inkscape:pagecheckerboard="0"
     inkscape:deskcolor="#d1d1d1"
     showgrid="false"
     inkscape:zoom="3.7926636"
     inkscape:cx="-0.65916734"
     inkscape:cy="-1.977502"
     inkscape:window-width="1920"
     inkscape:window-height="1004"
     inkscape:window-x="0"
     inkscape:window-y="0"
     inkscape:window-maximized="1"
     inkscape:current-layer="svg7384" />
  <defs
     id="defs7386">
    <style
       id="current-color-scheme"
       type="text/css">
   .ColorScheme-Text { color:#333333; } .ColorScheme-Highlight { color:#5294e2; } .ColorScheme-ButtonBackground { color:#dedede; }
  </style>
  </defs>
  <g
     id="go-home"
     transform="translate(-465.0004,105.00336)">
    <path
       id="rect4138"
       d="m 465.0004,-105.00336 22,0 0,22.000003 -22,0 z"
       style="opacity:0;fill:currentColor;fill-opacity:0.3254902;fill-rule:nonzero;stroke:none;stroke-width:1;stroke-linecap:round;stroke-linejoin:round;stroke-miterlimit:4;stroke-dasharray:none;stroke-dashoffset:0;stroke-opacity:1" />
    <path
       id="path16259-2"
       class="ColorScheme-Text"
       d="m 468.0004,-94.00336 2,0 0,8 5,0 0,-4 2,0 0,4 5,0 0,-8 2,0 -8,-8 z"
       style="opacity:1;fill:currentColor;fill-opacity:1;stroke:none" />
  </g>
  <g
     id="go-up"
     style="enable-background:new">
    <path
       id="path4198"
       d="M 24,0 V 22 H 46 V 0 Z"
       style="opacity:0;fill:currentColor;fill-opacity:0.32549;fill-rule:nonzero;stroke:none;stroke-width:1;stroke-linecap:round;stroke-linejoin:round;stroke-miterlimit:4;stroke-dasharray:none;stroke-dashoffset:0;stroke-opacity:1" />
    <g
       id="g1549"
       transform="translate(3.9999998,-23)">
      <rect
         id="rect1345"
         width="12"
         height="2"
         x="42.1348"
         y="-1.7071068"
         rx="1"
         ry="1"
         transform="rotate(45)"
         class="ColorScheme-Text"
         fill="currentColor" />
      <rect
         id="rect1427"
         width="12"
         height="2"
         x="-1.7058203"
         y="42.133514"
         rx="1"
         ry="1"
         transform="matrix(-0.70710678,0.70710678,0.70710678,0.70710678,0,0)"
         class="ColorScheme-Text"
         fill="currentColor" />
    </g>
  </g>
  <use
     x="0"
     y="0"
     id="go-down"
     transform="matrix(1,0,0,-1,25,22)"
     width="100%"
     height="100%"
     xlink:href="#go-up" />
  <use
     x="0"
     y="0"
     xlink:href="#go-up"
     id="go-previous"
     transform="matrix(0,1,1,0,78,-24)"
     width="100%"
     height="100%" />
  <use
     x="0"
     y="0"
     xlink:href="#go-up"
     id="go-next"
     transform="rotate(90,77.5,53.5)"
     width="100%"
     height="100%" />
</svg>
