<svg width="22" height="22" version="1.1" viewBox="0 0 22 22" xmlns="http://www.w3.org/2000/svg">
 <defs>
  <style id="current-color-scheme" type="text/css">.ColorScheme-Text {
        color:#333333;
      }
      .ColorScheme-Background {
        color:#eff0f1;
      }
      .ColorScheme-Highlight {
        color:#3daee9;
      }
      .ColorScheme-ViewText {
        color:#31363b;
      }
      .ColorScheme-ViewBackground {
        color:#fcfcfc;
      }
      .ColorScheme-ViewHover {
        color:#93cee9;
      }
      .ColorScheme-ViewFocus{
        color:#3daee9;
      }
      .ColorScheme-ButtonText {
        color:#31363b;
      }
      .ColorScheme-ButtonBackground {
        color:#eff0f1;
      }
      .ColorScheme-ButtonHover {
        color:#93cee9;
      }
      .ColorScheme-ButtonFocus{
        color:#3daee9;
      }</style>
 </defs>
 <g id="22-22-input-mouse-battery" transform="translate(-325.99 -310.36)">
  <rect x="326" y="534.36" width="22" height="22" ry="0" fill="none"/>
  <path class="ColorScheme-Text" transform="translate(325.99,310.36)" d="m13.51 227c-3.047 0-5.5 2.676-5.5 6v4c0 3.324 2.453 6 5.5 6s5.5-2.676 5.5-6v-4c0-3.324-2.453-6-5.5-6zm-0.009766 2c1.939 0 3.5 1.561 3.5 3.5v5c0 1.939-1.561 3.5-3.5 3.5s-3.5-1.561-3.5-3.5v-5c0-1.939 1.561-3.5 3.5-3.5z" fill="currentColor"/>
  <path class="ColorScheme-Text" d="m331 537.36-2 5h2v3l2-5h-2z" fill="currentColor"/>
  <rect class="ColorScheme-Text" x="338.99" y="541.36" width="1" height="3" rx=".5" ry=".5" fill="currentColor"/>
 </g>
 <g id="22-22-input-keyboard" transform="translate(0,-22)">
  <rect y="22" width="22" height="22" rx="0" ry="0" fill="none"/>
  <g class="ColorScheme-Text" transform="translate(0,2)" fill="currentColor">
   <path d="m4 24c-1.662 0-3 1.338-3 3v8c0 1.662 1.338 3 3 3h14c1.662 0 3-1.338 3-3v-8c0-1.662-1.338-3-3-3zm0 2h14c0.554 0 1 0.446 1 1v8c0 0.554-0.446 1-1 1h-14c-0.554 0-1-0.446-1-1v-8c0-0.554 0.446-1 1-1z"/>
   <circle cx="17" cy="34" r="1"/>
   <rect x="7" y="33" width="8" height="2" rx="1" ry="1"/>
   <circle cx="17" cy="31" r="1"/>
   <circle cx="17" cy="28" r="1"/>
   <circle cx="14" cy="31" r="1"/>
   <circle cx="14" cy="28" r="1"/>
   <circle cx="11" cy="31" r="1"/>
   <circle cx="11" cy="28" r="1"/>
   <circle cx="8" cy="31" r="1"/>
   <circle cx="8" cy="28" r="1"/>
   <circle cx="5" cy="31" r="1"/>
   <circle cx="5" cy="28" r="1"/>
   <circle cx="5" cy="34" r="1"/>
  </g>
 </g>
 <g id="22-22-input-keyboard-virtual-on">
  <rect x="25" width="22" height="22" rx="0" ry="0" fill="none"/>
  <g class="ColorScheme-Text" transform="translate(25,-20)" fill="currentColor">
   <path transform="translate(-25,20)" d="m29 4c-1.662 0-3 1.338-3 3v8c0 1.662 1.338 3 3 3h12.768a3 3 0 0 1-0.76758-2h-12c-0.554 0-1-0.446-1-1v-8c0-0.554 0.446-1 1-1h14c0.554 0 1 0.446 1 1v6a3 3 0 0 1 2 0.76367v-6.7637c0-1.662-1.338-3-3-3h-14z"/>
   <rect x="7" y="33" width="8" height="2" rx="1" ry="1"/>
   <circle cx="17" cy="31" r="1"/>
   <circle cx="17" cy="28" r="1"/>
   <circle cx="14" cy="31" r="1"/>
   <circle cx="14" cy="28" r="1"/>
   <circle cx="11" cy="31" r="1"/>
   <circle cx="11" cy="28" r="1"/>
   <circle cx="8" cy="31" r="1"/>
   <circle cx="8" cy="28" r="1"/>
   <circle cx="5" cy="31" r="1"/>
   <circle cx="5" cy="28" r="1"/>
   <circle cx="5" cy="34" r="1"/>
  </g>
  <path d="m44 14a2 2 0 0 0-2 2 2 2 0 0 0 2 2 2 2 0 0 0 2-2 2 2 0 0 0-2-2z" fill="#42d15b" stroke-width=".8"/>
 </g>
 <g id="22-22-input-keyboard-virtual-off" transform="translate(25)">
  <rect x="25" width="22" height="22" rx="0" ry="0" fill="none"/>
  <g class="ColorScheme-Text" transform="translate(25,-20)" fill="currentColor">
   <path transform="translate(-25,20)" d="m29 4c-1.662 0-3 1.338-3 3v8c0 1.662 1.338 3 3 3h12.768a3 3 0 0 1-0.76758-2h-12c-0.554 0-1-0.446-1-1v-8c0-0.554 0.446-1 1-1h14c0.554 0 1 0.446 1 1v6a3 3 0 0 1 2 0.76367v-6.7637c0-1.662-1.338-3-3-3z"/>
   <rect x="7" y="33" width="8" height="2" rx="1" ry="1"/>
   <circle cx="17" cy="31" r="1"/>
   <circle cx="17" cy="28" r="1"/>
   <circle cx="14" cy="31" r="1"/>
   <circle cx="14" cy="28" r="1"/>
   <circle cx="11" cy="31" r="1"/>
   <circle cx="11" cy="28" r="1"/>
   <circle cx="8" cy="31" r="1"/>
   <circle cx="8" cy="28" r="1"/>
   <circle cx="5" cy="31" r="1"/>
   <circle cx="5" cy="28" r="1"/>
   <circle cx="5" cy="34" r="1"/>
  </g>
  <path class="ColorScheme-Text" d="m44 14a2 2 0 0 0-2 2 2 2 0 0 0 2 2 2 2 0 0 0 2-2 2 2 0 0 0-2-2z" fill="currentColor" opacity=".35"/>
 </g>
 <g id="input-keyboard-virtual-on">
  <rect x="36" y="35" width="32" height="32" rx="0" ry="0" fill="none" stroke-width="1.4546"/>
  <g class="ColorScheme-Text" transform="translate(36)" fill="currentColor">
   <rect x="9" y="55" width="14" height="2" rx="1" ry="1" stroke-width="1.0801"/>
   <circle cx="6" cy="48" r="1" stroke-width=".6875"/>
   <path transform="translate(-36)" d="m41 42c-2.216 0-4 1.784-4 4v12c0 2.216 1.784 4 4 4h20.357a4 4 0 0 1-1.2227-2h-19.135c-1.108 0-2-0.892-2-2v-12c0-1.108 0.892-2 2-2h22c1.108 0 2 0.892 2 2v9.127a4 4 0 0 1 2 1.2305v-10.357c0-2.216-1.784-4-4-4h-22z"/>
   <circle cx="10" cy="48" r="1" stroke-width=".6875"/>
   <circle cx="14" cy="48" r="1" stroke-width=".6875"/>
   <circle cx="18" cy="48" r="1" stroke-width=".6875"/>
   <circle cx="22" cy="48" r="1" stroke-width=".6875"/>
   <circle cx="26" cy="48" r="1" stroke-width=".6875"/>
   <circle cx="6" cy="52" r="1" stroke-width=".6875"/>
   <circle cx="10" cy="52" r="1" stroke-width=".6875"/>
   <circle cx="14" cy="52" r="1" stroke-width=".6875"/>
   <circle cx="18" cy="52" r="1" stroke-width=".6875"/>
   <circle cx="22" cy="52" r="1" stroke-width=".6875"/>
   <circle cx="26" cy="52" r="1" stroke-width=".6875"/>
   <circle cx="6" cy="56" r="1" stroke-width=".6875"/>
  </g>
  <path d="m64 56a3 3 0 0 0-3 3 3 3 0 0 0 3 3 3 3 0 0 0 3-3 3 3 0 0 0-3-3z" fill="#42d15b" stroke-width="1.2"/>
 </g>
 <g id="input-keyboard">
  <rect y="35" width="32" height="32" rx="0" ry="0" fill="none" stroke-width="1.4546"/>
  <g class="ColorScheme-Text" fill="currentColor">
   <rect x="9" y="55" width="14" height="2" rx="1" ry="1" stroke-width="1.0801"/>
   <circle cx="6" cy="48" r="1" stroke-width=".6875"/>
   <path d="m5 42c-2.216 0-4 1.784-4 4v12c0 2.216 1.784 4 4 4h22c2.216 0 4-1.784 4-4v-12c0-2.216-1.784-4-4-4zm0 2h22c1.108 0 2 0.892 2 2v12c0 1.108-0.892 2-2 2h-22c-1.108 0-2-0.892-2-2v-12c0-1.108 0.892-2 2-2z"/>
   <circle cx="10" cy="48" r="1" stroke-width=".6875"/>
   <circle cx="14" cy="48" r="1" stroke-width=".6875"/>
   <circle cx="18" cy="48" r="1"/>
   <circle cx="22" cy="48" r="1" stroke-width=".6875"/>
   <circle cx="26" cy="48" r="1" stroke-width=".6875"/>
   <circle cx="6" cy="52" r="1" stroke-width=".6875"/>
   <circle cx="10" cy="52" r="1" stroke-width=".6875"/>
   <circle cx="14" cy="52" r="1" stroke-width=".6875"/>
   <circle cx="18" cy="52" r="1" stroke-width=".6875"/>
   <circle cx="22" cy="52" r="1" stroke-width=".6875"/>
   <circle cx="26" cy="52" r="1" stroke-width=".6875"/>
   <circle cx="6" cy="56" r="1" stroke-width=".6875"/>
   <circle cx="26" cy="56" r="1" stroke-width=".6875"/>
  </g>
 </g>
 <g id="input-keyboard-virtual-off">
  <rect x="72" y="35" width="32" height="32" rx="0" ry="0" fill="none" stroke-width="1.4546"/>
  <path class="ColorScheme-Text" d="m100 56a3 3 0 0 0-3 3 3 3 0 0 0 3 3 3 3 0 0 0 3-3 3 3 0 0 0-3-3z" fill="currentColor" opacity=".35" stroke-width="1.5"/>
  <g class="ColorScheme-Text" transform="translate(72)" fill="currentColor">
   <rect x="9" y="55" width="14" height="2" rx="1" ry="1" stroke-width="1.0801"/>
   <circle cx="6" cy="48" r="1" stroke-width=".6875"/>
   <path transform="translate(-36)" d="m41 42c-2.216 0-4 1.784-4 4v12c0 2.216 1.784 4 4 4h20.357a4 4 0 0 1-1.2227-2h-19.135c-1.108 0-2-0.892-2-2v-12c0-1.108 0.892-2 2-2h22c1.108 0 2 0.892 2 2v9.127a4 4 0 0 1 2 1.2305v-10.357c0-2.216-1.784-4-4-4z"/>
   <circle cx="10" cy="48" r="1" stroke-width=".6875"/>
   <circle cx="14" cy="48" r="1" stroke-width=".6875"/>
   <circle cx="18" cy="48" r="1" stroke-width=".6875"/>
   <circle cx="22" cy="48" r="1" stroke-width=".6875"/>
   <circle cx="26" cy="48" r="1" stroke-width=".6875"/>
   <circle cx="6" cy="52" r="1" stroke-width=".6875"/>
   <circle cx="10" cy="52" r="1" stroke-width=".6875"/>
   <circle cx="14" cy="52" r="1" stroke-width=".6875"/>
   <circle cx="18" cy="52" r="1" stroke-width=".6875"/>
   <circle cx="22" cy="52" r="1" stroke-width=".6875"/>
   <circle cx="26" cy="52" r="1" stroke-width=".6875"/>
   <circle cx="6" cy="56" r="1" stroke-width=".6875"/>
  </g>
 </g>
 <g id="22-22-input-keyboard-battery">
  <rect x=".01" y="128" width="22" height="22" ry="0" fill="none"/>
  <path class="ColorScheme-Text" d="m6.9941 131c-1.662 0-3 1.338-3 3v7c0 2 1 3.0002 3 4l4.0059 2.002 3.9941-2.002c1.9955-1 3-2 3-4v-1h-1.9941v1c0 0.554-0.446 1-1 1h-8c-0.554 0-1-0.446-1-1v-7c0-0.554 0.446-1 1-1h7v-2h-7.0059z" fill="currentColor"/>
  <path class="ColorScheme-Text" d="m16.01 131-2 5h2v3l2-5h-2zm-5.5723 3.002-2.4375 6h1.0742l0.40625-1h3.0391l0.40625 1h1.0742v-0.00195l-2.4395-5.998h-0.53711l-0.02344 0.01-0.02344-0.01zm0.5625 1.2578 1.1133 2.7422h-2.2266z" fill="currentColor"/>
 </g>
 <g id="input-keyboard-battery">
  <rect x="22.01" y="118" width="32" height="32" ry="0" fill="none"/>
  <path class="ColorScheme-Text" d="m33.01 123c-2.77 0-5 2.23-5 5v12c0 2.77 3 4.2 5 5l5 2 5-2c2-0.8 5-2.23 5-5v-9h-2v7c0 1.662-1.338 3-3 3h-10c-1.662 0-3-1.338-3-3v-10c0-1.662 1.338-3 3-3h9.9902v-2z" fill="currentColor"/>
  <path class="ColorScheme-Text" d="m46.01 122-2 5h2v3l2-5h-2zm-9.0957 6-3.6602 10h1.9746l0.81445-2.4941h3.8555l0.80664 2.4941h2.0605l-3.4727-10zm1.0645 1.5859 1.3828 4.2637h-2.7754z" fill="currentColor"/>
 </g>
 <g id="22-22-input-caps-on">
  <rect x=".0049989" y="160" width="22" height="22" fill="none"/>
  <path class="ColorScheme-Text" d="m7 163c-1.662 0-3 1.338-3 3v7c0 2 1 3.0002 3 4l4.0059 2.002 3.9941-2.002c1.9955-1 3-2 3-4v-7c0-1.662-1.338-3-3-3h-8zm0 2h8c0.554 0 1 0.446 1 1v7c0 0.554-0.446 1-1 1h-8c-0.554 0-1-0.446-1-1v-7c0-0.554 0.446-1 1-1z" fill="currentColor"/>
  <path class="ColorScheme-Text" d="m10.443 166-2.4375 6h1.0742l0.40625-1h3.0391l0.40625 1h1.0742l-2.4395-6h-0.53711l-0.02344 0.01-0.02344-0.01zm0.5625 1.2578 1.1133 2.7422h-2.2266z" fill="currentColor"/>
 </g>
 <g id="input-caps-on">
  <rect x="22.005" y="150" width="32" height="32" fill="none"/>
  <path class="ColorScheme-Text" d="m33 155c-2.77 0-5 2.23-5 5v12c0 2.77 3 4.2 5 5l5 2 5-2c2-0.8 5-2.23 5-5v-12c0-2.77-2.23-5-5-5zm0 2h10c1.662 0 3 1.338 3 3v10c0 1.662-1.338 3-3 3h-10c-1.662 0-3-1.338-3-3v-10c0-1.662 1.338-3 3-3z" fill="currentColor"/>
  <path class="ColorScheme-Text" d="m36.904 160-3.6602 10h1.9746l0.81445-2.4941h3.8555l0.80664 2.4941h2.0605l-3.4727-10zm1.0645 1.5859 1.3828 4.2637h-2.7754z" fill="currentColor"/>
 </g>
 <g id="22-22-input-keyboard-brightness" transform="translate(68,-2)">
  <rect x="-67.995" y="98.002" width="22" height="22" fill="none"/>
  <path class="ColorScheme-Text" transform="translate(-68,2)" d="m7 99c-1.662 0-3 1.338-3 3v7c0 2 1 3.0002 3 4l4.0059 2.002 3.9941-2.002c1.9955-1 3-2 3-4v-5h-2v5c0 0.554-0.446 1-1 1h-8c-0.554 0-1-0.446-1-1v-7c0-0.554 0.446-1 1-1h6v-2z" fill="currentColor"/>
  <path class="ColorScheme-Text" d="m-52 101c-1.1046 0-2 0.89543-2 2s0.89543 2 2 2 2-0.89543 2-2-0.89543-2-2-2zm0 1v2c-0.55228 0-1-0.44771-1-1 0-0.55228 0.44772-1 1-1zm-5.5566 2.002-2.4375 6h1.0742l0.40625-1h3.0391l0.40625 1h1.0742l-2.4395-6h-0.53711l-0.02344 0.01-0.02344-0.01zm0.5625 1.2578 1.1133 2.7422h-2.2266z" fill="currentColor"/>
 </g>
 <g id="input-keyboard-brightness" transform="translate(68,-2)">
  <rect x="-45.995" y="88.004" width="32" height="32" fill="none"/>
  <path class="ColorScheme-Text" d="m-35 93c-2.77 0-5 2.23-5 5v12c0 2.77 3 4.2 5 5l5 2 5-2c2-0.8 5-2.23 5-5v-7h-2v5c0 1.662-1.338 3-3 3h-10c-1.662 0-3-1.338-3-3v-10c0-1.662 1.338-3 3-3h7v-2z" fill="currentColor"/>
  <path class="ColorScheme-Text" d="m-23 92c-0.277 0-0.5 0.223-0.5 0.5v1c0 0.277 0.223 0.5 0.5 0.5s0.5-0.223 0.5-0.5v-1c0-0.277-0.223-0.5-0.5-0.5zm-3.1816 1.3184c-0.12781 0-0.25558 0.04851-0.35352 0.14648-0.19587 0.19587-0.19587 0.51116 0 0.70703l0.70703 0.70703c0.19587 0.19587 0.51116 0.19587 0.70703 0s0.19587-0.51116 0-0.70703l-0.70703-0.70703c-0.09793-0.0979-0.22571-0.14648-0.35352-0.14648zm6.3633 0c-0.12781 0-0.25558 0.04851-0.35352 0.14648l-0.70703 0.70703c-0.19586 0.19587-0.19586 0.51116 0 0.70703 0.19587 0.19587 0.51117 0.19587 0.70703 0l0.70703-0.70703c0.19586-0.19587 0.19586-0.51116 0-0.70703-0.0979-0.0979-0.2257-0.14648-0.35352-0.14648zm-3.1816 1.6816c-1.1046 0-2 0.89543-2 2s0.89543 2 2 2c1.1046 0 2-0.89543 2-2s-0.89543-2-2-2zm0 1v2c-0.55228 0-1-0.44772-1-1s0.44772-1 1-1zm-4.5 0.5c-0.277 0-0.5 0.223-0.5 0.5s0.223 0.5 0.5 0.5h1c0.277 0 0.5-0.223 0.5-0.5s-0.223-0.5-0.5-0.5zm8 0c-0.277 0-0.5 0.223-0.5 0.5s0.223 0.5 0.5 0.5h1c0.277 0 0.5-0.223 0.5-0.5s-0.223-0.5-0.5-0.5zm-11.596 1.5-3.6602 10h1.9746l0.81445-2.4941h3.8555l0.80664 2.4941h2.0605l-3.4727-10zm5.6211 0.97461c-0.12781 0-0.25558 0.0486-0.35352 0.14648l-0.70703 0.70703c-0.19587 0.19586-0.19587 0.51116 0 0.70704s0.51116 0.19587 0.70703 0l0.70703-0.70704c0.19587-0.19587 0.19587-0.51116 0-0.70703-0.09793-0.0979-0.2257-0.14648-0.35352-0.14648zm4.9492 0c-0.12781 0-0.25558 0.0486-0.35352 0.14648-0.19586 0.19587-0.19586 0.51116 0 0.70703l0.70703 0.70704c0.19587 0.19587 0.51116 0.19587 0.70703 0 0.19586-0.19587 0.19586-0.51117 0-0.70704l-0.70703-0.70703c-0.0979-0.0979-0.22571-0.14648-0.35352-0.14648zm-9.5059 0.61133 1.3828 4.2637h-2.7754zm7.0312 0.41406c-0.277 0-0.5 0.223-0.5 0.5v1c0 0.277 0.223 0.5 0.5 0.5s0.5-0.223 0.5-0.5v-1c0-0.277-0.223-0.5-0.5-0.5z" fill="currentColor"/>
 </g>
 <g id="22-22-input-num-on">
  <rect x=".0049989" y="192" width="22" height="22" fill="none"/>
  <path class="ColorScheme-Text" d="m7 195c-1.662 0-3 1.338-3 3v7c0 2 1 3.0002 3 4l4.0059 2.002 3.9941-2.002c1.9955-1 3-2 3-4v-7c0-1.662-1.338-3-3-3h-8zm0 2h8c0.554 0 1 0.446 1 1v7c0 0.554-0.446 1-1 1h-8c-0.554 0-1-0.446-1-1v-7c0-0.554 0.446-1 1-1z" fill="currentColor"/>
  <path class="ColorScheme-Text" d="m11 198v1h-1v1h1v4h-1v1h3v-1h-1v-6z" fill="currentColor"/>
 </g>
 <g id="input-num-on">
  <rect x="22.005" y="182" width="32" height="32" fill="none"/>
  <path class="ColorScheme-Text" d="m33 187c-2.77 0-5 2.23-5 5v12c0 2.77 3 4.2 5 5l5 2 5-2c2-0.8 5-2.23 5-5v-12c0-2.77-2.23-5-5-5zm0 2h10c1.662 0 3 1.338 3 3v10c0 1.662-1.338 3-3 3h-10c-1.662 0-3-1.338-3-3v-10c0-1.662 1.338-3 3-3z" fill="currentColor"/>
  <path class="ColorScheme-Text" d="m37 192v2h-2v2h2v4h-2v2h6v-2h-2v-8z" fill="currentColor"/>
 </g>
 <g id="16-16-input-mouse-battery">
  <path class="ColorScheme-Text" d="m-7.99 234-2 5h2v3l2-5h-2z" fill="currentColor"/>
  <rect x="-15.99" y="230" width="16" height="16" fill="none"/>
  <path class="ColorScheme-Text" d="m-8 231c-2.77 0-5 2.23-5 5v4c0 2.77 2.23 5 5 5s5-2.23 5-5v-4c0-2.77-2.23-5-5-5zm0 2c1.662 0 3 1.338 3 3v4c0 1.662-1.338 3-3 3s-3-1.338-3-3v-4c0-1.662 1.338-3 3-3z" fill="currentColor"/>
 </g>
 <g id="input-mouse-battery">
  <g transform="translate(-2 -10)">
   <rect x="27" y="224" width="32" height="32" ry="0" fill="none"/>
  </g>
  <path class="ColorScheme-Text" d="m41 217c-4.986 0-9 4.014-9 9v8c0 4.986 4.014 9 9 9s9-4.014 9-9v-8c0-4.986-4.014-9-9-9zm0 2c3.878 0 7 3.122 7 7v8c0 3.878-3.122 7-7 7s-7-3.122-7-7v-8c0-3.878 3.122-7 7-7z" fill="currentColor"/>
  <path class="ColorScheme-Text" d="m41 221c-0.554 0-1 0.446-1 1v4c0 0.554 0.446 1 1 1s1-0.446 1-1v-4c0-0.554-0.446-1-1-1zm0 8-3 6h3v4l3-6h-3v-4z" fill="currentColor"/>
 </g>
</svg>
