<?xml version="1.0" encoding="UTF-8" standalone="no"?>
<svg
   id="svg"
   version="1.1"
   viewBox="0 0 22 22"
   sodipodi:docname="klipper.svg"
   inkscape:version="1.1 (c4e8f9ed74, 2021-05-24)"
   xmlns:inkscape="http://www.inkscape.org/namespaces/inkscape"
   xmlns:sodipodi="http://sodipodi.sourceforge.net/DTD/sodipodi-0.dtd"
   xmlns="http://www.w3.org/2000/svg"
   xmlns:svg="http://www.w3.org/2000/svg"
   xmlns:rdf="http://www.w3.org/1999/02/22-rdf-syntax-ns#"
   xmlns:cc="http://creativecommons.org/ns#"
   xmlns:dc="http://purl.org/dc/elements/1.1/">
  <sodipodi:namedview
     id="namedview22"
     pagecolor="#ffffff"
     bordercolor="#666666"
     borderopacity="1.0"
     inkscape:pageshadow="2"
     inkscape:pageopacity="0.0"
     inkscape:pagecheckerboard="0"
     showgrid="false"
     inkscape:zoom="3.3011364"
     inkscape:cx="7.5731497"
     inkscape:cy="-12.571429"
     inkscape:window-width="1920"
     inkscape:window-height="1008"
     inkscape:window-x="0"
     inkscape:window-y="0"
     inkscape:window-maximized="1"
     inkscape:current-layer="svg" />
  <metadata
     id="metadata2">
    <rdf:RDF>
      <cc:Work
         rdf:about="">
        <dc:format>image/svg+xml</dc:format>
        <dc:type
           rdf:resource="http://purl.org/dc/dcmitype/StillImage" />
      </cc:Work>
    </rdf:RDF>
  </metadata>
  <defs
     id="defs5">
    <style
       id="current-color-scheme"
       type="text/css">.ColorScheme-Text { color:#333333; } .ColorScheme-Highlight { color:#5294e2; } .ColorScheme-ButtonBackground { color:#333333; }</style>
  </defs>
  <g
     id="klipper">
    <rect
       class="ColorScheme-Text"
       width="22"
       height="22"
       color="#333333"
       fill-opacity="0"
       id="rect7" />
    <g
       transform="translate(-298 -26)"
       enable-background="new"
       id="g13">
      <rect
         transform="scale(1,-1)"
         x="301"
         y="-45"
         width="16"
         height="16"
         color="#bebebe"
         enable-background="new"
         fill="none"
         id="rect9" />
      <path
         transform="translate(237 -445)"
         d="m72 474c-1.1046 0-2 0.89543-2 2h-3c-1 0-1 1-1 1v11c0 1 1 1 1 1h10s1 0 1-1v-11c0-1-1-1-1-1h-3c0-0.13807-0.0046-0.27605-0.03125-0.40625-0.18649-0.91137-1.0022-1.5938-1.9688-1.5938zm0 1c0.41421 0 0.75444 0.26608 0.90625 0.625 0.0506 0.11964 0.09375 0.23693 0.09375 0.375 0 0.55228-0.44771 1-1 1s-1-0.44772-1-1 0.44771-1 1-1zm-4 3h1v1h6v-1h1v9h-8z"
         color="#000000"
         enable-background="accumulate"
         fill="#333"
         id="path11" />
    </g>
  </g>
</svg>
