<svg width="22" height="22" version="1.1" xmlns="http://www.w3.org/2000/svg">
 <defs>
  <style id="current-color-scheme" type="text/css">.ColorScheme-Text{color:#363636;}.ColorScheme-Highlight{color:#5294e2;}</style>
 </defs>
 <defs>
  <style type="text/css"/>
 </defs>
 <g id="pamac-tray-no-update">
  <rect x="-.97726" y="30.051" width="32" height="32" rx="0" ry="0" fill="none" stop-color="#000000" style="paint-order:stroke fill markers"/>
  <path class="ColorScheme-Text" d="m14.246 34.406a1.0001 1.0001 0 0 0 0 2e-3l-7.7227 2.7129c-0.90911 0.31903-1.5234 1.1854-1.5234 2.1484v7.9414c0 2.4648 0.89839 4.8182 2.4805 6.6406 0.82351 0.95 1.835 1.6572 2.8711 2.2168l4.1816 2.2559a1.0001 1.0001 0 0 0 0.94922 0l4.1738-2.2539a1.0001 1.0001 0 0 0 2e-3 0c1.0355-0.55999 2.0434-1.2685 2.8652-2.2168 1.582-1.8229 2.4766-4.1757 2.4766-6.6387v-7.9453c0-0.96359-0.61348-1.8298-1.5234-2.1484l-7.7207-2.7129c-0.48886-0.17206-1.0213-0.17315-1.5098-2e-3zm0.66211 1.8887c0.06051-0.02121 0.12579-0.02034 0.18359 0l7.7227 2.7129c0.11533 0.04038 0.18555 0.13902 0.18555 0.26172v7.9453c0 1.9784-0.71772 3.8664-1.9863 5.3281a1.0001 1.0001 0 0 0-2e-3 0c-0.61165 0.70575-1.4159 1.2859-2.3066 1.7676l-3.6973 1.998-3.7051-2h-2e-3c-0.89185-0.48193-1.6965-1.0596-2.3085-1.7656a1.0001 1.0001 0 0 0 0-2e-3c-1.2698-1.4619-1.9922-3.3498-1.9922-5.33v-7.9414c0-0.1227 0.070219-0.22134 0.18555-0.26172a1.0001 1.0001 0 0 0 0.00195 0z" fill="currentColor"/>
  <path class="ColorScheme-Text" d="m15 41c-0.25516 0-0.5113 0.097795-0.70703 0.29297-3.48e-4 3.47e-4 -0.001606-3.48e-4 -0.001953 0l-2.8281 2.8301c-0.39174 0.39174-0.39174 1.0223 0 1.4141 0.39174 0.39174 1.0223 0.39174 1.4141 0l1.123-1.123v5.5859c0 0.554 0.446 1 1 1s1-0.446 1-1v-5.584l1.1211 1.1211c0.39174 0.39174 1.0223 0.39174 1.4141 0 0.39174-0.39174 0.39174-1.0223 0-1.4141l-2.8281-2.8301c-0.19587-0.19587-0.45141-0.29297-0.70703-0.29297z" fill="currentColor"/>
 </g>
 <g id="22-22-pamac-tray-no-update">
  <rect width="22" height="22" opacity="0"/>
  <path class="ColorScheme-Text" d="m10.34 1.4922-6.0059 2.1113v-0.00195c-0.79604 0.2787-1.334 1.0399-1.334 1.8828v6.1758c0 1.9712 0.71888 3.8529 1.9844 5.3105 0.66397 0.76596 1.4731 1.3315 2.2949 1.7754l3.252 1.7539a1.0001 1.0001 0 0 0 0.94922 0l3.2461-1.7539c0.82146-0.44425 1.6304-1.0089 2.293-1.7734 1.2653-1.4579 1.9805-3.3391 1.9805-5.3086v-6.1797c0-0.84289-0.53795-1.6041-1.334-1.8828v0.00195l-6.0039-2.1113c-0.42811-0.15066-0.89478-0.1498-1.3223 0zm0.66016 1.8867 6 2.1094v6.1758c0 1.4849-0.54032 2.9012-1.4922 3.998-0.45237 0.52196-1.0557 0.95825-1.7324 1.3242l-2.7695 1.498-2.7773-1.498c-0.67823-0.36634-1.2816-0.80185-1.7344-1.3242a1.0001 1.0001 0 0 0 0-2e-3c-0.95279-1.0969-1.4941-2.5137-1.4941-4v-6.1719z" fill="currentColor"/>
  <path class="ColorScheme-Text" d="m11 7c-0.25516 0-0.5113 0.097795-0.70703 0.29297-3.48e-4 3.471e-4 -0.001606-3.478e-4 -0.001953 0l-2.8281 2.8301c-0.39174 0.39174-0.39174 1.0223 0 1.4141 0.39174 0.39174 1.0223 0.39174 1.4141 0l1.123-1.123v2.5859c0 0.554 0.446 1 1 1s1-0.446 1-1v-2.584l1.1211 1.1211c0.39174 0.39174 1.0223 0.39174 1.4141 0 0.39174-0.39174 0.39174-1.0223 0-1.4141l-2.8281-2.8301c-0.19587-0.19587-0.45141-0.29297-0.70703-0.29297z" fill="currentColor"/>
 </g>
 <g id="22-22-pamac-tray-update" transform="translate(-17)">
  <rect x="55" width="22" height="22" opacity="0"/>
  <path class="ColorScheme-Text" d="m66 1.3789c-0.22362 1.079e-4 -0.44641 0.038381-0.66016 0.11328l-6.0059 2.1113v-0.00195c-0.79604 0.2787-1.334 1.0399-1.334 1.8828v6.1758c0 1.9712 0.71888 3.8529 1.9844 5.3105 0.66397 0.76596 1.4731 1.3315 2.2949 1.7754l3.252 1.7539a1.0001 1.0001 0 0 0 0.94922 0l1.9121-1.0332a3 3 0 0 1-0.39258-1.4668 3 3 0 0 1 0.07617-0.63477l-2.0703 1.1191-2.7773-1.498c-0.67823-0.36634-1.2816-0.80185-1.7344-1.3242a1.0001 1.0001 0 0 0 0-2e-3c-0.95279-1.0969-1.4941-2.5137-1.4941-4v-6.1719l6-2.1094 6 2.1094v6.1758c0 1.2026-0.35962 2.3566-1 3.3359a3 3 0 0 1 1.9219 0.69922c0.69614-1.2121 1.0781-2.5995 1.0781-4.0352v-6.1797c0-0.84289-0.53795-1.6041-1.334-1.8828v0.00195l-6.0039-2.1113c-0.21405-0.075332-0.43849-0.11339-0.66211-0.11328z" fill="currentColor"/>
  <path class="ColorScheme-Text" d="m66 7c-0.25516 0-0.5113 0.097795-0.70703 0.29297-3.48e-4 3.471e-4 -0.0016-3.478e-4 -2e-3 0l-2.8281 2.8301c-0.39174 0.39174-0.39174 1.0223 0 1.4141 0.39174 0.39174 1.0223 0.39174 1.4141 0l1.123-1.123v2.5859c0 0.554 0.446 1 1 1s1-0.446 1-1v-2.584l1.1211 1.1211c0.39174 0.39174 1.0223 0.39174 1.4141 0 0.39174-0.39174 0.39174-1.0223 0-1.4141l-2.8281-2.8301c-0.19587-0.19587-0.45141-0.29297-0.70703-0.29297z" fill="currentColor"/>
  <circle class="ColorScheme-Highlight" cx="71" cy="18" r="2" fill="currentColor"/>
 </g>
 <g id="pamac-tray-update">
  <rect x="39" y="30.051" width="32" height="32" rx="0" ry="0" fill="none" stop-color="#000000" style="paint-order:stroke fill markers"/>
  <path class="ColorScheme-Text" d="m54.979 34.279c-0.25527-3.87e-4 -0.51161 0.04138-0.75586 0.12695a1.0001 1.0001 0 0 0 0 2e-3l-7.7227 2.7128c-0.90911 0.31903-1.5234 1.1854-1.5234 2.1484v7.9414c0 2.4648 0.89839 4.8182 2.4805 6.6406 0.82351 0.95 1.835 1.6572 2.8711 2.2168l4.1816 2.2559a1.0001 1.0001 0 0 0 0.94922 0l3.2344-1.7461a3.5 3.5 0 0 1-0.68164-1.9062l-3.0273 1.6367-3.7051-2h-2e-3c-0.8918-0.48193-1.6965-1.0596-2.3085-1.7656a1.0001 1.0001 0 0 0 0-2e-3c-1.2698-1.4618-1.9922-3.3498-1.9922-5.33v-7.9414c0-0.1227 0.07022-0.22134 0.18555-0.26172a1.0001 1.0001 0 0 0 2e-3 0l7.7207-2.7129c0.06051-0.02121 0.12579-0.02034 0.18359 0l7.7227 2.7129c0.11533 0.04038 0.18555 0.13902 0.18555 0.26172v7.9453c0 1.3527-0.33541 2.6634-0.95312 3.8242a3.5 3.5 0 0 1 1.8086 0.85156c0.74115-1.4253 1.1445-3.0252 1.1445-4.6758v-7.9453c0-0.96359-0.61348-1.8298-1.5234-2.1484l-7.7207-2.7129c-0.24443-0.08603-0.49863-0.12852-0.75391-0.12891z" fill="currentColor"/>
  <path class="ColorScheme-Text" d="m54.977 41c-0.25516 0-0.5113 0.09779-0.70703 0.29297-3.48e-4 3.47e-4 -0.0016-3.48e-4 -2e-3 0l-2.8281 2.8301c-0.39174 0.39174-0.39174 1.0223 0 1.4141 0.39174 0.39174 1.0223 0.39174 1.4141 0l1.1231-1.123v5.5859c0 0.554 0.446 1 1 1s1-0.446 1-1v-5.584l1.1211 1.1211c0.39174 0.39174 1.0223 0.39174 1.4141 0 0.39174-0.39174 0.39174-1.0223 0-1.4141l-2.8281-2.8301c-0.19587-0.19587-0.45141-0.29297-0.70703-0.29297z" fill="currentColor"/>
  <circle class="ColorScheme-Highlight" cx="61.5" cy="54.5" r="2.5" fill="currentColor" stroke-width="1.25"/>
 </g>
</svg>
