<?xml version="1.0" encoding="UTF-8" standalone="no"?>
<svg
   id="svg"
   version="1.1"
   viewBox="0 0 22 22"
   sodipodi:docname="preferences.svg"
   inkscape:version="1.2 (dc2aedaf03, 2022-05-15)"
   xmlns:inkscape="http://www.inkscape.org/namespaces/inkscape"
   xmlns:sodipodi="http://sodipodi.sourceforge.net/DTD/sodipodi-0.dtd"
   xmlns="http://www.w3.org/2000/svg"
   xmlns:svg="http://www.w3.org/2000/svg">
  <sodipodi:namedview
     id="namedview8626"
     pagecolor="#ffffff"
     bordercolor="#666666"
     borderopacity="1.0"
     inkscape:showpageshadow="2"
     inkscape:pageopacity="0.0"
     inkscape:pagecheckerboard="0"
     inkscape:deskcolor="#d1d1d1"
     showgrid="true"
     inkscape:zoom="7.5853273"
     inkscape:cx="80.747999"
     inkscape:cy="17.599768"
     inkscape:window-width="1920"
     inkscape:window-height="1004"
     inkscape:window-x="0"
     inkscape:window-y="0"
     inkscape:window-maximized="1"
     inkscape:current-layer="svg">
    <inkscape:grid
       type="xygrid"
       id="grid8745" />
  </sodipodi:namedview>
  <defs
     id="defs8507">
    <style
       id="current-color-scheme"
       type="text/css">.ColorScheme-Text { color:#dedede; } .ColorScheme-Highlight { color:#5294e2; } .ColorScheme-ButtonBackground { color:#dedede; }</style>
  </defs>
  <g
     id="22-22-preferences-desktop-notification"
     transform="translate(25 -39.788)">
    <rect
       y="40"
       width="22"
       height="22"
       opacity="0"
       id="rect8509" />
    <path
       class="ColorScheme-Highlight"
       d="m11 41.788c-4.9706 0-9 4.0294-9 9s4.0294 9 9 9 9-4.0294 9-9-4.0294-9-9-9z"
       color="#5294e2"
       fill="currentColor"
       id="path8511" />
    <path
       class="ColorScheme-Text"
       d="m10 46.788v6h2v-6zm1 7c-0.45315 0-1 0.51843-1 0.98047s0.54685 1.0195 1 1.0195 1-0.55749 1-1.0195c0-0.46204-0.54685-0.98047-1-0.98047z"
       color="#dedede"
       fill="#fff"
       id="path8513" />
  </g>
  <g
     id="22-22-preferences-desktop-display-randr">
    <rect
       transform="scale(-1,1)"
       x="-22"
       width="22"
       height="22"
       color="#bebebe"
       opacity="0"
       stroke-width="2"
       id="rect8516" />
    <g
       fill="#dedede"
       id="g8524">
      <path
         d="m3 3c-1.108 0-2 0.892-2 2v11c0 1.108 0.892 2 2 2h16c1.108 0 2-0.892 2-2v-11c0-1.108-0.892-2-2-2zm0 1h16c0.554 0 1 0.446 1 1v11c0 0.554-0.446 1-1 1h-16c-0.554 0-1-0.446-1-1v-11c0-0.554 0.446-1 1-1z"
         id="path8518" />
      <rect
         x="5"
         y="19"
         width="12"
         height="1"
         rx="0"
         ry=".5"
         id="rect8520" />
      <rect
         x="2"
         y="4"
         width="18"
         height="13"
         rx="1"
         ry="0"
         opacity=".35"
         id="rect8522" />
    </g>
  </g>
  <g
     id="22-22-preferences-system-bluetooth"
     transform="translate(-57,27)">
    <rect
       x="56"
       width="22"
       height="22"
       opacity="0"
       id="rect8527" />
    <path
       class="ColorScheme-Text"
       d="m66.5 3c-3.047 0-5.5 2.676-5.5 6v4c0 3.324 2.453 6 5.5 6s5.5-2.676 5.5-6v-4c0-3.324-2.453-6-5.5-6zm-0.5 2h0.5c0.20775 0 0.39305 0.13292 0.46875 0.3125l2.875 2.8438 0.40625 0.375-0.4375 0.34375-2.5625 2.125 2.5625 2.125 0.4375 0.34375-0.40625 0.375-2.875 2.8438c-0.0252 0.0599-0.0798 0.11106-0.125 0.15625-0.0904 0.0904-0.20525 0.15625-0.34375 0.15625h-0.5v-4.9375l-2.1562 1.7812c-0.0905 0.0905-0.20568 0.15625-0.34375 0.15625h-0.5v-0.5c0-0.15322 0.079-0.28328 0.1875-0.375l2.5625-2.125-2.4375-2.0312c-0.0467-0.0197-0.0868-0.0615-0.125-0.0937-0.10854-0.0917-0.1875-0.22178-0.1875-0.375v-0.5h0.5c0.12292 0 0.22543 0.0514 0.3125 0.125 0.0107 9e-3 0.0213 0.0213 0.0312 0.0312l2.1562 1.7812v-4.9375zm1 1.6875v3.25l1.7812-1.4688zm0 5.375v3.25l1.7812-1.7812z"
       color="#dedede"
       fill="currentColor"
       id="path8529" />
  </g>
  <g
     id="22-22-preferences-system-bluetooth-inactive"
     transform="translate(-57,77)"
     opacity=".35">
    <rect
       x="56"
       width="22"
       height="22"
       opacity="0"
       id="rect8532" />
    <path
       class="ColorScheme-Text"
       d="m66.5 3c-3.047 0-5.5 2.676-5.5 6v4c0 3.324 2.453 6 5.5 6s5.5-2.676 5.5-6v-4c0-3.324-2.453-6-5.5-6zm-0.5 2h0.5c0.20775 0 0.39305 0.13292 0.46875 0.3125l2.875 2.8438 0.40625 0.375-0.4375 0.34375-2.5625 2.125 2.5625 2.125 0.4375 0.34375-0.40625 0.375-2.875 2.8438c-0.0252 0.0599-0.0798 0.11106-0.125 0.15625-0.0904 0.0904-0.20525 0.15625-0.34375 0.15625h-0.5v-4.9375l-2.1562 1.7812c-0.0905 0.0905-0.20568 0.15625-0.34375 0.15625h-0.5v-0.5c0-0.15322 0.079-0.28328 0.1875-0.375l2.5625-2.125-2.4375-2.0312c-0.0467-0.0197-0.0868-0.0615-0.125-0.0937-0.10854-0.0917-0.1875-0.22178-0.1875-0.375v-0.5h0.5c0.12292 0 0.22543 0.0514 0.3125 0.125 0.0107 9e-3 0.0213 0.0213 0.0312 0.0312l2.1562 1.7812v-4.9375zm1 1.6875v3.25l1.7812-1.4688zm0 5.375v3.25l1.7812-1.7812z"
       color="#dedede"
       fill="currentColor"
       id="path8534" />
  </g>
  <g
     id="22-22-preferences-system-bluetooth-activated"
     transform="translate(6 -12.062)">
    <rect
       x="-6"
       y="65"
       width="22"
       height="22"
       opacity="0"
       id="rect8537" />
    <path
       d="m4.5 68c-3.047 0-5.5 2.676-5.5 6v4c0 3.324 2.453 6 5.5 6s5.5-2.676 5.5-6v-4c0-1.1431-0.29618-2.2059-0.80078-3.1133a3 3 0 0 1-2.1133-2.1836c-0.77051-0.44702-1.6491-0.70312-2.5859-0.70312zm-0.5 2h0.5c0.20775 0 0.39305 0.13292 0.46875 0.3125l2.875 2.8438 0.40625 0.375-0.4375 0.34375-2.5625 2.125 2.5625 2.125 0.4375 0.34375-0.40625 0.375-2.875 2.8438c-0.0252 0.0599-0.0798 0.11106-0.125 0.15625-0.0904 0.0904-0.20525 0.15625-0.34375 0.15625h-0.5v-4.9375l-2.1562 1.7812c-0.0905 0.0905-0.20568 0.15625-0.34375 0.15625h-0.5v-0.5c0-0.15322 0.079-0.28328 0.1875-0.375l2.5625-2.125-2.4375-2.0312c-0.0467-0.0197-0.0868-0.06155-0.125-0.09375-0.10854-0.0917-0.1875-0.22178-0.1875-0.375v-0.5h0.5c0.12292 0 0.22543 0.0514 0.3125 0.125 0.0107 9e-3 0.02135 0.02135 0.03125 0.03125l2.1562 1.7812v-4.4375zm1 1.6875v3.25l1.7812-1.4688zm0 5.375v3.25l1.7812-1.7812z"
       color="#dedede"
       fill="currentColor"
       id="path8539" />
    <circle
       cx="10"
       cy="68"
       r="2"
       fill="#5294e2"
       id="circle8541" />
  </g>
  <g
     id="16-16-preferences-system-bluetooth"
     transform="translate(-.50847 -6.6741)">
    <path
       class="ColorScheme-Text"
       d="m39.008 35.674c-3.047 0-5.5 2.676-5.5 6v4c0 3.324 2.453 6 5.5 6s5.5-2.676 5.5-6v-4c0-3.324-2.453-6-5.5-6zm-0.5 2h0.5c0.20775 0 0.39305 0.13292 0.46875 0.3125l2.875 2.8438 0.40625 0.375-0.4375 0.34375-2.5625 2.125 2.5625 2.125 0.4375 0.34375-0.40625 0.375-2.875 2.8438c-0.0252 0.0599-0.0798 0.11106-0.125 0.15625-0.0904 0.0904-0.20525 0.15625-0.34375 0.15625h-0.5v-4.9375l-2.1562 1.7812c-0.0905 0.0905-0.20568 0.15625-0.34375 0.15625h-0.5v-0.5c0-0.15322 0.079-0.28328 0.1875-0.375l2.5625-2.125-2.4375-2.0312c-0.0467-0.0197-0.0868-0.0615-0.125-0.0937-0.10854-0.0917-0.1875-0.22178-0.1875-0.375v-0.5h0.5c0.12292 0 0.22543 0.0514 0.3125 0.125 0.0107 9e-3 0.0213 0.0213 0.0312 0.0312l2.1562 1.7812v-4.9375zm1 1.6875v3.25l1.7812-1.4688zm0 5.375v3.25l1.7812-1.7812z"
       color="#dedede"
       fill="currentColor"
       id="path8544" />
    <rect
       x="31.508"
       y="35.674"
       width="16"
       height="16"
       ry=".28212"
       opacity="0"
       stroke-width="1.4354"
       style="paint-order:stroke fill markers"
       id="rect8546" />
  </g>
  <g
     id="16-16-preferences-system-bluetooth-activated">
    <path
       d="m38.5 54c-3.047 0-5.5 2.676-5.5 6v4c0 3.324 2.453 6 5.5 6s5.5-2.676 5.5-6v-4c0-0.34286-0.03187-0.67706-0.08203-1.0039a3 3 0 0 1-2.918-2.9961 3 3 0 0 1 0.25-1.1953c-0.80877-0.50899-1.7455-0.80469-2.75-0.80469zm-0.5 2h0.5c0.20775 0 0.39305 0.13292 0.46875 0.3125l2.875 2.8438 0.40625 0.375-0.4375 0.34375-2.5625 2.125 2.5625 2.125 0.4375 0.34375-0.40625 0.375-2.875 2.8438c-0.0252 0.0599-0.0798 0.11106-0.125 0.15625-0.0904 0.0904-0.20525 0.15625-0.34375 0.15625h-0.5v-4.9375l-2.1562 1.7812c-0.0905 0.0905-0.20568 0.15625-0.34375 0.15625h-0.5v-0.5c0-0.15322 0.079-0.28328 0.1875-0.375l2.5625-2.125-2.4375-2.0312c-0.0467-0.0197-0.0868-0.06155-0.125-0.09375-0.10854-0.0917-0.1875-0.22178-0.1875-0.375v-0.5h0.5c0.12292 0 0.22543 0.0514 0.3125 0.125 0.0107 9e-3 0.02135 0.02135 0.03125 0.03125l2.1562 1.7812v-4.4375zm1 1.6875v3.25l1.7812-1.4688zm0 5.375v3.25l1.7812-1.7812z"
       color="#dedede"
       fill="currentColor"
       id="path8549" />
    <rect
       x="31"
       y="54"
       width="16"
       height="16"
       ry=".28212"
       opacity="0"
       stroke-width="1.4354"
       style="paint-order:stroke fill markers"
       id="rect8551" />
    <circle
       cx="44"
       cy="56"
       r="2"
       fill="#5294e2"
       id="circle8553" />
  </g>
  <g
     id="16-16-preferences-system-bluetooth-inactive"
     transform="translate(-.50847 44.326)"
     opacity=".35">
    <path
       class="ColorScheme-Text"
       d="m39.008 35.674c-3.047 0-5.5 2.676-5.5 6v4c0 3.324 2.453 6 5.5 6s5.5-2.676 5.5-6v-4c0-3.324-2.453-6-5.5-6zm-0.5 2h0.5c0.20775 0 0.39305 0.13292 0.46875 0.3125l2.875 2.8438 0.40625 0.375-0.4375 0.34375-2.5625 2.125 2.5625 2.125 0.4375 0.34375-0.40625 0.375-2.875 2.8438c-0.0252 0.0599-0.0798 0.11106-0.125 0.15625-0.0904 0.0904-0.20525 0.15625-0.34375 0.15625h-0.5v-4.9375l-2.1562 1.7812c-0.0905 0.0905-0.20568 0.15625-0.34375 0.15625h-0.5v-0.5c0-0.15322 0.079-0.28328 0.1875-0.375l2.5625-2.125-2.4375-2.0312c-0.0467-0.0197-0.0868-0.0615-0.125-0.0937-0.10854-0.0917-0.1875-0.22178-0.1875-0.375v-0.5h0.5c0.12292 0 0.22543 0.0514 0.3125 0.125 0.0107 9e-3 0.0213 0.0213 0.0312 0.0312l2.1562 1.7812v-4.9375zm1 1.6875v3.25l1.7812-1.4688zm0 5.375v3.25l1.7812-1.7812z"
       color="#dedede"
       fill="currentColor"
       id="path8556" />
    <rect
       x="31.508"
       y="35.674"
       width="16"
       height="16"
       ry=".28212"
       opacity="0"
       stroke-width="1.4354"
       style="paint-order:stroke fill markers"
       id="rect8558" />
  </g>
  <g
     id="preferences-desktop-display-randr">
    <rect
       transform="scale(-1,1)"
       x="-111"
       width="32"
       height="32"
       color="#bebebe"
       fill="none"
       stroke-width="1.4546"
       id="rect8561" />
    <g
       fill="#dedede"
       id="g8569">
      <rect
         x="86"
         y="27"
         width="18"
         height="2"
         rx="1"
         ry="1"
         id="rect8563"
         style="stroke-width:1.41421" />
      <path
         id="path8565"
         d="m 83,3 c -1.661998,0 -3,1.3380017 -3,3 v 16 c 0,1.661998 1.338002,3 3,3 h 24 c 1.662,0 3,-1.338002 3,-3 V 6 c 0,-1.6619983 -1.338,-3 -3,-3 z m 0,2 h 24 c 0.554,0 1,0.4460006 1,1 v 16 c 0,0.553999 -0.446,1 -1,1 H 83 c -0.553999,0 -1,-0.446001 -1,-1 V 6 c 0,-0.5539994 0.446001,-1 1,-1 z" />
      <rect
         x="82"
         y="5"
         width="26"
         height="18"
         rx="1"
         ry="1"
         opacity="0.35"
         id="rect8567" />
    </g>
  </g>
  <g
     id="16-16-preferences-desktop-display-randr">
    <rect
       transform="scale(-1,1)"
       x="25"
       width="16"
       height="16"
       color="#bebebe"
       opacity="0"
       stroke-width="1.4546"
       id="rect8572" />
    <g
       fill="#dedede"
       id="g8580">
      <rect
         x="-38"
         y="14"
         width="10"
         height="1"
         rx=".5"
         ry=".5"
         stroke-width=".91287"
         id="rect8574" />
      <path
         d="m-39 1c-1.108 0-2 0.892-2 2v8c0 1.108 0.892 2 2 2h12c1.108 0 2-0.892 2-2v-8c0-1.108-0.892-2-2-2h-12zm0 1h12c0.554 0 1 0.446 1 1v8c0 0.554-0.446 1-1 1h-12c-0.554 0-1-0.446-1-1v-8c0-0.554 0.446-1 1-1z"
         stroke-width=".90582"
         id="path8576" />
      <rect
         x="-40"
         y="2"
         width="14"
         height="10"
         rx="1"
         ry="1"
         opacity=".35"
         stroke-width=".77349"
         id="rect8578" />
    </g>
  </g>
  <g
     id="preferences-desktop-notification"
     transform="translate(25,5)"
     stroke-linecap="round"
     stroke-linejoin="round">
    <path
       transform="translate(0,-45)"
       d="m116 42c-7.732 0-14 6.268-14 14s6.268 14 14 14 14-6.268 14-14-6.268-14-14-14zm-1 6h2v12h-2zm0 14h2v2h-2z"
       fill="#5294e2"
       stroke-width="1.1417"
       id="path8583" />
    <rect
       x="100"
       y="-5"
       width="32"
       height="32"
       fill="none"
       stroke-width="1.6"
       id="rect8585" />
  </g>
  <g
     id="16-16-preferences-desktop-notification"
     transform="translate(36 -19.98)">
    <path
       class="ColorScheme-Highlight"
       d="m-70 43c-4.4183 0-8 3.5817-8 8s3.5817 8 8 8 8-3.5817 8-8-3.5817-8-8-8z"
       color="#5294e2"
       fill="currentColor"
       id="path8588" />
    <path
       class="ColorScheme-Text"
       d="m-71 47v6h2v-6zm1 7c-0.45315 0-1 0.51843-1 0.98047s0.54685 1.0195 1 1.0195 1-0.55749 1-1.0195c0-0.46204-0.54685-0.98047-1-0.98047z"
       color="#dedede"
       fill="#fff"
       fill-opacity=".94118"
       id="path8590" />
  </g>
  <g
     id="preferences-system-bluetooth"
     transform="translate(22.617 -51)">
    <rect
       x="94"
       y="100"
       width="32"
       height="32"
       rx="0"
       ry="0"
       fill="none"
       stroke-linecap="square"
       stroke-linejoin="round"
       stroke-width="1.4984"
       id="rect8593" />
    <path
       d="m110 103a1.0001 1.0001 0 0 0-1.0293 1l-2e-3 9.5859-5.293-5.293a1.0001 1.0001 0 0 0-0.0625-0.0566 1.0001 1.0001 0 0 0-0.13867-0.0957 1.0001 1.0001 0 0 0-0.23242-0.0957 1.0001 1.0001 0 0 0-0.082-0.0176 1.0001 1.0001 0 0 0-0.082-0.0117 1.0001 1.0001 0 0 0-0.084-6e-3 1.0001 1.0001 0 0 0-0.084 2e-3 1.0001 1.0001 0 0 0-0.24805 0.0488 1.0001 1.0001 0 0 0-0.0781 0.0312 1.0001 1.0001 0 0 0-0.0762 0.0351 1.0001 1.0001 0 0 0-0.0723 0.043 1.0001 1.0001 0 0 0-0.19141 0.16211 1.0001 1.0001 0 0 0-0.0547 0.0644 1.0001 1.0001 0 0 0-0.0488 0.0684 1.0001 1.0001 0 0 0-0.0801 0.14844 1.0001 1.0001 0 0 0-0.0293 0.0781 1.0001 1.0001 0 0 0-0.041 0.16406 1.0001 1.0001 0 0 0-0.01 0.082 1.0001 1.0001 0 0 0 0.0332 0.33398 1.0001 1.0001 0 0 0 0.14063 0.30469 1.0001 1.0001 0 0 0 0.0508 0.0664 1.0001 1.0001 0 0 0 0.0547 0.0625 1.0001 1.0001 0 0 0 2e-3 2e-3l6.293 6.2932-6.293 6.293a1.0001 1.0001 0 0 0-0.10742 0.12891 1.0001 1.0001 0 0 0-0.0449 0.0723 1.0001 1.0001 0 0 0-0.0371 0.0742 1.0001 1.0001 0 0 0-0.0586 0.1582 1.0001 1.0001 0 0 0-0.0176 0.082 1.0001 1.0001 0 0 0-0.0117 0.082 1.0001 1.0001 0 0 0-6e-3 0.084 1.0001 1.0001 0 0 0 2e-3 0.084 1.0001 1.0001 0 0 0 0.0254 0.16602 1.0001 1.0001 0 0 0 0.0234 0.082 1.0001 1.0001 0 0 0 0.0312 0.0781 1.0001 1.0001 0 0 0 0.0781 0.14843 1.0001 1.0001 0 0 0 0.29492 0.29492 1.0001 1.0001 0 0 0 0.0723 0.043 1.0001 1.0001 0 0 0 0.0762 0.0371 1.0001 1.0001 0 0 0 0.0781 0.0293 1.0001 1.0001 0 0 0 0.33008 0.0527 1.0001 1.0001 0 0 0 0.16797-0.0156 1.0001 1.0001 0 0 0 0.31445-0.11523 1.0001 1.0001 0 0 0 0.13867-0.0957 1.0001 1.0001 0 0 0 0.0625-0.0547 1.0001 1.0001 0 0 0 2e-3 -2e-3l5.2933-5.2929v9.5859a1.0001 1.0001 0 0 0 1.707 0.70703l6-6a1.0001 1.0001 0 0 0 0-1.4141l-5.293-5.293 5.293-5.293a1.0001 1.0001 0 0 0 0-1.4141l-5.998-6a1.0001 1.0001 0 0 0-0.67773-0.29297zm0.9707 3.4141 3.584 3.5859-3.5859 3.5859zm-2e-3 12 3.586 3.5859-3.5859 3.5859z"
       fill="#dedede"
       id="path8595" />
  </g>
  <g
     id="preferences-system-bluetooth-activated"
     transform="translate(22.617 -51)">
    <rect
       x="142"
       y="100"
       width="32"
       height="32"
       rx="0"
       ry="0"
       fill="none"
       stroke-linecap="square"
       stroke-linejoin="round"
       stroke-width="1.4984"
       id="rect8598" />
    <g
       fill="#dedede"
       id="g8612">
      <path
         d="m158 103a1.0001 1.0001 0 0 0-1.0293 1l-2e-3 9.5859-5.293-5.293a1.0001 1.0001 0 0 0-0.0625-0.0566 1.0001 1.0001 0 0 0-0.13867-0.0957 1.0001 1.0001 0 0 0-0.23242-0.0957 1.0001 1.0001 0 0 0-0.082-0.0176 1.0001 1.0001 0 0 0-0.082-0.0117 1.0001 1.0001 0 0 0-0.084-6e-3 1.0001 1.0001 0 0 0-0.084 2e-3 1.0001 1.0001 0 0 0-0.24805 0.0488 1.0001 1.0001 0 0 0-0.0781 0.0312 1.0001 1.0001 0 0 0-0.0762 0.0351 1.0001 1.0001 0 0 0-0.0723 0.043 1.0001 1.0001 0 0 0-0.19141 0.16211 1.0001 1.0001 0 0 0-0.0547 0.0644 1.0001 1.0001 0 0 0-0.0488 0.0684 1.0001 1.0001 0 0 0-0.0801 0.14844 1.0001 1.0001 0 0 0-0.0293 0.0781 1.0001 1.0001 0 0 0-0.041 0.16406 1.0001 1.0001 0 0 0-0.01 0.082 1.0001 1.0001 0 0 0 0.0332 0.33398 1.0001 1.0001 0 0 0 0.14063 0.30469 1.0001 1.0001 0 0 0 0.0508 0.0664 1.0001 1.0001 0 0 0 0.0547 0.0625 1.0001 1.0001 0 0 0 2e-3 2e-3l6.293 6.2932-6.293 6.293a1.0001 1.0001 0 0 0-0.10742 0.12891 1.0001 1.0001 0 0 0-0.0449 0.0723 1.0001 1.0001 0 0 0-0.0371 0.0742 1.0001 1.0001 0 0 0-0.0586 0.1582 1.0001 1.0001 0 0 0-0.0176 0.082 1.0001 1.0001 0 0 0-0.0117 0.082 1.0001 1.0001 0 0 0-6e-3 0.084 1.0001 1.0001 0 0 0 2e-3 0.084 1.0001 1.0001 0 0 0 0.0254 0.16602 1.0001 1.0001 0 0 0 0.0234 0.082 1.0001 1.0001 0 0 0 0.0312 0.0781 1.0001 1.0001 0 0 0 0.0781 0.14843 1.0001 1.0001 0 0 0 0.29492 0.29492 1.0001 1.0001 0 0 0 0.0723 0.043 1.0001 1.0001 0 0 0 0.0762 0.0371 1.0001 1.0001 0 0 0 0.0781 0.0293 1.0001 1.0001 0 0 0 0.33008 0.0527 1.0001 1.0001 0 0 0 0.16797-0.0156 1.0001 1.0001 0 0 0 0.31445-0.11523 1.0001 1.0001 0 0 0 0.13867-0.0957 1.0001 1.0001 0 0 0 0.0625-0.0547 1.0001 1.0001 0 0 0 2e-3 -2e-3l5.2933-5.2929v9.5859a1.0001 1.0001 0 0 0 1.707 0.70703l6-6a1.0001 1.0001 0 0 0 0-1.4141l-5.293-5.293 5.293-5.293a1.0001 1.0001 0 0 0 0-1.4141l-5.998-6a1.0001 1.0001 0 0 0-0.67773-0.29297zm0.9707 3.4141 3.584 3.5859-3.5859 3.5859zm-2e-3 12 3.586 3.5859-3.5859 3.5859z"
         id="path8600" />
      <g
         stroke-linecap="square"
         stroke-linejoin="round"
         stroke-width="2"
         id="g8610">
        <circle
           cx="145"
           cy="116"
           r="1"
           id="circle8602" />
        <circle
           cx="150"
           cy="116"
           r="1"
           id="circle8604" />
        <circle
           cx="166"
           cy="116"
           r="1"
           id="circle8606" />
        <circle
           cx="171"
           cy="116"
           r="1"
           id="circle8608" />
      </g>
    </g>
  </g>
  <g
     id="preferences-system-bluetooth-battery"
     transform="translate(22.617 -8.0007)">
    <rect
       x="94"
       y="100"
       width="32"
       height="32"
       rx="0"
       ry="0"
       fill="none"
       stroke-linecap="square"
       stroke-linejoin="round"
       stroke-width="1.4984"
       id="rect8615" />
    <path
       d="m110 103a1.0001 1.0001 0 0 0-1.0293 1l-2e-3 9.5859-5.293-5.293a1.0001 1.0001 0 0 0-0.0625-0.0566 1.0001 1.0001 0 0 0-0.13867-0.0957 1.0001 1.0001 0 0 0-0.23242-0.0957 1.0001 1.0001 0 0 0-0.082-0.0176 1.0001 1.0001 0 0 0-0.082-0.0117 1.0001 1.0001 0 0 0-0.084-6e-3 1.0001 1.0001 0 0 0-0.084 2e-3 1.0001 1.0001 0 0 0-0.24805 0.0488 1.0001 1.0001 0 0 0-0.0781 0.0312 1.0001 1.0001 0 0 0-0.0762 0.0351 1.0001 1.0001 0 0 0-0.0723 0.043 1.0001 1.0001 0 0 0-0.19141 0.16211 1.0001 1.0001 0 0 0-0.0547 0.0644 1.0001 1.0001 0 0 0-0.0488 0.0684 1.0001 1.0001 0 0 0-0.0801 0.14844 1.0001 1.0001 0 0 0-0.0293 0.0781 1.0001 1.0001 0 0 0-0.041 0.16406 1.0001 1.0001 0 0 0-0.01 0.082 1.0001 1.0001 0 0 0 0.0332 0.33398 1.0001 1.0001 0 0 0 0.14063 0.30469 1.0001 1.0001 0 0 0 0.0508 0.0664 1.0001 1.0001 0 0 0 0.0547 0.0625 1.0001 1.0001 0 0 0 2e-3 2e-3l6.293 6.2932-6.293 6.293a1.0001 1.0001 0 0 0-0.10742 0.12891 1.0001 1.0001 0 0 0-0.0449 0.0723 1.0001 1.0001 0 0 0-0.0371 0.0742 1.0001 1.0001 0 0 0-0.0586 0.1582 1.0001 1.0001 0 0 0-0.0176 0.082 1.0001 1.0001 0 0 0-0.0117 0.082 1.0001 1.0001 0 0 0-6e-3 0.084 1.0001 1.0001 0 0 0 2e-3 0.084 1.0001 1.0001 0 0 0 0.0254 0.16602 1.0001 1.0001 0 0 0 0.0234 0.082 1.0001 1.0001 0 0 0 0.0312 0.0781 1.0001 1.0001 0 0 0 0.0781 0.14843 1.0001 1.0001 0 0 0 0.29492 0.29492 1.0001 1.0001 0 0 0 0.0723 0.043 1.0001 1.0001 0 0 0 0.0762 0.0371 1.0001 1.0001 0 0 0 0.0781 0.0293 1.0001 1.0001 0 0 0 0.33008 0.0527 1.0001 1.0001 0 0 0 0.16797-0.0156 1.0001 1.0001 0 0 0 0.31445-0.11523 1.0001 1.0001 0 0 0 0.13867-0.0957 1.0001 1.0001 0 0 0 0.0625-0.0547 1.0001 1.0001 0 0 0 2e-3 -2e-3l5.2933-5.2929v9.5859a1.0001 1.0001 0 0 0 1.707 0.70703l6-6a1.0001 1.0001 0 0 0 0-1.4141l-5.293-5.293 5.293-5.293a1.0001 1.0001 0 0 0 0-1.4141l-5.998-6a1.0001 1.0001 0 0 0-0.67773-0.29297zm0.9707 3.4141 3.584 3.5859-3.5859 3.5859zm-2e-3 12 3.586 3.5859-3.5859 3.5859z"
       fill="#dedede"
       id="path8617" />
  </g>
  <g
     id="preferences-system-bluetooth-inactive"
     transform="translate(-21.383 -51)"
     opacity=".35">
    <rect
       x="94"
       y="100"
       width="32"
       height="32"
       rx="0"
       ry="0"
       fill="none"
       stroke-linecap="square"
       stroke-linejoin="round"
       stroke-width="1.4984"
       id="rect8620" />
    <path
       d="m110 103a1.0001 1.0001 0 0 0-1.0293 1l-2e-3 9.5859-5.293-5.293a1.0001 1.0001 0 0 0-0.0625-0.0566 1.0001 1.0001 0 0 0-0.13867-0.0957 1.0001 1.0001 0 0 0-0.23242-0.0957 1.0001 1.0001 0 0 0-0.082-0.0176 1.0001 1.0001 0 0 0-0.082-0.0117 1.0001 1.0001 0 0 0-0.084-6e-3 1.0001 1.0001 0 0 0-0.084 2e-3 1.0001 1.0001 0 0 0-0.24805 0.0488 1.0001 1.0001 0 0 0-0.0781 0.0312 1.0001 1.0001 0 0 0-0.0762 0.0351 1.0001 1.0001 0 0 0-0.0723 0.043 1.0001 1.0001 0 0 0-0.19141 0.16211 1.0001 1.0001 0 0 0-0.0547 0.0644 1.0001 1.0001 0 0 0-0.0488 0.0684 1.0001 1.0001 0 0 0-0.0801 0.14844 1.0001 1.0001 0 0 0-0.0293 0.0781 1.0001 1.0001 0 0 0-0.041 0.16406 1.0001 1.0001 0 0 0-0.01 0.082 1.0001 1.0001 0 0 0 0.0332 0.33398 1.0001 1.0001 0 0 0 0.14063 0.30469 1.0001 1.0001 0 0 0 0.0508 0.0664 1.0001 1.0001 0 0 0 0.0547 0.0625 1.0001 1.0001 0 0 0 2e-3 2e-3l6.293 6.2932-6.293 6.293a1.0001 1.0001 0 0 0-0.10742 0.12891 1.0001 1.0001 0 0 0-0.0449 0.0723 1.0001 1.0001 0 0 0-0.0371 0.0742 1.0001 1.0001 0 0 0-0.0586 0.1582 1.0001 1.0001 0 0 0-0.0176 0.082 1.0001 1.0001 0 0 0-0.0117 0.082 1.0001 1.0001 0 0 0-6e-3 0.084 1.0001 1.0001 0 0 0 2e-3 0.084 1.0001 1.0001 0 0 0 0.0254 0.16602 1.0001 1.0001 0 0 0 0.0234 0.082 1.0001 1.0001 0 0 0 0.0312 0.0781 1.0001 1.0001 0 0 0 0.0781 0.14843 1.0001 1.0001 0 0 0 0.29492 0.29492 1.0001 1.0001 0 0 0 0.0723 0.043 1.0001 1.0001 0 0 0 0.0762 0.0371 1.0001 1.0001 0 0 0 0.0781 0.0293 1.0001 1.0001 0 0 0 0.33008 0.0527 1.0001 1.0001 0 0 0 0.16797-0.0156 1.0001 1.0001 0 0 0 0.31445-0.11523 1.0001 1.0001 0 0 0 0.13867-0.0957 1.0001 1.0001 0 0 0 0.0625-0.0547 1.0001 1.0001 0 0 0 2e-3 -2e-3l5.2933-5.2929v9.5859a1.0001 1.0001 0 0 0 1.707 0.70703l6-6a1.0001 1.0001 0 0 0 0-1.4141l-5.293-5.293 5.293-5.293a1.0001 1.0001 0 0 0 0-1.4141l-5.998-6a1.0001 1.0001 0 0 0-0.67773-0.29297zm0.9707 3.4141 3.584 3.5859-3.5859 3.5859zm-2e-3 12 3.586 3.5859-3.5859 3.5859z"
       fill="#dedede"
       id="path8622" />
  </g>
</svg>
