<?xml version="1.0" encoding="UTF-8" standalone="no"?>
<svg
   width="16"
   height="16"
   version="1.1"
   id="svg642"
   sodipodi:docname="redshift.svg"
   inkscape:version="1.2.2 (b0a8486541, 2022-12-01)"
   xmlns:inkscape="http://www.inkscape.org/namespaces/inkscape"
   xmlns:sodipodi="http://sodipodi.sourceforge.net/DTD/sodipodi-0.dtd"
   xmlns:xlink="http://www.w3.org/1999/xlink"
   xmlns="http://www.w3.org/2000/svg"
   xmlns:svg="http://www.w3.org/2000/svg">
  <sodipodi:namedview
     id="namedview644"
     pagecolor="#ffffff"
     bordercolor="#666666"
     borderopacity="1.0"
     inkscape:showpageshadow="2"
     inkscape:pageopacity="0.0"
     inkscape:pagecheckerboard="0"
     inkscape:deskcolor="#d1d1d1"
     showgrid="false"
     inkscape:zoom="14.75"
     inkscape:cx="-10.677966"
     inkscape:cy="7.9322034"
     inkscape:window-width="1158"
     inkscape:window-height="505"
     inkscape:window-x="839"
     inkscape:window-y="808"
     inkscape:window-maximized="0"
     inkscape:current-layer="redshift-status-on" />
  <defs
     id="defs624">
    <style
       id="current-color-scheme"
       type="text/css">.ColorScheme-Text { color:#363636; } .ColorScheme-Highlight { color:#4285f4; } .ColorScheme-NeutralText { color:#ff9800; } .ColorScheme-PositiveText { color:#4caf50; } .ColorScheme-NegativeText { color:#f44336; }</style>
  </defs>
  <g
     id="22-22-redshift-status-on">
    <rect
       x="-3"
       y="-3"
       width="22"
       height="22"
       rx="0"
       ry="0"
       fill="none"
       id="rect626" />
    <path
       class="ColorScheme-Text"
       d="m8 0c-2.84 0-5.14 2.31-5.14 5.16 0 1.68 0.79 3.16 2.04 4.1 0.57 0.43 1.05 0.99 1.05 1.76l0.05 0.98h4l0.06-0.98c0.04-0.77 0.47-1.33 1.04-1.76 1.25-0.94 2.04-2.42 2.04-4.1 0-2.85-2.3-5.16-5.14-5.16zm0 2.06c1.7 0 3.09 1.39 3.09 3.1 0 0.97-0.45 1.87-1.23 2.45-1.16 0.88-1.6 1.86-1.76 2.68h-0.2c-0.16-0.82-0.6-1.8-1.76-2.68-0.78-0.58-1.23-1.48-1.23-2.45 0-1.71 1.39-3.1 3.09-3.1z"
       fill="currentColor"
       id="path628" />
    <path
       class="ColorScheme-Text"
       d="m6 13v1h4v-1zm1 2v1h2v-1z"
       fill="currentColor"
       id="path630" />
  </g>
  <use
     id="22-22-redshift-status-off"
     transform="translate(0,30)"
     width="100%"
     height="100%"
     opacity=".35"
     xlink:href="#22-22-redshift-status-on" />
  <g
     id="redshift-status-on">
    <rect
       x="23"
       y="-5"
       width="32"
       height="32"
       rx="0"
       ry="0"
       fill="none"
       id="rect12" />
    <path
       id="path14"
       class="ColorScheme-Text"
       d="m 39,-1 c -4.452319,0 -8,3.3843308 -8,7.4492188 0,2.3927928 1.205695,4.5368002 3.146484,5.9042972 0.38593,0.272797 0.774364,0.551176 1.023438,0.808593 0.249371,0.25773 0.333984,0.441972 0.333984,0.613282 v 0.02344 L 36,16 h 2 V 8.4140625 L 35.292969,5.7070312 36.707031,4.2929688 39,6.5859375 41.292969,4.2929688 42.707031,5.7070312 40,8.4140625 V 16 h 2 l 0.505859,-2.171875 v -0.0039 c 0.02264,-0.408289 0.600903,-0.94273 1.347657,-1.470703 h 0.002 C 45.795472,10.985972 47,8.8413835 47,6.4492188 47,2.3843308 43.452319,-1 39,-1 Z"
       fill="currentColor" />
    <path
       class="ColorScheme-Text"
       d="m 36,17 v 2 c 0,0.554 0.446,1 1,1 h 4 c 0.554,0 1,-0.446 1,-1 v -2 h -5 z m 1,4.00003 V 23.0098 C 37,23.55784 37.446,24 38,24 h 2 c 0.554,0 1,-0.44216 1,-0.99023 V 21 h -3 z"
       fill="currentColor"
       id="path16" />
  </g>
  <use
     id="redshift-status-off"
     transform="translate(33.055)"
     width="100%"
     height="100%"
     opacity="0.35"
     xlink:href="#redshift-status-on" />
</svg>
