<?xml version="1.0" encoding="UTF-8" standalone="no"?>
<svg
   width="32"
   height="32"
   version="1.1"
   viewBox="0 0 32 32"
   id="svg85"
   sodipodi:docname="system.svg"
   inkscape:version="1.1.1 (3bf5ae0d25, 2021-09-20, custom)"
   xmlns:inkscape="http://www.inkscape.org/namespaces/inkscape"
   xmlns:sodipodi="http://sodipodi.sourceforge.net/DTD/sodipodi-0.dtd"
   xmlns="http://www.w3.org/2000/svg"
   xmlns:svg="http://www.w3.org/2000/svg">
  <sodipodi:namedview
     id="namedview87"
     pagecolor="#ffffff"
     bordercolor="#666666"
     borderopacity="1.0"
     inkscape:pageshadow="2"
     inkscape:pageopacity="0.0"
     inkscape:pagecheckerboard="0"
     showgrid="false"
     inkscape:zoom="2.0439805"
     inkscape:cx="15.166485"
     inkscape:cy="6.1155181"
     inkscape:window-width="1920"
     inkscape:window-height="979"
     inkscape:window-x="0"
     inkscape:window-y="28"
     inkscape:window-maximized="1"
     inkscape:current-layer="svg85" />
  <defs
     id="defs7">
    <style
       id="current-color-scheme"
       type="text/css">.ColorScheme-Text { color:#333333; } .ColorScheme-Highlight { color:#5294e2; } .ColorScheme-ButtonBackground { color:#333333; }</style>
    <style
       type="text/css"
       id="style3" />
    <style
       type="text/css"
       id="style5" />
  </defs>
  <g
     id="system-suspend">
    <rect
       x="-80"
       y="-1.8859e-7"
       width="32"
       height="32"
       rx="0"
       ry="0"
       opacity="0"
       stroke-width="2"
       style="paint-order:fill markers stroke"
       id="rect50" />
    <path
       d="m-64 1a15 15 0 0 0-15 15 15 15 0 0 0 15 15 15 15 0 0 0 15-15 15 15 0 0 0-15-15zm0 6a9 9 0 0 1 9 9 9 9 0 0 1-9 9 9 9 0 0 1-9-9 9 9 0 0 1 9-9zm0 1a8 8 0 0 0-8 8 8 8 0 0 0 0.072266 1h15.857a8 8 0 0 0 0.070312-1 8 8 0 0 0-8-8zm-7.7402 10a8 8 0 0 0 7.7402 6 8 8 0 0 0 7.7344-6h-15.475z"
       opacity=".5"
       style="paint-order:stroke fill markers"
       id="path52" />
  </g>
  <g
     id="system-log-out">
    <circle
       cx="96"
       cy="16"
       r="16"
       opacity="0"
       stroke-width="2.3704"
       style="paint-order:stroke fill markers"
       id="circle55" />
    <path
       d="m96 1a15 15 0 0 0-15 15 15 15 0 0 0 15 15 15 15 0 0 0 15-15 15 15 0 0 0-15-15zm-6 6h10c1.0907 0 2 0.9093 2 2v2a0.5 0.5 0 0 1-0.5 0.5 0.5 0.5 0 0 1-0.5-0.5v-2c0-0.554-0.446-1-1-1h-10c-0.554 0-1 0.446-1 1v14c0 0.554 0.446 1 1 1h10c0.554 0 1-0.446 1-1v-3a0.5 0.5 0 0 1 0.5-0.5 0.5 0.5 0 0 1 0.5 0.5v3c0 1.0907-0.9093 2-2 2h-10c-1.0907 0-2-0.9093-2-2v-14c0-1.0907 0.9093-2 2-2zm13.379 5.877c0.12781 0 0.25558 0.0505 0.35351 0.14844l2.1211 2.1211c0.047 0.04701 0.0841 0.10324 0.10937 0.16602 0.049 0.12034 0.049 0.25466 0 0.375-0.0253 0.06278-0.0624 0.119-0.10937 0.16602l-2.1211 2.1211c-0.19587 0.19587-0.51116 0.19587-0.70703 0s-0.19587-0.51116 0-0.70703l1.2676-1.2676h-8.793c-0.277 0-0.5-0.223-0.5-0.5s0.223-0.5 0.5-0.5h8.793l-1.2676-1.2676c-0.19587-0.19587-0.19587-0.51116 0-0.70703 0.0979-0.09794 0.22571-0.14844 0.35352-0.14844z"
       color="#000000"
       opacity=".5"
       stroke-width="1.1429"
       id="path57" />
  </g>
  <g
     id="system-reboot">
    <rect
       x="-40"
       width="32"
       height="32"
       rx="0"
       ry="0"
       opacity="0"
       stroke-width="2"
       style="paint-order:fill markers stroke"
       id="rect60" />
    <path
       d="m-24 1a15 15 0 0 0-15 15 15 15 0 0 0 15 15 15 15 0 0 0 15-15 15 15 0 0 0-15-15zm3.7344 4.0625a0.5 0.5 0 0 1 0.4707 0.33203h0.003906l1.0371 3.8652-0.9668 0.25781-2.8379 0.76172a0.5 0.5 0 0 1-0.16016 0.025391 0.5 0.5 0 0 1-0.5-0.5 0.5 0.5 0 0 1 0.3418-0.47461v-0.0019531l2.1973-0.58789a8 8 0 0 0-3.3203-0.74023 8 8 0 0 0-8 8 8 8 0 0 0 8 8 8 8 0 0 0 8-8 8 8 0 0 0-0.48828-2.7324 0.5 0.5 0 0 1-0.044922-0.20898 0.5 0.5 0 0 1 0.5-0.5 0.5 0.5 0 0 1 0.48633 0.38867 9 9 0 0 1 0.54688 3.0527 9 9 0 0 1-9 9 9 9 0 0 1-9-9 9 9 0 0 1 9-9 9 9 0 0 1 3.8379 0.86719l-0.57422-2.1426a0.5 0.5 0 0 1-0.019531-0.070312 0.5 0.5 0 0 1-0.009766-0.091797 0.5 0.5 0 0 1 0.5-0.5z"
       opacity=".5"
       style="paint-order:stroke fill markers"
       id="path62" />
  </g>
  <g
     id="system-switch-user">
    <rect
       x="163"
       y="-1"
       width="32"
       height="32"
       rx="0"
       ry="0"
       opacity="0"
       stroke-width="2"
       style="paint-order:fill markers stroke"
       id="rect65" />
    <path
       d="m179 0a15 15 0 0 0-15 15 15 15 0 0 0 15 15 15 15 0 0 0 15-15 15 15 0 0 0-15-15zm3.5508 7.0488c0.12828 0 0.25558 0.04855 0.35352 0.14648l4.9492 4.9512c0.04697 0.047013 0.08407 0.10324 0.10937 0.16602 0.0245 0.06017 0.03711 0.12359 0.03711 0.1875 0 0.066453-0.01381 0.1296-0.03711 0.1875-0.02527 0.062778-0.06237 0.11901-0.10937 0.16602-0.04702 0.047015-0.10322 0.084075-0.16602 0.10938-0.06017 0.02448-0.1236 0.037109-0.1875 0.037109h-17c-0.277 0-0.5-0.223-0.5-0.5s0.223-0.5 0.5-0.5h15.793l-4.0977-4.0957c-0.19587-0.19587-0.19587-0.51312 0-0.70898 0.09794-0.097934 0.22719-0.14648 0.35547-0.14648zm-12.051 9.9512h17c0.277 0 0.5 0.223 0.5 0.5s-0.223 0.5-0.5 0.5h-15.793l4.0977 4.0957c0.19587 0.19587 0.19587 0.51312 0 0.70898-0.19587 0.19587-0.51312 0.19587-0.70899 0l-4.9492-4.9512c-0.04697-0.047013-0.08407-0.10324-0.10937-0.16602-0.0245-0.06017-0.03711-0.1236-0.03711-0.1875 0-0.066453 0.01381-0.1296 0.03711-0.1875 0.02527-0.062778 0.06237-0.11901 0.10937-0.16602 0.04702-0.047015 0.10322-0.084075 0.16602-0.10938 0.06017-0.02448 0.1236-0.037109 0.1875-0.037109z"
       opacity=".5"
       style="paint-order:stroke fill markers"
       id="path67" />
  </g>
  <g
     id="system-shutdown">
    <rect
       x="7.4506e-7"
       y="-4.3213e-7"
       width="32"
       height="32"
       rx="0"
       ry="0"
       opacity="0"
       stroke-width="2"
       style="paint-order:fill markers stroke"
       id="rect70" />
    <path
       d="m16 1a15 15 0 0 0-15 15 15 15 0 0 0 15 15 15 15 0 0 0 15-15 15 15 0 0 0-15-15zm0 4c0.554 0 1 0.446 1 1v8c0 0.554-0.446 1-1 1s-1-0.446-1-1v-8c0-0.554 0.446-1 1-1zm-5.2363 3.7832a0.5 0.5 0 0 1 0.005859 0 0.5 0.5 0 0 1 0.035157 0 0.5 0.5 0 0 1 0.5 0.5 0.5 0.5 0 0 1-0.25 0.43164 8 8 0 0 0-3.0547 6.2852 8 8 0 0 0 8 8 8 8 0 0 0 8-8 8 8 0 0 0-3.0938-6.3086l0.001953-0.0019531a0.5 0.5 0 0 1-0.20508-0.4043 0.5 0.5 0 0 1 0.5-0.5 0.5 0.5 0 0 1 0.31836 0.11523l0.001954-0.0019531a9 9 0 0 1 3.4766 7.1016 9 9 0 0 1-9 9 9 9 0 0 1-9-9 9 9 0 0 1 3.4531-7.0723 0.5 0.5 0 0 1 0.31055-0.14453z"
       opacity=".5"
       style="paint-order:stroke fill markers"
       id="path72" />
  </g>
  <g
     id="system-suspend-hibernate">
    <rect
       x="42"
       width="32"
       height="32"
       rx="0"
       ry="0"
       opacity="0"
       stroke-width="2"
       style="paint-order:fill markers stroke"
       id="rect75" />
    <path
       d="m57.646 1.0039a15 15 0 0 0-7.1465 2.0059 15 15 0 0 0-5.4902 20.49 15 15 0 0 0 20.49 5.4902 15 15 0 0 0 5.4902-20.49 15 15 0 0 0-13.344-7.4961zm-1.2773 6.1699a1.0001 1.0001 0 0 1 0.74805 1.666c-2.0169 2.2543-2.3583 5.5386-0.84961 8.1602 1.5139 2.6174 4.5262 3.964 7.4863 3.3477a1.0001 1.0001 0 0 1 0.95117 1.6445c-0.6339 0.71356-1.3762 1.3208-2.2012 1.8008a1.0001 1.0001 0 0 1-0.003906 0.001953c-4.2944 2.4794-9.8156 0.99945-12.295-3.2949s-0.99945-9.8156 3.2949-12.295a1.0001 1.0001 0 0 0 0.001953 0c0.83028-0.47674 1.7301-0.8189 2.668-1.0117a1.0001 1.0001 0 0 1 0.19922-0.019531zm0.003906 1a8 8 0 0 0-2.373 0.89844 8 8 0 0 0-2.9277 10.928 8 8 0 0 0 10.928 2.9277 8 8 0 0 0 1.957-1.6016 8 8 0 0 1-8.5547-3.8262 8 8 0 0 1 0.9707-9.3262zm4.127 0.82617h5c0.066453 0 0.1296 0.013774 0.1875 0.037109 0.062778 0.0253 0.119 0.062363 0.16602 0.10938 0.047012 0.047012 0.084075 0.10324 0.10938 0.16602 0.048967 0.12034 0.048967 0.25466 0 0.375-0.0253 0.062778-0.062363 0.119-0.10938 0.16602l-4.1465 4.1465h3.793c0.277 0 0.5 0.223 0.5 0.5s-0.223 0.5-0.5 0.5h-5c-0.066156 0-0.13135-0.012824-0.19336-0.039062h-0.001953c-0.059861-0.025237-0.11302-0.062235-0.1582-0.10742-0.046844-0.046845-0.082984-0.10096-0.10742-0.1582v-0.001953c-0.052478-0.12403-0.052478-0.26269 0-0.38672 0.025236-0.05986 0.062235-0.11497 0.10742-0.16016l4.1465-4.1465h-3.793c-0.277 0-0.5-0.223-0.5-0.5s0.223-0.5 0.5-0.5z"
       opacity=".5"
       style="paint-order:stroke fill markers"
       id="path77" />
  </g>
  <g
     id="system-lock-screen">
    <rect
       x="122"
       y="-1"
       width="32"
       height="32"
       rx="0"
       ry="0"
       opacity="0"
       stroke-width="2"
       style="paint-order:fill markers stroke"
       id="rect80" />
    <path
       d="m138 0a15 15 0 0 0-15 15 15 15 0 0 0 15 15 15 15 0 0 0 15-15 15 15 0 0 0-15-15zm0 5c2.77 0 5 2.23 5 5v3h1.7773c1.2311 0 2.2227 0.99154 2.2227 2.2227v5.5547c0 1.2311-0.99155 2.2227-2.2227 2.2227h-13.555c-1.2311 0-2.2227-0.99154-2.2227-2.2227v-5.5547c0-1.2311 0.99155-2.2227 2.2227-2.2227h1.7773v-3c0-2.77 2.23-5 5-5zm0 1c-2.216 0-4 1.9831-4 4.4453v2.5547h8v-2.5547c0-2.4622-1.784-4.4453-4-4.4453zm-7 8c-0.554 0-1 0.446-1 1v6c0 0.554 0.446 1 1 1h14c0.554 0 1-0.446 1-1v-6c0-0.554-0.446-1-1-1h-14z"
       opacity=".5"
       style="paint-order:stroke fill markers"
       id="path82" />
  </g>
  <g
     id="22-22-system-switch-user"
     transform="translate(199.5638,-18.886718)">
    <rect
       style="opacity:1;fill:none;fill-opacity:1;stroke:none;stroke-width:1.62963;stroke-linecap:round;stroke-linejoin:round;stroke-miterlimit:4;stroke-dasharray:none;stroke-opacity:1;paint-order:stroke fill markers"
       id="rect17281"
       width="22"
       height="22"
       x="-32"
       y="70"
       rx="0"
       ry="0" />
    <path
       id="rect8371"
       d="m -28,77 c -0.554,0 -1,0.446 -1,1 0,0.554 0.446,1 1,1 h 14 c 0.554,0 1,-0.446 1,-1 0,-0.554 -0.446,-1 -1,-1 z m 0,6 c -0.554,0 -1,0.446 -1,1 0,0.554 0.446,1 1,1 h 14 c 0.554,0 1,-0.446 1,-1 0,-0.554 -0.446,-1 -1,-1 z"
       class="ColorScheme-Text"
       fill="currentColor" />
    <path
       id="rect8598"
       d="m -18.244141,72.755859 c -0.255619,0 -0.511162,0.0971 -0.707031,0.292969 -0.391737,0.391737 -0.391737,1.022325 0,1.414063 l 4.242188,4.24414 c 0.391737,0.391737 1.024278,0.391737 1.416015,0 0.391737,-0.391737 0.391737,-1.024278 0,-1.416015 l -4.24414,-4.242188 c -0.195869,-0.195868 -0.451413,-0.292969 -0.707032,-0.292969 z M -28,83 c -0.255619,0 -0.511163,0.0971 -0.707031,0.292969 -0.391737,0.391737 -0.391737,1.024278 0,1.416015 l 4.24414,4.242188 c 0.391738,0.391737 1.022326,0.391737 1.414063,0 0.391737,-0.391737 0.391737,-1.022325 0,-1.414063 l -4.242188,-4.24414 C -27.486884,83.0971 -27.744381,83 -28,83 Z"
       class="ColorScheme-Text"
       style="opacity:1"
       fill="currentColor" />
  </g>
  <g
     id="22-22-system-lock-screen"
     transform="translate(159.6123,12.113282)">
    <rect
       style="opacity:1;fill:none;fill-opacity:1;stroke:none;stroke-width:1.62963;stroke-linecap:round;stroke-linejoin:round;stroke-miterlimit:4;stroke-dasharray:none;stroke-opacity:1;paint-order:stroke fill markers"
       id="rect17279"
       width="22"
       height="22"
       x="-32"
       y="39"
       rx="0"
       ry="0" />
    <path
       id="rect11213"
       d="m -21,41 c -2.77,0 -5,2.23 -5,5 v 1 h 2 v -1 c 0,-1.662 1.338,-3 3,-3 1.662,0 3,1.338 3,3 v 1 h 2 v -1 c 0,-2.77 -2.23,-5 -5,-5 z m 0,9 c -0.554,0 -1,0.446 -1,1 v 3 c 0,0.554 0.446,1 1,1 0.554,0 1,-0.446 1,-1 v -3 c 0,-0.554 -0.446,-1 -1,-1 z"
       class="ColorScheme-Text"
       fill="currentColor" />
    <path
       id="rect11552"
       d="m -25,46 c -2.216,0 -4,1.784 -4,4 v 5 c 0,2.216 1.784,4 4,4 h 8 c 2.216,0 4,-1.784 4,-4 v -5 c 0,-2.216 -1.784,-4 -4,-4 z m 0,2 h 8 c 1.108,0 2,0.892 2,2 v 5 c 0,1.108 -0.892,2 -2,2 h -8 c -1.108,0 -2,-0.892 -2,-2 v -5 c 0,-1.108 0.892,-2 2,-2 z"
       fill="currentColor"
       class="ColorScheme-Text" />
  </g>
  <g
     id="22-22-system-reboot"
     transform="translate(-64.193683,16.113282)">
    <rect
       style="opacity:1;fill:none;fill-opacity:1;stroke:none;stroke-width:1.62963;stroke-linecap:round;stroke-linejoin:round;stroke-miterlimit:4;stroke-dasharray:none;stroke-opacity:1;paint-order:stroke fill markers"
       id="rect17285"
       width="22"
       height="22"
       x="32"
       y="35"
       rx="0"
       ry="0" />
    <path
       id="rect12955"
       d="m 36.115234,40.949219 c -0.255619,0 -0.511162,0.09905 -0.707031,0.294922 -0.391737,0.391737 -0.391737,1.022325 0,1.414062 l 2.628906,2.628906 c 0.391738,0.391738 1.022326,0.391738 1.414063,0 0.391737,-0.391737 0.391737,-1.022325 0,-1.414062 l -2.628906,-2.628906 c -0.195869,-0.195869 -0.451413,-0.294922 -0.707032,-0.294922 z m 11.115235,5.458984 c -0.255619,0 -0.511163,0.09905 -0.707031,0.294922 -0.391738,0.391737 -0.391738,1.022325 0,1.414063 l 2.628906,2.628906 c 0.391737,0.391737 1.022325,0.391737 1.414062,0 0.391737,-0.391737 0.391737,-1.022326 0,-1.414063 L 47.9375,46.703125 c -0.195869,-0.195869 -0.451412,-0.294922 -0.707031,-0.294922 z"
       class="ColorScheme-Text"
       style="opacity:1"
       fill="currentColor" />
    <path
       d="M 36.622017,52.357746 C 33.733833,49.458248 33.166584,44.960306 35.245092,41.43488 a 1,1 0 0 1 1.370019,-0.353554 1,1 0 0 1 0.353554,1.37002 c -1.620763,2.749029 -1.18246,6.232106 1.068946,8.493568 2.260702,2.25967 5.749773,2.701983 8.503236,1.078614 a 1,1 0 0 1 1.370019,0.353553 1,1 0 0 1 -0.353553,1.37002 c -3.53033,2.081388 -8.035375,1.509244 -10.933915,-1.387974 a 1.0001,1.0001 0 0 1 -0.0014,-0.0014 z m 1.451502,-12.734828 a 1,1 0 0 1 0.353553,-1.370019 c 3.525425,-2.078506 8.023407,-1.511318 10.922867,1.376925 a 1.0001,1.0001 0 0 1 0.0028,0.0028 c 2.888184,2.899498 3.455432,7.39744 1.376925,10.922866 a 1,1 0 0 1 -1.37002,0.353554 1,1 0 0 1 -0.353553,-1.37002 c 1.620426,-2.748459 1.182622,-6.230687 -1.067566,-8.492187 -2.261397,-2.252629 -5.745349,-2.691426 -8.494949,-1.070327 a 1,1 0 0 1 -1.370019,-0.353554 z"
       id="path14017"
       class="ColorScheme-Text"
       fill="currentColor" />
  </g>
  <g
     id="22-22-system-suspend-hibernate"
     transform="translate(-104.14518,-16.886718)">
    <rect
       style="opacity:1;fill:none;fill-opacity:1;stroke:none;stroke-width:1.62963;stroke-linecap:round;stroke-linejoin:round;stroke-miterlimit:4;stroke-dasharray:none;stroke-opacity:1;paint-order:stroke fill markers"
       id="rect17287"
       width="22"
       height="22"
       x="32"
       y="68"
       rx="0"
       ry="0" />
    <path
       id="path14813"
       d="m 43,70 a 9,9 0 0 0 -9,9 9,9 0 0 0 9,9 9,9 0 0 0 9,-9 9,9 0 0 0 -9,-9 z m 0,2 a 6.9999985,6.9999985 0 0 1 7,7 6.9999985,6.9999985 0 0 1 -7,7 6.9999985,6.9999985 0 0 1 -7,-7 6.9999985,6.9999985 0 0 1 7,-7 z"
       class="ColorScheme-Text"
       fill="currentColor" />
    <rect
       id="rect14964"
       width="8"
       height="2"
       x="39"
       y="78"
       rx="1"
       ry="1"
       class="ColorScheme-Text"
       style="opacity:1"
       fill="currentColor" />
  </g>
  <g
     id="22-22-system-shutdown"
     transform="translate(-24.242187,46.113281)">
    <rect
       style="opacity:1;fill:none;fill-opacity:1;stroke:none;stroke-width:1.62963;stroke-linecap:round;stroke-linejoin:round;stroke-miterlimit:4;stroke-dasharray:none;stroke-opacity:1;paint-order:stroke fill markers"
       id="rect17283"
       width="22"
       height="22"
       x="32"
       y="5"
       rx="0"
       ry="0" />
    <path
       d="M 38.597656,8.4746094 A 1,1 0 0 0 37.849609,8.6386719 C 35.444615,10.316929 34.007166,13.065386 34,15.998047 A 1.0001,1.0001 0 0 0 34,16 c 0,4.958713 4.041287,9 9,9 4.958713,0 9,-4.041287 9,-9 -8.64e-4,-2.935698 -1.434373,-5.690181 -3.839844,-7.3730469 A 1,1 0 0 0 46.765625,8.875 1,1 0 0 0 47.013672,10.267578 C 48.886111,11.577536 49.999328,13.714827 50,16 c 0,3.877834 -3.122166,7 -7,7 -3.877834,0 -7,-3.122166 -7,-7 0.0062,-2.282066 1.122612,-4.41471 2.994141,-5.720703 A 1,1 0 0 0 39.242187,8.8867188 1,1 0 0 0 38.597656,8.4746094 Z"
       id="path15086"
       class="ColorScheme-Text"
       fill="currentColor" />
    <rect
       id="rect15726"
       width="2"
       height="9"
       x="42"
       y="6"
       rx="1"
       ry="1"
       class="ColorScheme-Text"
       style="opacity:1"
       fill="currentColor" />
  </g>
  <g
     id="22-22-system-log-out"
     transform="translate(55.650002,-49.886718)">
    <rect
       style="opacity:1;fill:none;fill-opacity:1;stroke:none;stroke-width:1.62963;stroke-linecap:round;stroke-linejoin:round;stroke-miterlimit:4;stroke-dasharray:none;stroke-opacity:1;paint-order:stroke fill markers"
       id="rect17289"
       width="22"
       height="22"
       x="32"
       y="101"
       rx="0"
       ry="0" />
    <path
       id="path15985"
       d="m 50.091916,108.08398 c -0.265483,5.6e-4 -0.519847,0.10667 -0.707031,0.29493 -0.389347,0.39158 -0.387601,1.02463 0.0039,1.41406 L 50.601682,111 H 44 c -0.552285,0 -1,0.44772 -1,1 0,0.55228 0.447715,1 1,1 h 6.601682 l -1.21289,1.20703 c -0.391501,0.38943 -0.393247,1.02248 -0.0039,1.41406 0.389402,0.39153 1.022452,0.39332 1.414063,0.004 l 2.927734,-2.91602 c 0.03767,-0.0375 0.07229,-0.078 0.103516,-0.12109 0.06069,-0.0833 0.108126,-0.17559 0.140625,-0.27344 6.73e-4,-0.002 0.0013,-0.004 0.002,-0.006 6.78e-4,-0.003 0.0013,-0.005 0.002,-0.008 0.03082,-0.0972 0.04659,-0.19856 0.04677,-0.30054 -10e-6,-0.0293 -0.0013,-0.0587 -0.0039,-0.0879 -6.56e-4,-0.003 -0.0013,-0.005 -0.002,-0.008 -0.0016,-0.0157 -0.0036,-0.0313 -0.0059,-0.0469 -0.0028,-0.0183 -0.006,-0.0366 -0.0098,-0.0547 -0.0029,-0.0157 -0.0062,-0.0313 -0.0098,-0.0469 -0.0013,-0.005 -0.0026,-0.0104 -0.0039,-0.0156 -0.0063,-0.0237 -0.01347,-0.0471 -0.02149,-0.0703 -0.01238,-0.0353 -0.02672,-0.0698 -0.04297,-0.10351 -0.01363,-0.0287 -0.02862,-0.0567 -0.04492,-0.084 -0.0026,-0.005 -0.0052,-0.009 -0.0078,-0.0137 -0.0045,-0.007 -0.009,-0.0131 -0.01367,-0.0195 -0.01301,-0.0193 -0.02669,-0.0382 -0.04101,-0.0566 -0.0039,-0.005 -0.0078,-0.0104 -0.01172,-0.0156 -0.0058,-0.007 -0.01162,-0.0144 -0.01758,-0.0215 -0.01799,-0.0216 -0.03689,-0.0425 -0.05664,-0.0625 -6.66e-4,-6.7e-4 -0.0013,-10e-4 -0.002,-0.002 l -2.927734,-2.91407 c -0.187505,-0.18755 -0.44183,-0.29293 -0.707032,-0.29297 z"
       class="ColorScheme-Text"
       fill="currentColor"
       style="opacity:1" />
    <path
       d="m 42,103 c -4.958713,0 -9,4.04129 -9,9 0,4.95871 4.041287,9 9,9 2.178984,-9.9e-4 4.284272,-0.7933 5.923828,-2.22852 a 1,1 0 0 0 0.09375,-1.41015 1,1 0 0 0 -1.410156,-0.0937 C 45.331881,118.38414 43.695202,118.99923 42,119 c -3.877834,0 -7,-3.12216 -7,-7 0,-3.87784 3.122166,-7 7,-7 1.695202,7.7e-4 3.331881,0.61586 4.607422,1.73242 a 1,1 0 0 0 1.410156,-0.0937 1,1 0 0 0 -0.09375,-1.41015 C 46.284272,103.7933 44.178984,103.00099 42,103 Z"
       id="path16116"
       class="ColorScheme-Text"
       fill="currentColor" />
  </g>
  <g
     id="22-22-system-suspend"
     transform="translate(79.709313,44.113281)">
    <rect
       style="opacity:1;fill:none;fill-opacity:1;stroke:none;stroke-width:1.62963;stroke-linecap:round;stroke-linejoin:round;stroke-miterlimit:4;stroke-dasharray:none;stroke-opacity:1;paint-order:stroke fill markers"
       id="rect17036"
       width="22"
       height="22"
       x="-32"
       y="7"
       rx="0"
       ry="0" />
    <path
       d="m -21,11 a 1,1 0 0 0 -1,1 1,1 0 0 0 1,1 h 5.585937 l -6.292968,6.292969 A 1.0001,1.0001 0 0 0 -21,21 h 8 a 1,1 0 0 0 1,-1 1,1 0 0 0 -1,-1 h -5.585937 l 6.292968,-6.292969 A 1.0001,1.0001 0 0 0 -13,11 Z"
       id="path16822"
       class="ColorScheme-Text"
       fill="currentColor" />
    <path
       d="m -29,18 a 1,1 0 0 0 -1,1 1,1 0 0 0 1,1 h 2.585938 l -3.292969,3.292969 A 1.0001,1.0001 0 0 0 -29,25 h 5 a 1,1 0 0 0 1,-1 1,1 0 0 0 -1,-1 h -2.585937 l 3.292968,-3.292969 A 1.0001,1.0001 0 0 0 -24,18 Z"
       id="path16824"
       class="ColorScheme-Text"
       style="opacity:1"
       fill="currentColor" />
  </g>
</svg>
