<svg width="32" height="32" version="1.1" xmlns="http://www.w3.org/2000/svg">
 <defs>
  <style id="current-color-scheme" type="text/css">.ColorScheme-Text { color:#333333; } .ColorScheme-Highlight { color:#5294e2; } .ColorScheme-ButtonBackground { color:#333333; }</style>
  <style type="text/css"/>
 </defs>
 <g id="view-refresh" transform="matrix(0 -1 -1 0 -218.84 494.56)" enable-background="new">
  <rect transform="scale(-1)" x="-481" y="258.97" width="16" height="16" color="#bebebe" fill="none"/>
  <path transform="matrix(0 -1 -1 0 1079 -14.938)" d="m252.06 598.02-3.5625 2.9824 3.5606 3.0176v-2c2.2091 0 4 1.7909 4 4s-1.7909 4-4 4-4-1.7909-4-4c0-6e-3 -4e-3 -0.0113-4e-3 -0.0176h-1.9922c-1.1e-4 6e-3 -4e-3 0.0113-4e-3 0.0176 0 0.0333 4e-3 0.0665 8e-3 0.0996 0.0538 3.2672 2.7141 5.9004 5.9941 5.9004 3.3137 0 6-2.6863 6-6s-2.6863-6-6-6v-2z" fill="#333"/>
 </g>
 <g id="view-history">
  <rect width="32" height="32" rx="0" ry="0" opacity="0" stroke-width="2" style="paint-order:fill markers stroke"/>
  <path d="m16 1c-8.2843 0-15 6.7157-15 15s6.7157 15 15 15 15-6.7157 15-15-6.7157-15-15-15zm0 6a9 9 0 0 1 3.8496 0.875l-0.001953 0.0039062a0.5 0.5 0 0 1 0.27539 0.44727 0.5 0.5 0 0 1-0.5 0.5 0.5 0.5 0 0 1-0.14453-0.021484 8 8 0 0 1-0.001954 0 0.5 0.5 0 0 1-0.013671-0.0058594 0.5 0.5 0 0 1-0.087891-0.039062 8 8 0 0 0-3.375-0.75977 8 8 0 0 0-8 8 8 8 0 0 0 8 8 8 8 0 0 0 8-8 8 8 0 0 0-0.89062-3.6562 0.5 0.5 0 0 1-0.0625-0.23828 0.5 0.5 0 0 1 0.5-0.5 0.5 0.5 0 0 1 0.4707 0.33203 9 9 0 0 1 0.98242 4.0625 9 9 0 0 1-9 9 9 9 0 0 1-9-9 9 9 0 0 1 9-9zm-0.5 3c0.277 0 0.5 0.223 0.5 0.5v4.793l3.3887 3.3887c0.19587 0.19587 0.19587 0.51116 0 0.70703s-0.51116 0.19587-0.70703 0l-3.5352-3.5352c-0.047012-0.047013-0.084075-0.10324-0.10938-0.16602-0.024483-0.06017-0.037109-0.1236-0.037109-0.1875v-5c0-0.277 0.223-0.5 0.5-0.5z" opacity=".5" stroke-width="1.1429"/>
 </g>
</svg>
