<?xml version="1.0" encoding="UTF-8" standalone="no"?>
<svg
   width="173"
   height="56"
   version="1.1"
   viewBox="0 0 173 56"
   id="svg87"
   sodipodi:docname="tooltip.svg"
   inkscape:version="1.3.2 (091e20ef0f, 2023-11-25)"
   xmlns:inkscape="http://www.inkscape.org/namespaces/inkscape"
   xmlns:sodipodi="http://sodipodi.sourceforge.net/DTD/sodipodi-0.dtd"
   xmlns:xlink="http://www.w3.org/1999/xlink"
   xmlns="http://www.w3.org/2000/svg"
   xmlns:svg="http://www.w3.org/2000/svg">
  <sodipodi:namedview
     id="namedview89"
     pagecolor="#ffffff"
     bordercolor="#666666"
     borderopacity="1.0"
     inkscape:pageshadow="2"
     inkscape:pageopacity="0.0"
     inkscape:pagecheckerboard="0"
     showgrid="true"
     inkscape:zoom="5.6568542"
     inkscape:cx="66.909979"
     inkscape:cy="65.053824"
     inkscape:window-width="1920"
     inkscape:window-height="1010"
     inkscape:window-x="0"
     inkscape:window-y="34"
     inkscape:window-maximized="1"
     inkscape:current-layer="svg87"
     inkscape:showpageshadow="2"
     inkscape:deskcolor="#d1d1d1">
    <inkscape:grid
       type="xygrid"
       id="grid935"
       originx="0"
       originy="0"
       spacingy="1"
       spacingx="1"
       units="px"
       visible="true" />
  </sodipodi:namedview>
  <style
     id="current-color-scheme"
     type="text/css">.ColorScheme-Text {
        color:#31363b;
        stop-color:#31363b;
      }
      .ColorScheme-Background {
        color:#eff0f1;
        stop-color:#eff0f1;
      }
      .ColorScheme-Highlight {
        color:#3281ea;
        stop-color:#3281ea;
      }
      .ColorScheme-ViewText {
        color:#31363b;
        stop-color:#31363b;
      }
      .ColorScheme-ViewBackground {
        color:#fcfcfc;
        stop-color:#fcfcfc;
      }
      .ColorScheme-ViewHover {
        color:#93cee9;
        stop-color:#93cee9;
      }
      .ColorScheme-ViewFocus{
        color:#3281ea;
        stop-color:#3281ea;
      }
      .ColorScheme-ButtonText {
        color:#31363b;
        stop-color:#31363b;
      }
      .ColorScheme-ButtonBackground {
        color:#eff0f1;
        stop-color:#eff0f1;
      }
      .ColorScheme-ButtonHover {
        color:#93cee9;
        stop-color:#93cee9;
      }
      .ColorScheme-ButtonFocus{
        color:#3281ea;
        stop-color:#3281ea;
      }</style>
  <defs
     id="defs16">
    <radialGradient
       id="radialGradient994"
       cx="78.509"
       cy="10"
       r="6"
       gradientTransform="matrix(1.1637e-7 -2.6667 2.6667 1.1637e-7 11.333 221.36)"
       gradientUnits="userSpaceOnUse"
       xlink:href="#linearGradient919" />
    <linearGradient
       id="linearGradient919">
      <stop
         stop-color="#000000"
         stop-opacity=".66663"
         offset="0"
         id="stop6" />
      <stop
         stop-color="#000000"
         stop-opacity=".15"
         offset=".5625"
         id="stop8" />
      <stop
         stop-color="#000000"
         stop-opacity="0"
         offset="1"
         id="stop10" />
    </linearGradient>
    <linearGradient
       id="linearGradient4948"
       x1="-16"
       x2="-8"
       y1="932.36"
       y2="932.36"
       gradientUnits="userSpaceOnUse"
       xlink:href="#linearGradient919"
       gradientTransform="matrix(1,0,0,1.6000001,0,-559.40799)" />
  </defs>
  <g
     id="shadow-topleft"
     transform="translate(48 -932.36)"
     opacity=".35">
    <path
       transform="translate(-48 932.36)"
       d="m20-6v18h12c0-3.324 2.676-6 6-6v-12z"
       fill="url(#radialGradient994)"
       opacity=".9"
       id="path18" />
  </g>
  <g
     id="shadow-left"
     transform="matrix(2 0 0 .625 6 -554.73)"
     opacity=".35">
    <rect
       transform="scale(-1,1)"
       x="-16"
       y="906.76801"
       width="3"
       height="51"
       fill="none"
       opacity="1"
       id="rect25" />
    <rect
       transform="scale(-1,1)"
       x="-13"
       y="906.76801"
       width="6"
       height="51.200001"
       fill="url(#linearGradient4948)"
       id="rect27"
       style="fill:url(#linearGradient4948);stroke-width:1.26491" />
  </g>
  <use
     transform="rotate(90,54,28)"
     width="100%"
     height="100%"
     xlink:href="#shadow-topleft"
     id="shadow-topright" />
  <use
     id="shadow-top"
     transform="rotate(90 54 28)"
     width="100%"
     height="100%"
     xlink:href="#shadow-left" />
  <use
     id="shadow-right"
     transform="matrix(-1,0,0,1,108,2.71e-5)"
     width="100%"
     height="100%"
     xlink:href="#shadow-left" />
  <use
     id="shadow-bottomleft"
     transform="rotate(-90,54,28)"
     width="100%"
     height="100%"
     xlink:href="#shadow-topleft" />
  <use
     id="shadow-bottomright"
     transform="rotate(180 54 28)"
     width="100%"
     height="100%"
     xlink:href="#shadow-topleft" />
  <use
     id="shadow-bottom"
     transform="rotate(-90 54 28)"
     width="100%"
     height="100%"
     xlink:href="#shadow-left" />
  <rect
     id="hint-tile-center"
     y="-1.4648e-5"
     width="5"
     height="5"
     fill="#ff6600" />
  <rect
     id="shadow-center"
     x="39"
     y="70"
     width="32"
     height="32"
     style="fill:none" />
  <g
     transform="translate(19,-904.36)"
     id="topleft">
    <path
       id="path19"
       d="m 19,6 c -3.324,0 -6,2.676 -6,6 h 6 V 7 Z"
       transform="translate(0,904.36)"
       style="opacity:0.8;fill:#242424;fill-opacity:1" />
  </g>
  <g
     transform="translate(19,-904.36)"
     id="top">
    <rect
       id="rect23"
       height="32"
       width="6"
       y="-51"
       x="-916.35999"
       transform="matrix(0,-1,-1,0,0,0)"
       style="opacity:0.8;fill:#242424;fill-opacity:1" />
  </g>
  <g
     transform="translate(19,-904.36)"
     id="bottom">
    <rect
       id="rect28"
       height="32"
       width="6"
       y="-51"
       x="948.35999"
       transform="rotate(90)"
       style="opacity:0.8;fill:#242424;fill-opacity:1" />
  </g>
  <g
     transform="translate(19,-904.36)"
     id="left">
    <rect
       id="rect33"
       height="32"
       width="6"
       y="916.35999"
       x="-19"
       transform="scale(-1,1)"
       style="opacity:0.8;fill:#242424;fill-opacity:1" />
  </g>
  <g
     transform="translate(19,-904.36)"
     id="right">
    <rect
       id="rect38"
       height="32"
       width="6"
       y="916.35999"
       x="51"
       style="opacity:0.8;fill:#242424;fill-opacity:1" />
  </g>
  <g
     transform="translate(19,-904.36)"
     id="center">
    <rect
       id="rect43"
       fill="none"
       height="32"
       width="32"
       y="916.35999"
       x="19" />
    <rect
       id="rect45"
       height="32"
       width="32"
       y="916.35999"
       x="19"
       style="opacity:0.8;fill:#242424;fill-opacity:1" />
  </g>
  <use
     xlink:href="#topleft"
     height="100%"
     width="100%"
     transform="matrix(-1,0,0,1,108,0)"
     id="topright"
     x="0"
     y="0" />
  <use
     xlink:href="#topleft"
     height="100%"
     width="100%"
     transform="rotate(-90,54,28.000006)"
     id="bottomleft"
     x="0"
     y="0" />
  <use
     xlink:href="#topleft"
     height="100%"
     width="100%"
     transform="rotate(180,54,28.000004)"
     id="bottomright"
     x="0"
     y="0" />
  <rect
     id="hint-top-margin"
     x="52"
     y="6"
     width="4"
     height="6"
     fill="#ff00ff" />
  <rect
     id="hint-bottom-margin"
     x="52"
     y="44"
     width="4"
     height="6"
     fill="#ff00ff" />
  <rect
     id="hint-right-margin"
     transform="rotate(90)"
     x="26"
     y="-76"
     width="4"
     height="6"
     fill="#ff00ff" />
  <rect
     id="hint-left-margin"
     transform="rotate(90)"
     x="26"
     y="-38"
     width="4"
     height="6"
     fill="#ff00ff" />
  <rect
     id="shadow-hint-top-margin"
     x="52"
     y="-6"
     width="4"
     height="12"
     fill="#ff6600" />
  <rect
     id="shadow-hint-bottom-margin"
     x="52"
     y="50"
     width="4"
     height="12"
     fill="#ff6600" />
  <rect
     id="shadow-hint-right-margin"
     transform="rotate(90)"
     x="26"
     y="-88"
     width="4"
     height="12"
     fill="#ff6600" />
  <rect
     id="shadow-hint-left-margin"
     transform="rotate(90)"
     x="26"
     y="-32"
     width="4"
     height="12"
     fill="#ff6600" />
  <rect
     style="fill:#00ffff;fill-opacity:1;stroke:none;stroke-width:0.182575"
     id="hint-top-inset"
     width="4"
     height="0.2"
     x="57"
     y="6" />
  <rect
     y="49.799988"
     x="57"
     height="0.2"
     width="3.9999998"
     id="hint-bottom-inset"
     style="fill:#00ffff;fill-opacity:1;stroke:none;stroke-width:0.182574" />
  <rect
     y="-75.999992"
     x="31"
     height="0.2"
     width="4"
     id="hint-right-inset"
     style="fill:#00ffff;fill-opacity:1;stroke:none;stroke-width:0.182573"
     transform="rotate(90)" />
  <rect
     style="fill:#00ffff;fill-opacity:1;stroke:none;stroke-width:0.182574"
     id="hint-left-inset"
     width="3.9999998"
     height="0.2"
     x="31"
     y="-32.199993"
     transform="rotate(90)" />
  <rect
     y="-6"
     x="57"
     height="12"
     width="3.9999998"
     id="shadow-hint-top-inset"
     style="fill:#00ff00;fill-opacity:1;stroke:none;stroke-width:1.41422" />
  <rect
     style="fill:#00ff00;fill-opacity:1;stroke:none;stroke-width:1.41421"
     id="shadow-hint-bottom-inset"
     width="3.9999998"
     height="11.999977"
     x="57"
     y="50" />
  <rect
     transform="rotate(90)"
     style="fill:#00ff00;fill-opacity:1;stroke:none;stroke-width:1.41422"
     id="shadow-hint-right-inset"
     width="3.9999769"
     height="12"
     x="31"
     y="-87.999992" />
  <rect
     transform="rotate(90)"
     y="-31.999992"
     x="31"
     height="12"
     width="4.0000229"
     id="shadow-hint-left-inset"
     style="fill:#00ff00;fill-opacity:1;stroke:none;stroke-width:1.41421" />
  <g
     transform="matrix(1,0,0,0.5,96,-449.18109)"
     id="mask-top">
    <rect
       y="-51"
       x="-922.36218"
       height="32"
       width="12"
       id="rect4265"
       transform="matrix(0,-1,-1,0,0,0)" />
  </g>
  <g
     transform="matrix(1,0,0,0.6,96,-522.61735)"
     id="mask-bottom">
    <rect
       transform="rotate(90)"
       id="rect4291"
       width="10"
       height="32"
       x="944.36224"
       y="-51" />
  </g>
  <g
     transform="matrix(0.54545455,0,0,1.5999957,101.90909,-1463.7755)"
     id="mask-left">
    <rect
       transform="scale(-1,1)"
       id="rect4317"
       width="11"
       height="20"
       x="-24"
       y="922.36218" />
  </g>
  <g
     transform="matrix(0.6,0,0,1,118.8,-904.36218)"
     id="mask-right">
    <rect
       y="916.36218"
       x="47"
       height="32"
       width="10"
       id="rect4323" />
  </g>
  <rect
     y="12"
     x="115"
     height="32"
     width="32"
     id="mask-center" />
  <g
     id="mask-topleft"
     transform="matrix(0.5,0,0,0.5,102.5,-449.18103)">
    <path
       id="path972"
       transform="matrix(1.0909091,0,0,1.0909091,-127.72727,903.81674)"
       d="m 140,6 c -6.09399,0 -11,4.906013 -11,11 h 11 z"
       style="fill:none" />
    <path
       id="path1"
       d="m 25.000004,911.36219 c -6.093992,0 -11.000004,4.90602 -11.000004,11 h 11.000004 z" />
  </g>
  <use
     height="100%"
     width="100%"
     transform="matrix(-1,0,0,1,262,0)"
     id="mask-topright"
     xlink:href="#mask-topleft"
     y="0"
     x="0" />
  <use
     height="100%"
     width="100%"
     transform="matrix(1,0,0,-1,3e-7,56.00002)"
     id="mask-bottomleft"
     xlink:href="#mask-topleft"
     y="0"
     x="0" />
  <use
     height="100%"
     width="100%"
     transform="rotate(180,131,28.00002)"
     id="mask-bottomright"
     xlink:href="#mask-topleft"
     y="0"
     x="0" />
</svg>
